<svg xmlns="http://www.w3.org/2000/svg" xmlns:xlink="http://www.w3.org/1999/xlink" version="1.1" id="Ebene_1" x="0px" y="0px" width="100px" height="100px" viewBox="0 0 100 100" enable-background="new 0 0 100 100" xml:space="preserve">
<g id="Glühbirne__x28_an_x29_" display="none">
	<path display="inline" d="M50,80.8c-2.2,0-4.9-0.6-7-1.5c-2.9-1.2-4.5-3-4.5-5c0-3.8-2.1-6.8-4.6-10.3c-3.1-4.5-6.6-9.5-6.6-17.4   c0-6.4,2.2-12.2,6.2-16.4c4.1-4.4,10-6.8,16.5-6.8s12.3,2.4,16.5,6.8c4,4.2,6.2,10.1,6.2,16.4c0,7.9-3.5,12.9-6.6,17.4   c-2.5,3.5-4.6,6.6-4.6,10.3c0,2-1.5,3.8-4.5,5C54.9,80.2,52.2,80.8,50,80.8z M50,25.4c-6,0-11.1,2.1-14.9,6.1   c-3.6,3.8-5.6,9.1-5.6,15c0,7.2,3.2,11.7,6.3,16.1c2.6,3.7,5,7.1,5,11.6c0,1.5,2.2,2.6,3.1,3c1.8,0.8,4.3,1.3,6.2,1.3   s4.3-0.5,6.2-1.3c0.9-0.4,3.1-1.5,3.1-3c0-4.5,2.4-7.9,5-11.6c3.1-4.4,6.3-9,6.3-16.1c0-5.8-2-11.1-5.6-15   C61.1,27.5,56,25.4,50,25.4z"/>
	<path display="inline" d="M50.1,84.6c-3.8,0-7.4-1.1-10.3-3.3c-0.5-0.3-0.6-1-0.2-1.5c0.3-0.5,1-0.6,1.5-0.2   c2.6,1.9,5.7,2.8,9.1,2.8s6.5-1,9-2.8c0.5-0.3,1.2-0.2,1.5,0.2c0.3,0.5,0.2,1.2-0.2,1.5C57.4,83.5,53.9,84.6,50.1,84.6z"/>
	<path display="inline" d="M50.1,88.2c-4.2,0-7.6-1-10.3-3c-0.5-0.3-0.6-1-0.2-1.5c0.3-0.5,1-0.6,1.5-0.2c2.4,1.7,5.3,2.6,9.1,2.6   c3.7,0,6.7-0.8,9-2.5c0.5-0.3,1.2-0.2,1.5,0.2c0.3,0.5,0.2,1.2-0.2,1.5C57.6,87.2,54.2,88.2,50.1,88.2z"/>
	<path display="inline" d="M60.6,87.6c-0.3-0.5-1-0.6-1.5-0.2c-2.7,1.9-6.1,2.2-9,2.2s-6.3-0.3-9.1-2.3c-0.5-0.3-1.2-0.2-1.5,0.2   c-0.3,0.5-0.2,1.2,0.2,1.5c1.9,1.4,4.1,2.1,6.2,2.4c0.3,2,2,3.6,4.1,3.6s3.8-1.6,4.1-3.6c2.1-0.3,4.2-1,6.2-2.4   C60.8,88.8,60.9,88.1,60.6,87.6z M50.1,92.9c-0.8,0-1.5-0.5-1.8-1.2c0.6,0,1.2,0,1.8,0s1.2,0,1.8,0C51.6,92.4,50.9,92.9,50.1,92.9z   "/>
	<path display="inline" d="M36.3,36.2c-0.2,0-0.5-0.1-0.7-0.2c-0.5-0.4-0.6-1.1-0.2-1.5c3-3.8,6.5-6,10.9-6.7   c0.6-0.1,1.2,0.3,1.3,0.9s-0.3,1.2-0.9,1.3c-3.8,0.7-6.9,2.5-9.5,5.9C37,36.1,36.6,36.2,36.3,36.2z"/>
	<path display="inline" d="M51.4,9.2c0-0.6-0.4-1.2-1-1.4c0.2-0.1,0.4-0.2,0.6-0.3c0.3-0.3,0.4-0.6,0.4-1s-0.2-0.8-0.4-1   C50.7,5.1,50.4,5,50,5s-0.8,0.2-1,0.4c-0.3,0.3-0.4,0.6-0.4,1s0.2,0.8,0.4,1s0.4,0.3,0.6,0.3c-0.6,0.2-1,0.7-1,1.4   c0,0.6,0.4,1.2,1,1.4c-0.6,0.2-1,0.7-1,1.4c0,0.6,0.4,1.2,1,1.4c-0.6,0.2-1,0.7-1,1.4s0.4,1.2,1,1.4c-0.2,0.1-0.4,0.2-0.6,0.3   c-0.3,0.3-0.4,0.6-0.4,1s0.2,0.8,0.4,1c0.3,0.3,0.6,0.4,1,0.4s0.8-0.2,1-0.4c0.3-0.3,0.4-0.6,0.4-1s-0.2-0.8-0.4-1   s-0.4-0.3-0.6-0.3c0.6-0.2,1-0.7,1-1.4s-0.4-1.2-1-1.4c0.6-0.2,1-0.7,1-1.4c0-0.6-0.4-1.2-1-1.4C51,10.4,51.4,9.9,51.4,9.2z"/>
	<path display="inline" d="M35,21.3c-0.3-0.3-0.6-0.4-1-0.4c-0.1,0-0.3,0-0.4,0.1c0.4-0.5,0.4-1.2,0.1-1.7c-0.4-0.5-1-0.8-1.6-0.6   c0.4-0.5,0.4-1.2,0.1-1.7c-0.3-0.5-1-0.8-1.6-0.6c0.4-0.5,0.4-1.2,0.1-1.7s-1-0.8-1.6-0.6c0.2-0.2,0.3-0.6,0.3-0.9   c0-0.4-0.2-0.8-0.4-1c-0.3-0.3-0.6-0.4-1-0.4s-0.8,0.2-1,0.4c-0.3,0.3-0.4,0.6-0.4,1s0.2,0.8,0.4,1c0.3,0.3,0.6,0.4,1,0.4   c0.1,0,0.3,0,0.4-0.1C28,15,28,15.7,28.3,16.2c0.4,0.5,1,0.8,1.6,0.6c-0.4,0.5-0.4,1.2-0.1,1.7s1,0.8,1.6,0.6   c-0.4,0.5-0.4,1.2-0.1,1.7c0.3,0.4,0.7,0.7,1.2,0.7c0.1,0,0.3,0,0.4-0.1c-0.2,0.2-0.3,0.6-0.3,0.9c0,0.4,0.2,0.8,0.4,1   c0.3,0.3,0.6,0.4,1,0.4s0.8-0.2,1-0.4c0.3-0.3,0.4-0.6,0.4-1S35.2,21.6,35,21.3z"/>
	<path display="inline" d="M24.4,34.3c-0.3-0.3-0.6-0.4-1-0.4s-0.8,0.2-1,0.4c0,0,0,0.1-0.1,0.1c0-0.6-0.3-1.2-0.9-1.5   c-0.6-0.2-1.3-0.1-1.7,0.4c0-0.6-0.3-1.2-0.9-1.5c-0.6-0.2-1.2-0.1-1.7,0.4c0-0.6-0.3-1.2-0.9-1.5c-0.6-0.2-1.3-0.1-1.7,0.4V31   c0-0.4-0.2-0.8-0.4-1c-0.3-0.3-0.6-0.4-1-0.4s-0.8,0.2-1,0.4c-0.3,0.3-0.4,0.6-0.4,1s0.2,0.8,0.4,1c0.3,0.3,0.6,0.4,1,0.4   s0.8-0.2,1-0.4c0,0,0-0.1,0.1-0.1c0,0.6,0.3,1.2,0.9,1.5c0.6,0.2,1.3,0.1,1.7-0.4c0,0.6,0.3,1.2,0.9,1.5c0.6,0.2,1.2,0.1,1.7-0.4   c0,0.6,0.3,1.2,0.9,1.5c0.2,0.1,0.4,0.1,0.6,0.1c0.4,0,0.8-0.2,1.1-0.5v0.1c0,0.4,0.2,0.8,0.4,1c0.3,0.3,0.6,0.4,1,0.4   s0.8-0.2,1-0.4c0.3-0.3,0.4-0.6,0.4-1S24.6,34.6,24.4,34.3z"/>
	<path display="inline" d="M22.8,51.1c-0.3-0.3-0.6-0.4-1-0.4s-0.8,0.2-1,0.4s-0.4,0.5-0.4,0.9c-0.3-0.5-0.9-0.8-1.6-0.7   c-0.6,0.1-1.1,0.6-1.2,1.2c-0.3-0.5-0.9-0.8-1.5-0.7S15,52.4,14.9,53c-0.3-0.5-0.9-0.8-1.6-0.7c-0.6,0.1-1.1,0.6-1.2,1.2   c-0.1-0.1-0.1-0.2-0.2-0.3c-0.3-0.3-0.6-0.4-1-0.4s-0.8,0.2-1,0.4c-0.3,0.3-0.4,0.6-0.4,1s0.2,0.8,0.4,1c0.3,0.3,0.6,0.4,1,0.4   s0.8-0.2,1-0.4s0.4-0.5,0.4-0.9c0.3,0.5,0.7,0.7,1.3,0.7c0.1,0,0.2,0,0.3,0c0.6-0.1,1.1-0.6,1.2-1.2c0.3,0.5,0.9,0.8,1.5,0.7   c0.6-0.1,1.1-0.6,1.2-1.2c0.3,0.5,0.9,0.8,1.6,0.7c0.6-0.1,1.1-0.6,1.2-1.2c0.1,0.1,0.1,0.2,0.2,0.3c0.3,0.3,0.6,0.4,1,0.4   s0.8-0.2,1-0.4c0.3-0.3,0.4-0.6,0.4-1C23.2,51.7,23,51.3,22.8,51.1z"/>
	<path display="inline" d="M30.7,65.8c-0.3-0.3-0.6-0.4-1-0.4s-0.8,0.2-1,0.4c-0.3,0.3-0.4,0.6-0.4,1c0,0.2,0.1,0.4,0.2,0.7   c-0.6-0.3-1.2-0.2-1.7,0.3s-0.6,1.1-0.3,1.7c-0.6-0.3-1.2-0.2-1.7,0.3s-0.6,1.1-0.3,1.7c-0.6-0.3-1.2-0.2-1.7,0.3   c-0.5,0.4-0.6,1.1-0.3,1.7c-0.2-0.1-0.4-0.2-0.7-0.2c-0.4,0-0.8,0.2-1,0.4c-0.3,0.3-0.4,0.6-0.4,1s0.2,0.8,0.4,1   c0.3,0.3,0.6,0.4,1,0.4s0.8-0.2,1-0.4c0.3-0.3,0.4-0.6,0.4-1c0-0.2-0.1-0.4-0.2-0.7c0.2,0.1,0.4,0.2,0.7,0.2c0.4,0,0.7-0.1,1-0.4   c0.5-0.4,0.6-1.1,0.3-1.7c0.6,0.3,1.2,0.2,1.7-0.3c0.5-0.4,0.6-1.1,0.3-1.7c0.6,0.3,1.2,0.2,1.7-0.3c0.5-0.4,0.5-1.1,0.3-1.7   c0.2,0.1,0.4,0.2,0.7,0.2c0.4,0,0.8-0.2,1-0.4c0.3-0.3,0.4-0.6,0.4-1S30.9,66.1,30.7,65.8z"/>
	<path display="inline" d="M73.2,12.2c-0.3-0.3-0.6-0.4-1-0.4s-0.8,0.2-1,0.4c-0.3,0.3-0.4,0.6-0.4,1c0,0.3,0.1,0.6,0.3,0.9   c-0.6-0.2-1.2,0.1-1.6,0.6s-0.3,1.2,0.1,1.7C69,16.2,68.4,16.5,68,17s-0.3,1.2,0.1,1.7c-0.6-0.2-1.2,0.1-1.6,0.6s-0.3,1.2,0.1,1.7   c-0.1,0-0.3-0.1-0.4-0.1c-0.4,0-0.8,0.2-1,0.4c-0.3,0.3-0.4,0.6-0.4,1s0.2,0.8,0.4,1c0.3,0.3,0.6,0.4,1,0.4s0.8-0.2,1-0.4   c0.3-0.3,0.4-0.6,0.4-1c0-0.3-0.1-0.6-0.3-0.9c0.1,0,0.3,0.1,0.4,0.1c0.5,0,0.9-0.2,1.2-0.7c0.4-0.5,0.3-1.2-0.1-1.7   c0.6,0.2,1.2-0.1,1.6-0.6s0.3-1.2-0.1-1.7c0.6,0.2,1.2-0.1,1.6-0.6s0.3-1.2-0.1-1.7c0.1,0,0.3,0.1,0.4,0.1c0.4,0,0.8-0.2,1-0.4   c0.3-0.3,0.4-0.6,0.4-1S73.5,12.4,73.2,12.2z"/>
	<path display="inline" d="M87.9,30.1c-0.3-0.3-0.6-0.4-1-0.4s-0.8,0.2-1,0.4c-0.3,0.3-0.4,0.6-0.4,1v0.1c-0.4-0.5-1.1-0.6-1.7-0.4   s-0.9,0.8-0.9,1.5c-0.4-0.5-1.1-0.6-1.7-0.4c-0.6,0.2-0.9,0.8-0.9,1.5c-0.4-0.5-1.1-0.6-1.7-0.4c-0.6,0.2-0.9,0.8-0.9,1.5   c0,0,0-0.1-0.1-0.1c-0.3-0.3-0.6-0.4-1-0.4s-0.8,0.2-1,0.4c-0.3,0.3-0.4,0.6-0.4,1s0.2,0.8,0.4,1c0.3,0.3,0.6,0.4,1,0.4   s0.8-0.2,1-0.4c0.3-0.3,0.4-0.6,0.4-1v-0.1c0.3,0.3,0.7,0.5,1.1,0.5c0.2,0,0.4,0,0.6-0.1c0.6-0.2,0.9-0.8,0.9-1.5   c0.4,0.5,1.1,0.6,1.7,0.4c0.6-0.2,0.9-0.8,0.9-1.5c0.4,0.5,1.1,0.6,1.7,0.4c0.6-0.2,0.9-0.8,0.9-1.5c0,0,0,0.1,0.1,0.1   c0.3,0.3,0.6,0.4,1,0.4s0.8-0.2,1-0.4c0.3-0.3,0.4-0.6,0.4-1C88.3,30.7,88.2,30.3,87.9,30.1z"/>
	<path display="inline" d="M90.1,53.2c-0.3-0.3-0.6-0.4-1-0.4s-0.8,0.2-1,0.4c-0.1,0.1-0.2,0.2-0.2,0.3c-0.1-0.6-0.5-1.1-1.2-1.2   c-0.6-0.1-1.2,0.2-1.5,0.7c-0.1-0.6-0.5-1.1-1.2-1.2c-0.6-0.1-1.2,0.2-1.6,0.7c-0.1-0.6-0.5-1.1-1.2-1.2c-0.6-0.1-1.2,0.2-1.6,0.7   c0-0.3-0.2-0.6-0.4-0.9c-0.3-0.3-0.6-0.4-1-0.4s-0.8,0.2-1,0.4c-0.3,0.3-0.4,0.6-0.4,1s0.2,0.8,0.4,1c0.3,0.3,0.6,0.4,1,0.4   s0.8-0.2,1-0.4c0.1-0.1,0.2-0.2,0.2-0.3c0.1,0.6,0.5,1.1,1.2,1.2c0.6,0.1,1.2-0.2,1.5-0.7c0.1,0.6,0.5,1.1,1.2,1.2   c0.6,0.1,1.2-0.2,1.6-0.7c0.1,0.6,0.5,1.1,1.2,1.2c0.1,0,0.2,0,0.3,0c0.5,0,1-0.3,1.3-0.7c0,0.3,0.2,0.6,0.4,0.9   c0.3,0.3,0.6,0.4,1,0.4s0.8-0.2,1-0.4c0.3-0.3,0.4-0.6,0.4-1C90.6,53.9,90.4,53.5,90.1,53.2z"/>
	<path display="inline" d="M79.2,73.6c-0.3-0.3-0.6-0.4-1-0.4c-0.2,0-0.4,0.1-0.7,0.2c0.3-0.6,0.2-1.2-0.3-1.7   c-0.4-0.4-1.1-0.6-1.7-0.3c0.3-0.5,0.2-1.2-0.3-1.7s-1.1-0.6-1.7-0.3c0.3-0.5,0.2-1.2-0.3-1.7c-0.4-0.4-1.1-0.5-1.7-0.3   c0.1-0.2,0.2-0.4,0.2-0.7c0-0.4-0.2-0.8-0.4-1c-0.3-0.3-0.6-0.4-1-0.4s-0.8,0.2-1,0.4c-0.3,0.3-0.4,0.6-0.4,1s0.2,0.8,0.4,1   c0.3,0.3,0.6,0.4,1,0.4c0.2,0,0.4-0.1,0.7-0.2c-0.3,0.6-0.2,1.2,0.3,1.7c0.4,0.4,1.1,0.6,1.7,0.3c-0.3,0.6-0.2,1.2,0.3,1.7   c0.4,0.4,1.1,0.6,1.7,0.3c-0.3,0.6-0.2,1.2,0.3,1.7c0.3,0.3,0.7,0.4,1,0.4c0.2,0,0.4-0.1,0.7-0.2c-0.1,0.2-0.2,0.4-0.2,0.7   c0,0.4,0.2,0.8,0.4,1c0.3,0.3,0.6,0.4,1,0.4s0.8-0.2,1-0.4c0.3-0.3,0.4-0.6,0.4-1C79.6,74.3,79.5,73.9,79.2,73.6z"/>
</g>
<g id="Glühbirne__x28_aus_x29_" display="none">
	<path display="inline" d="M50,80.8c-2.2,0-4.9-0.6-7-1.5c-2.9-1.2-4.5-3-4.5-5c0-3.8-2.1-6.8-4.6-10.3c-3.1-4.5-6.6-9.5-6.6-17.4   c0-6.4,2.2-12.2,6.2-16.4c4.1-4.4,10-6.8,16.5-6.8s12.3,2.4,16.5,6.8c4,4.2,6.2,10.1,6.2,16.4c0,7.9-3.5,12.9-6.6,17.4   c-2.5,3.5-4.6,6.6-4.6,10.3c0,2-1.5,3.8-4.5,5C54.9,80.2,52.2,80.8,50,80.8z M50,25.4c-6,0-11.1,2.1-14.9,6.1   c-3.6,3.8-5.6,9.1-5.6,15c0,7.2,3.2,11.7,6.3,16.1c2.6,3.7,5,7.1,5,11.6c0,1.5,2.2,2.6,3.1,3c1.8,0.8,4.3,1.3,6.2,1.3   s4.3-0.5,6.2-1.3c0.9-0.4,3.1-1.5,3.1-3c0-4.5,2.4-7.9,5-11.6c3.1-4.4,6.3-9,6.3-16.1c0-5.8-2-11.1-5.6-15   C61.1,27.5,56,25.4,50,25.4z"/>
	<path display="inline" d="M50.1,84.6c-3.8,0-7.4-1.1-10.3-3.3c-0.5-0.3-0.6-1-0.2-1.5c0.3-0.5,1-0.6,1.5-0.2   c2.6,1.9,5.7,2.8,9.1,2.8s6.5-1,9-2.8c0.5-0.3,1.2-0.2,1.5,0.2c0.3,0.5,0.2,1.2-0.2,1.5C57.4,83.5,53.9,84.6,50.1,84.6z"/>
	<path display="inline" d="M50.1,88.2c-4.2,0-7.6-1-10.3-3c-0.5-0.3-0.6-1-0.2-1.5c0.3-0.5,1-0.6,1.5-0.2c2.4,1.7,5.3,2.6,9.1,2.6   c3.7,0,6.7-0.8,9-2.5c0.5-0.3,1.2-0.2,1.5,0.2c0.3,0.5,0.2,1.2-0.2,1.5C57.6,87.2,54.2,88.2,50.1,88.2z"/>
	<path display="inline" d="M60.6,87.6c-0.3-0.5-1-0.6-1.5-0.2c-2.7,1.9-6.1,2.2-9,2.2s-6.3-0.3-9.1-2.3c-0.5-0.3-1.2-0.2-1.5,0.2   c-0.3,0.5-0.2,1.2,0.2,1.5c1.9,1.4,4.1,2.1,6.2,2.4c0.3,2,2,3.6,4.1,3.6s3.8-1.6,4.1-3.6c2.1-0.3,4.2-1,6.2-2.4   C60.8,88.8,60.9,88.1,60.6,87.6z M50.1,92.9c-0.8,0-1.5-0.5-1.8-1.2c0.6,0,1.2,0,1.8,0s1.2,0,1.8,0C51.6,92.4,50.9,92.9,50.1,92.9z   "/>
	<path display="inline" d="M36.3,36.2c-0.2,0-0.5-0.1-0.7-0.2c-0.5-0.4-0.6-1.1-0.2-1.5c3-3.8,6.5-6,10.9-6.7   c0.6-0.1,1.2,0.3,1.3,0.9s-0.3,1.2-0.9,1.3c-3.8,0.7-6.9,2.5-9.5,5.9C37,36.1,36.6,36.2,36.3,36.2z"/>
</g>
<g id="Glühbirne__x28_kaputt_x29_" display="none">
	<path display="inline" d="M50,84.5c-3.8,0-7.4-1.1-10.3-3.2c-0.5-0.4-0.6-1-0.2-1.5c0.4-0.5,1-0.6,1.5-0.2c2.5,1.9,5.7,2.8,9,2.8   s6.4-1,9-2.8c0.5-0.4,1.2-0.2,1.5,0.2c0.4,0.5,0.2,1.2-0.2,1.5C57.4,83.4,53.8,84.5,50,84.5z"/>
	<path display="inline" d="M50,88.1c-4.2,0-7.6-1-10.3-3c-0.5-0.4-0.6-1-0.2-1.5c0.4-0.5,1-0.6,1.5-0.2c2.4,1.7,5.3,2.5,9,2.5   s6.6-0.8,9-2.5c0.5-0.4,1.2-0.2,1.5,0.2c0.4,0.5,0.2,1.2-0.2,1.5C57.6,87.1,54.2,88.1,50,88.1z"/>
	<path display="inline" d="M60.5,87.5c-0.4-0.5-1-0.6-1.5-0.2c-2.7,1.9-6.1,2.2-9,2.2s-6.3-0.3-9-2.3c-0.5-0.4-1.2-0.2-1.5,0.2   c-0.4,0.5-0.2,1.2,0.2,1.5c1.9,1.4,4.1,2.1,6.2,2.4c0.3,2,2,3.6,4.1,3.6s3.8-1.6,4.1-3.6c2.1-0.3,4.2-1,6.1-2.4   C60.8,88.7,60.9,88,60.5,87.5z M50,92.8c-0.8,0-1.5-0.5-1.8-1.2c0.6,0,1.2,0,1.8,0s1.2,0,1.8,0C51.5,92.3,50.9,92.8,50,92.8z"/>
	<path display="inline" d="M36.3,36.4c-0.2,0-0.5-0.1-0.7-0.2c-0.5-0.4-0.6-1.1-0.2-1.5c3-3.8,6.4-5.9,10.8-6.7   c0.6-0.1,1.2,0.3,1.3,0.9s-0.3,1.2-0.9,1.3c-3.8,0.7-6.8,2.5-9.5,5.9C37,36.2,36.7,36.4,36.3,36.4z"/>
	<path display="inline" d="M66.4,30.2c-4.1-4.4-10-6.8-16.4-6.8c-6.5,0-12.3,2.4-16.4,6.8c-4,4.2-6.2,10.1-6.2,16.4   c0,7.8,3.5,12.9,6.6,17.3c2.4,3.5,4.6,6.5,4.6,10.3c0,2,1.5,3.7,4.4,5c2.1,0.9,4.8,1.5,7,1.5s4.9-0.6,7-1.5c2.9-1.2,4.4-3,4.4-5   c0-3.8,2.1-6.8,4.6-10.3c3.1-4.5,6.6-9.5,6.6-17.3C72.6,40.2,70.4,34.4,66.4,30.2z M64.2,62.7c-2.5,3.7-5,7.1-5,11.6   c0,1.5-2.2,2.6-3.1,3c-1.8,0.8-4.3,1.3-6.1,1.3s-4.3-0.5-6.1-1.3c-0.9-0.4-3.1-1.5-3.1-3c0-4.4-2.4-7.9-5-11.6   c-3.1-4.4-6.2-8.9-6.2-16.1c0-5.8,2-11.1,5.6-14.9c3.8-4,8.9-6.1,14.9-6.1c5.8,0,10.9,2,14.6,5.9l-0.8,4L60.7,34   c-0.3-0.2-0.7-0.1-1,0.1c-0.3,0.2-0.5,0.5-0.5,0.9l-0.3,5.4l-3.6,0.2c-0.4,0-0.7,0.3-0.9,0.6L51,47.8c-0.3,0.5,0,1.2,0.5,1.4   c0.1,0.1,0.3,0.1,0.5,0.1c0.4,0,0.8-0.2,1-0.6l2.9-6.2l3.9-0.3c0.5,0,1-0.5,1-1l0.3-4.7l3,1.4c0.3,0.1,0.7,0.1,0.9,0   s0.5-0.4,0.6-0.8l0.7-3.6c2.6,3.6,4.1,8.1,4.1,13C70.5,53.7,67.3,58.3,64.2,62.7z"/>
</g>
<g id="Glühbirne__x2B__Herz" display="none">
	<g display="inline">
		<path d="M59,79.5c-2.5,1.8-5.6,2.8-9,2.8s-6.5-1-9.1-2.8c-0.5-0.4-1.2-0.2-1.5,0.2c-0.4,0.5-0.2,1.2,0.2,1.5    c2.9,2.1,6.5,3.3,10.3,3.3s7.4-1.1,10.3-3.2c0.5-0.4,0.6-1,0.2-1.5C60.2,79.3,59.5,79.2,59,79.5z"/>
		<path d="M59,83.4c-2.3,1.7-5.3,2.5-9,2.5s-6.7-0.8-9.1-2.5c-0.5-0.4-1.2-0.2-1.5,0.2c-0.4,0.5-0.2,1.2,0.2,1.5c2.7,2,6.1,3,10.3,3    s7.5-1,10.3-2.9c0.5-0.4,0.6-1,0.2-1.5C60.2,83.1,59.5,83,59,83.4z"/>
		<path d="M59,87.3c-2.7,1.9-6.1,2.2-9,2.2s-6.3-0.3-9.1-2.3c-0.5-0.4-1.2-0.2-1.5,0.2c-0.4,0.5-0.2,1.2,0.2,1.5    c1.9,1.4,4.1,2.1,6.2,2.4c0.3,2,2,3.6,4.1,3.6s3.8-1.6,4.1-3.6c2.1-0.3,4.2-1,6.1-2.4c0.5-0.4,0.6-1,0.2-1.5    C60.2,87,59.5,86.9,59,87.3z M50,92.8c-0.8,0-1.5-0.5-1.8-1.2c0.6,0,1.2,0,1.8,0s1.2,0,1.8,0C51.6,92.3,50.9,92.8,50,92.8z"/>
		<path d="M46.3,27.8c-4.4,0.8-7.8,2.9-10.9,6.7C35,35,35.1,35.7,35.6,36c0.2,0.2,0.4,0.2,0.7,0.2s0.6-0.1,0.9-0.4    c2.7-3.4,5.7-5.3,9.5-5.9c0.6-0.1,1-0.7,0.9-1.3C47.5,28.1,46.9,27.7,46.3,27.8z"/>
		<path d="M48.5,17.5c0,0.4,0.2,0.8,0.4,1c0.3,0.3,0.6,0.4,1,0.4s0.8-0.2,1-0.4c0.3-0.3,0.4-0.6,0.4-1s-0.2-0.8-0.4-1    s-0.4-0.3-0.6-0.4c0.6-0.2,1-0.7,1-1.4c0-0.6-0.4-1.2-1-1.4c0.6-0.2,1-0.7,1-1.4c0-0.6-0.4-1.2-1-1.4c0.6-0.2,1-0.7,1-1.4    c0-0.6-0.4-1.2-1-1.4c0.2-0.1,0.4-0.2,0.6-0.4c0.3-0.3,0.4-0.6,0.4-1s-0.2-0.8-0.4-1C50.7,5.2,50.3,5,50,5c-0.4,0-0.8,0.2-1,0.4    c-0.3,0.3-0.4,0.6-0.4,1s0.2,0.8,0.4,1s0.4,0.3,0.6,0.4c-0.6,0.2-1,0.7-1,1.4c0,0.6,0.4,1.2,1,1.4c-0.6,0.2-1,0.7-1,1.4    c0,0.6,0.4,1.2,1,1.4c-0.6,0.2-1,0.7-1,1.4c0,0.6,0.4,1.2,1,1.4c-0.2,0.1-0.4,0.2-0.6,0.4C48.7,16.7,48.5,17.1,48.5,17.5z"/>
		<path d="M27.8,14.6c0.1,0,0.3,0,0.4-0.1c-0.4,0.5-0.4,1.2-0.1,1.7c0.4,0.5,1,0.8,1.6,0.6c-0.4,0.5-0.4,1.2-0.1,1.7    c0.4,0.5,1,0.8,1.6,0.6c-0.4,0.5-0.4,1.2-0.1,1.7c0.3,0.4,0.7,0.6,1.2,0.6c0.1,0,0.3,0,0.4-0.1c-0.2,0.3-0.3,0.6-0.3,0.9    c0,0.4,0.2,0.8,0.4,1c0.3,0.3,0.6,0.4,1,0.4s0.8-0.2,1-0.4c0.3-0.3,0.4-0.6,0.4-1s-0.2-0.8-0.4-1c-0.3-0.3-0.6-0.4-1-0.4    c-0.1,0-0.3,0-0.4,0.1c0.4-0.5,0.4-1.2,0.1-1.7c-0.4-0.5-1-0.8-1.6-0.6c0.4-0.5,0.4-1.2,0.1-1.7c-0.4-0.5-1-0.8-1.6-0.6    c0.4-0.5,0.4-1.2,0.1-1.7c-0.4-0.5-1-0.8-1.6-0.6c0.2-0.3,0.3-0.6,0.3-0.9c0-0.4-0.2-0.8-0.4-1c-0.3-0.3-0.6-0.4-1-0.4    s-0.8,0.2-1,0.4c-0.3,0.3-0.4,0.6-0.4,1s0.2,0.8,0.4,1C27.1,14.5,27.4,14.6,27.8,14.6z"/>
		<path d="M13.2,32.6c0.4,0,0.8-0.2,1-0.4c0,0,0-0.1,0.1-0.1c0,0.6,0.3,1.2,0.9,1.5c0.6,0.2,1.3,0.1,1.7-0.4c0,0.6,0.3,1.2,0.9,1.4    s1.3,0.1,1.7-0.4c0,0.6,0.3,1.2,0.9,1.4c0.2,0.1,0.4,0.1,0.6,0.1c0.4,0,0.8-0.2,1.1-0.5v0.1c0,0.4,0.2,0.8,0.4,1    c0.3,0.3,0.6,0.4,1,0.4s0.8-0.2,1-0.4c0.3-0.3,0.4-0.6,0.4-1s-0.2-0.8-0.4-1c-0.3-0.3-0.6-0.4-1-0.4s-0.8,0.2-1,0.4    c0,0,0,0.1-0.1,0.1c0-0.6-0.3-1.2-0.9-1.5c-0.6-0.2-1.3-0.1-1.7,0.4c0-0.6-0.3-1.2-0.9-1.4c-0.6-0.2-1.3-0.1-1.7,0.4    c0-0.6-0.3-1.2-0.9-1.4c-0.6-0.2-1.3-0.1-1.7,0.4v-0.1c0-0.4-0.2-0.8-0.4-1c-0.3-0.3-0.6-0.4-1-0.4s-0.8,0.2-1,0.4    c-0.3,0.3-0.4,0.6-0.4,1s0.2,0.8,0.4,1C12.4,32.4,12.8,32.6,13.2,32.6z"/>
		<path d="M20.7,53c0.3,0.3,0.6,0.4,1,0.4s0.8-0.2,1-0.4c0.3-0.3,0.4-0.6,0.4-1s-0.2-0.8-0.4-1c-0.3-0.3-0.6-0.4-1-0.4    s-0.8,0.2-1,0.4s-0.4,0.5-0.4,0.9c-0.3-0.5-0.9-0.8-1.5-0.7s-1.1,0.6-1.2,1.2c-0.3-0.5-0.9-0.8-1.5-0.7s-1.1,0.6-1.2,1.2    c-0.3-0.5-0.9-0.8-1.5-0.7s-1.1,0.6-1.2,1.2c-0.1-0.1-0.1-0.2-0.2-0.3c-0.3-0.3-0.6-0.4-1-0.4s-0.8,0.2-1,0.4    c-0.3,0.3-0.4,0.6-0.4,1s0.2,0.8,0.4,1c0.3,0.3,0.6,0.4,1,0.4s0.8-0.2,1-0.4s0.4-0.5,0.4-0.9c0.3,0.5,0.7,0.7,1.3,0.7    c0.1,0,0.2,0,0.3,0c0.6-0.1,1.1-0.6,1.2-1.2c0.3,0.5,0.9,0.8,1.5,0.7s1.1-0.6,1.2-1.2c0.3,0.5,0.9,0.8,1.5,0.7s1.1-0.6,1.2-1.3    C20.5,52.8,20.6,52.9,20.7,53z"/>
		<path d="M29.6,65.3c-0.4,0-0.8,0.2-1,0.4c-0.3,0.3-0.4,0.6-0.4,1c0,0.2,0.1,0.5,0.2,0.7c-0.5-0.3-1.2-0.2-1.7,0.3    s-0.5,1.1-0.3,1.7c-0.5-0.3-1.2-0.2-1.7,0.3s-0.5,1.1-0.3,1.7c-0.5-0.3-1.2-0.2-1.7,0.3s-0.5,1.1-0.3,1.7    c-0.2-0.1-0.4-0.2-0.7-0.2c-0.4,0-0.8,0.2-1,0.4s-0.4,0.6-0.4,1s0.2,0.8,0.4,1c0.3,0.3,0.6,0.4,1,0.4s0.8-0.2,1-0.4    c0.3-0.3,0.4-0.6,0.4-1c0-0.2-0.1-0.5-0.2-0.7c0.2,0.1,0.4,0.2,0.7,0.2c0.4,0,0.7-0.1,1-0.4c0.5-0.5,0.5-1.1,0.3-1.7    c0.5,0.3,1.2,0.2,1.7-0.3s0.5-1.1,0.3-1.7c0.5,0.3,1.2,0.2,1.7-0.3s0.5-1.1,0.3-1.7c0.2,0.1,0.4,0.2,0.7,0.2c0.4,0,0.8-0.2,1-0.4    c0.3-0.3,0.4-0.6,0.4-1s-0.2-0.8-0.4-1C30.4,65.4,30,65.3,29.6,65.3z"/>
		<path d="M66.1,23.8c0.4,0,0.8-0.2,1-0.4c0.3-0.3,0.4-0.6,0.4-1c0-0.3-0.1-0.6-0.3-0.9c0.1,0,0.3,0.1,0.4,0.1    c0.5,0,0.9-0.2,1.2-0.6c0.4-0.5,0.3-1.2-0.1-1.7c0.6,0.2,1.2-0.1,1.6-0.6s0.3-1.2-0.1-1.7c0.6,0.2,1.2-0.1,1.6-0.6    s0.3-1.2-0.1-1.7c0.1,0,0.3,0.1,0.4,0.1c0.4,0,0.8-0.2,1-0.4c0.3-0.3,0.4-0.6,0.4-1s-0.2-0.8-0.4-1c-0.3-0.3-0.6-0.4-1-0.4    s-0.8,0.2-1,0.4c-0.3,0.3-0.4,0.6-0.4,1c0,0.3,0.1,0.6,0.3,0.9c-0.6-0.2-1.2,0.1-1.6,0.6s-0.3,1.2,0.1,1.7    c-0.6-0.2-1.2,0.1-1.6,0.6s-0.3,1.2,0.1,1.7c-0.6-0.2-1.2,0.1-1.6,0.6s-0.3,1.2,0.1,1.7c-0.1,0-0.3-0.1-0.4-0.1    c-0.4,0-0.8,0.2-1,0.4c-0.3,0.3-0.4,0.6-0.4,1s0.2,0.8,0.4,1S65.7,23.8,66.1,23.8z"/>
		<path d="M76.7,36.8c0.4,0,0.8-0.2,1-0.4c0.3-0.3,0.4-0.6,0.4-1v-0.1c0.3,0.3,0.7,0.5,1.1,0.5c0.2,0,0.4,0,0.6-0.1    c0.6-0.2,0.9-0.8,0.9-1.4c0.4,0.5,1.1,0.6,1.7,0.4c0.6-0.2,0.9-0.8,0.9-1.4c0.4,0.5,1.1,0.6,1.7,0.4c0.6-0.2,0.9-0.8,0.9-1.5    c0,0,0,0.1,0.1,0.1c0.3,0.3,0.6,0.4,1,0.4s0.8-0.2,1-0.4c0.3-0.3,0.4-0.6,0.4-1s-0.2-0.8-0.4-1c-0.3-0.3-0.6-0.4-1-0.4    s-0.8,0.2-1,0.4c-0.3,0.3-0.4,0.6-0.4,1v0.1c-0.4-0.5-1.1-0.6-1.7-0.4S83,31.8,83,32.4c-0.4-0.5-1.1-0.6-1.7-0.4    c-0.6,0.2-0.9,0.8-0.9,1.4c-0.4-0.5-1.1-0.6-1.7-0.4c-0.6,0.2-0.9,0.8-0.9,1.5c0,0,0-0.1-0.1-0.1c-0.3-0.3-0.6-0.4-1-0.4    s-0.8,0.2-1,0.4c-0.3,0.3-0.4,0.6-0.4,1s0.2,0.8,0.4,1C75.9,36.6,76.3,36.8,76.7,36.8z"/>
		<path d="M90.1,53.1c-0.3-0.3-0.6-0.4-1-0.4s-0.8,0.2-1,0.4c-0.1,0.1-0.2,0.2-0.2,0.3c-0.1-0.6-0.5-1.1-1.2-1.3    c-0.6-0.1-1.2,0.2-1.5,0.7c-0.1-0.6-0.5-1.1-1.2-1.2c-0.6-0.1-1.2,0.2-1.5,0.7c-0.1-0.6-0.5-1.1-1.2-1.2c-0.6-0.1-1.2,0.2-1.5,0.7    c0-0.3-0.2-0.6-0.4-0.9c-0.3-0.3-0.6-0.4-1-0.4s-0.8,0.2-1,0.4c-0.3,0.3-0.4,0.6-0.4,1s0.2,0.8,0.4,1c0.3,0.3,0.6,0.4,1,0.4    s0.8-0.2,1-0.4c0.1-0.1,0.2-0.2,0.2-0.3c0.1,0.6,0.5,1.1,1.2,1.3c0.6,0.1,1.2-0.2,1.5-0.7c0.1,0.6,0.5,1.1,1.2,1.2    c0.6,0.1,1.2-0.2,1.5-0.7c0.1,0.6,0.5,1.1,1.2,1.2c0.1,0,0.2,0,0.3,0c0.5,0,1-0.3,1.3-0.7c0,0.3,0.2,0.6,0.4,0.9    c0.3,0.3,0.6,0.4,1,0.4s0.8-0.2,1-0.4c0.3-0.3,0.4-0.6,0.4-1C90.5,53.8,90.4,53.4,90.1,53.1z"/>
		<path d="M78.2,73.1c-0.2,0-0.5,0.1-0.7,0.2c0.3-0.5,0.2-1.2-0.3-1.7s-1.1-0.5-1.7-0.3c0.3-0.5,0.2-1.2-0.3-1.7s-1.1-0.5-1.7-0.3    c0.3-0.5,0.2-1.2-0.3-1.7s-1.1-0.5-1.7-0.3c0.1-0.2,0.2-0.4,0.2-0.7c0-0.4-0.2-0.8-0.4-1c-0.3-0.3-0.6-0.4-1-0.4s-0.8,0.2-1,0.4    c-0.3,0.3-0.4,0.6-0.4,1s0.2,0.8,0.4,1c0.3,0.3,0.6,0.4,1,0.4c0.2,0,0.5-0.1,0.7-0.2c-0.3,0.5-0.2,1.2,0.3,1.7s1.1,0.5,1.7,0.3    c-0.3,0.5-0.2,1.2,0.3,1.7s1.1,0.5,1.7,0.3c-0.3,0.5-0.2,1.2,0.3,1.7c0.3,0.3,0.7,0.4,1,0.4c0.2,0,0.5-0.1,0.7-0.2    c-0.1,0.2-0.2,0.4-0.2,0.7c0,0.4,0.2,0.8,0.4,1c0.3,0.3,0.6,0.4,1,0.4s0.8-0.2,1-0.4c0.3-0.3,0.4-0.6,0.4-1s-0.2-0.8-0.4-1    C78.9,73.2,78.5,73.1,78.2,73.1z"/>
		<path d="M66.5,30c-4.1-4.4-10-6.8-16.5-6.8S37.7,25.6,33.5,30c-4,4.2-6.2,10.1-6.2,16.5c0,7.9,3.5,12.9,6.6,17.4    c2.5,3.5,4.6,6.6,4.6,10.3c0,2,1.5,3.8,4.5,5c2.1,0.9,4.8,1.5,7,1.5s4.9-0.6,7-1.5c2.9-1.2,4.5-3,4.5-5c0-3.8,2.1-6.8,4.6-10.3    c3.1-4.5,6.6-9.5,6.6-17.4C72.7,40.1,70.5,34.3,66.5,30z M43.8,77.2c-0.9-0.4-3.1-1.5-3.1-3c0-1.2-0.2-2.3-0.5-3.4    c2.7,2.6,5.6,5.1,8.7,7.6C47.2,78.3,45.3,77.8,43.8,77.2z M59.3,74.2c0,1.5-2.2,2.6-3.1,3c-1.5,0.6-3.4,1.1-5.1,1.2    c3-2.6,6-5.1,8.7-7.6C59.5,71.9,59.3,73,59.3,74.2z M62.7,64.6c-3.4,4-7.9,8-12.7,12c-4.8-4-9.3-7.9-12.7-12    c-3.9-4.7-5.9-9-5.9-13c0-8.6,6-9.5,8.6-9.5c2.3,0,4.6,1.6,6.2,2.9c1.8,1.5,2.9,3,2.9,3c0.2,0.3,0.5,0.4,0.9,0.4l0,0    c0.3,0,0.7-0.2,0.9-0.4c0,0,1.2-1.5,2.9-3c1.5-1.3,3.9-2.9,6.2-2.9c7.7,0,8.6,6.7,8.6,9.5C68.6,55.6,66.6,59.9,62.7,64.6z     M67.4,42.5c-1.9-1.8-4.5-2.7-7.4-2.7c-4.3,0-8.3,3.9-10,5.8c-1.7-1.9-5.7-5.8-10-5.8c-3,0-5.6,0.9-7.4,2.7    c-1.6,1.5-2.6,3.4-3,5.8c0-0.6-0.1-1.2-0.1-1.8c0-5.8,2-11.1,5.6-15c3.8-4,8.9-6.1,14.9-6.1s11.1,2.1,14.9,6.1    c3.6,3.8,5.6,9.2,5.6,15c0,0.6,0,1.2-0.1,1.8C70,45.9,69,44,67.4,42.5z"/>
	</g>
</g>
<g id="Glühbirne__x2B__Faust" display="none">
	<g display="inline">
		<path d="M72.8,46.5c0-6.4-2.2-12.2-6.2-16.4c-4.1-4.4-10-6.8-16.5-6.8s-12.3,2.4-16.5,6.8c-4,4.2-6.2,10.1-6.2,16.4    c0,7.9,3.5,12.9,6.6,17.4c1.1,1.6,2.2,3.2,3,4.7c0.2,0.4,0.3,0.8,0.5,1.2c0.6,1.6,1.1,2.8,1.1,4.4c0,2,1.5,3.8,4.5,5    c2.1,0.9,4.8,1.5,7,1.5s4.9-0.6,7-1.5c2.9-1.2,4.5-3,4.5-5c0-1.7,0.5-2.8,1.1-4.4c0.1-0.4,0.3-0.8,0.5-1.2c0.8-1.5,1.9-3.1,3-4.7    C69.3,59.4,72.8,54.4,72.8,46.5z M50.7,40v-2.6c0-1.3,1-2.3,2.3-2.3s2.3,1,2.3,2.3v2.5v4.8h-4.7L50.7,40L50.7,40z M59.9,37.5    c1.3,0,2.3,1,2.3,2.3V47c-0.2-0.3-0.3-0.5-0.4-0.5c-0.8-1.2-2.2-1.9-3.6-1.9h-0.7v-4.8C57.6,38.6,58.6,37.5,59.9,37.5z M48.4,44.6    h-0.6c-0.3,0-0.6,0.1-0.8,0.3s-0.3,0.5-0.3,0.8c0,2.5,0.5,4.3,1.6,5.7C48,52.3,47.1,53,46.1,53c-1.3,0-2.3-1-2.3-2.3v-8.1V40    c0-1.3,1-2.3,2.3-2.3s2.3,1,2.3,2.3L48.4,44.6L48.4,44.6z M41.6,50.7v2.6c0,1.3-1,2.3-2.3,2.3c-1.2,0-2.2-0.9-2.3-2v-0.3    c0-0.1,0-0.1,0-0.2V42.7c0-1.3,1-2.3,2.3-2.3s2.3,1,2.3,2.3V50.7L41.6,50.7z M56.2,77.3c-1.8,0.8-4.3,1.3-6.2,1.3    s-4.3-0.5-6.2-1.3c-0.9-0.4-3.1-1.5-3.1-3c0-2.4-0.7-4.5-1.7-6.5c-0.8-2.2-1.7-5.2-1.9-10.5c0.7,0.4,1.4,0.6,2.2,0.6    c2.1,0,3.8-1.4,4.4-3.4c0.7,0.5,1.6,0.8,2.5,0.8c1.7,0,3.2-0.9,4-2.4c1.2,0.7,2.8,1,4.9,1.1v2c-4.9,0.9-6.9,7.7-7,8    c-0.2,0.6,0.2,1.2,0.8,1.4s1.2-0.2,1.4-0.8c0-0.1,1.9-6.5,6-6.5c0.6,0,1.1-0.5,1.1-1.1v-4c0-0.3-0.1-0.6-0.3-0.8s-0.5-0.3-0.8-0.3    l0,0c-2.9,0-4.7-0.4-5.7-1.4c0-0.1-0.1-0.1-0.2-0.2c-0.7-0.7-1.1-1.8-1.2-3.4h0.5c0,0,0,0,0.1,0c0,0,0,0,0.1,0h8.5    c0.7,0,1.4,0.4,1.8,1c0,0,0,0.1,0.1,0.1c0.8,1,3,4.1,3,6.2c0,7.3-1,11-2,13.6c-1,2-1.7,4.1-1.7,6.5C59.4,75.8,57.2,76.9,56.2,77.3    z M64.4,50.6L64.4,50.6V39.8c0-2.5-2-4.5-4.5-4.5c-0.9,0-1.8,0.3-2.5,0.8c-0.6-1.9-2.3-3.2-4.3-3.2c-2.1,0-3.8,1.4-4.4,3.4    c-0.7-0.5-1.6-0.8-2.5-0.8c-2.1,0-3.8,1.4-4.4,3.4c-0.7-0.5-1.6-0.8-2.5-0.8c-2.5,0-4.5,2-4.5,4.5v10.7c0,0.1,0,0.3,0,0.4v0.4    c0,3.2,0.2,5.8,0.5,7.9c-2.9-4.2-5.8-8.7-5.8-15.5c0-5.8,2-11.1,5.6-15c3.8-4,8.9-6.1,14.9-6.1s11.1,2.1,14.9,6.1    c3.6,3.8,5.6,9.1,5.6,15c0,6.8-2.9,11.3-5.8,15.5c0.3-2.1,0.5-4.7,0.5-7.9C65.3,53,64.9,51.8,64.4,50.6z"/>
		<path d="M59.1,79.6c-2.5,1.8-5.6,2.8-9,2.8s-6.5-1-9.1-2.8c-0.5-0.3-1.2-0.2-1.5,0.2c-0.3,0.5-0.2,1.2,0.2,1.5    c2.9,2.1,6.5,3.3,10.4,3.3c3.8,0,7.4-1.1,10.3-3.2c0.5-0.3,0.6-1,0.2-1.5C60.3,79.4,59.6,79.3,59.1,79.6z"/>
		<path d="M59.1,83.5c-2.3,1.7-5.3,2.5-9,2.5s-6.7-0.8-9.1-2.6c-0.5-0.3-1.2-0.2-1.5,0.2c-0.3,0.5-0.2,1.2,0.2,1.5    c2.7,2,6.1,3,10.4,3c4.2,0,7.5-1,10.3-2.9c0.5-0.3,0.6-1,0.2-1.5S59.6,83.2,59.1,83.5z"/>
		<path d="M59.1,87.4c-2.7,1.9-6.1,2.2-9,2.2s-6.3-0.3-9.1-2.3c-0.5-0.3-1.2-0.2-1.5,0.2c-0.3,0.5-0.2,1.2,0.2,1.5    c1.9,1.4,4.1,2.1,6.2,2.4c0.3,2,2,3.6,4.1,3.6s3.8-1.6,4.1-3.6c2.1-0.3,4.2-1,6.2-2.4c0.5-0.3,0.6-1,0.2-1.5    C60.3,87.2,59.6,87.1,59.1,87.4z M50.1,93c-0.8,0-1.5-0.5-1.8-1.2c0.6,0,1.2,0,1.8,0s1.2,0,1.8,0C51.6,92.5,50.9,93,50.1,93z"/>
		<path d="M46.3,27.8c-4.4,0.8-7.8,2.9-10.9,6.7C35,35,35.1,35.7,35.6,36c0.2,0.2,0.4,0.2,0.7,0.2s0.6-0.1,0.9-0.4    c2.7-3.4,5.7-5.3,9.5-5.9c0.6-0.1,1-0.7,0.9-1.3C47.5,28,46.9,27.7,46.3,27.8z"/>
		<path d="M48.5,17.4c0,0.4,0.2,0.8,0.4,1c0.3,0.3,0.6,0.4,1,0.4s0.8-0.2,1-0.4c0.3-0.3,0.4-0.6,0.4-1s-0.2-0.8-0.4-1    s-0.4-0.3-0.6-0.3c0.6-0.2,1-0.7,1-1.4s-0.4-1.2-1-1.4c0.6-0.2,1-0.7,1-1.4s-0.4-1.2-1-1.4c0.6-0.2,1-0.7,1-1.4    c0-0.6-0.4-1.2-1-1.4c0.2-0.1,0.4-0.2,0.6-0.3c0.3-0.3,0.4-0.6,0.4-1s-0.2-0.8-0.4-1c-0.3-0.3-0.6-0.4-1-0.4s-0.8,0.2-1,0.4    c-0.3,0.3-0.4,0.6-0.4,1s0.2,0.8,0.4,1s0.4,0.3,0.6,0.3c-0.6,0.2-1,0.7-1,1.4c0,0.6,0.4,1.2,1,1.4c-0.6,0.2-1,0.7-1,1.4    s0.4,1.2,1,1.4c-0.6,0.2-1,0.7-1,1.4s0.4,1.2,1,1.4c-0.2,0.1-0.4,0.2-0.6,0.3C48.7,16.7,48.5,17.1,48.5,17.4z"/>
		<path d="M27.8,14.6c0.1,0,0.3,0,0.4-0.1c-0.4,0.5-0.4,1.2-0.1,1.7c0.3,0.5,1,0.8,1.6,0.6c-0.4,0.5-0.4,1.2-0.1,1.7s1,0.8,1.6,0.6    c-0.4,0.5-0.4,1.2-0.1,1.7c0.3,0.4,0.7,0.7,1.2,0.7c0.1,0,0.3,0,0.4-0.1c-0.2,0.2-0.3,0.6-0.3,0.9c0,0.4,0.2,0.8,0.4,1    c0.3,0.3,0.6,0.4,1,0.4s0.8-0.2,1-0.4c0.3-0.3,0.4-0.6,0.4-1s-0.2-0.8-0.4-1c-0.3-0.3-0.6-0.4-1-0.4c-0.1,0-0.3,0-0.4,0.1    c0.4-0.5,0.4-1.2,0.1-1.7c-0.4-0.5-1-0.8-1.6-0.6c0.4-0.5,0.4-1.2,0.1-1.7s-1-0.8-1.6-0.6c0.4-0.5,0.4-1.2,0.1-1.7    c-0.4-0.5-1-0.8-1.6-0.6c0.2-0.3,0.3-0.6,0.3-0.9c0-0.4-0.2-0.8-0.4-1c-0.3-0.3-0.6-0.4-1-0.4s-0.8,0.2-1,0.4    c-0.3,0.3-0.4,0.6-0.4,1s0.2,0.8,0.4,1C27.1,14.4,27.4,14.6,27.8,14.6z"/>
		<path d="M13.1,32.6c0.4,0,0.8-0.2,1-0.4c0,0,0-0.1,0.1-0.1c0,0.6,0.3,1.2,0.9,1.5c0.6,0.2,1.3,0.1,1.7-0.4c0,0.6,0.3,1.2,0.9,1.5    c0.6,0.2,1.2,0.1,1.7-0.4c0,0.6,0.3,1.2,0.9,1.5c0.2,0.1,0.4,0.1,0.6,0.1c0.4,0,0.8-0.2,1.1-0.5v0.1c0,0.4,0.2,0.8,0.4,1    c0.3,0.3,0.6,0.4,1,0.4s0.8-0.2,1-0.4c0.3-0.3,0.4-0.6,0.4-1s-0.2-0.8-0.4-1c-0.3-0.3-0.6-0.4-1-0.4s-0.8,0.2-1,0.4    c0,0,0,0.1-0.1,0.1c0-0.6-0.3-1.2-0.9-1.5c-0.6-0.2-1.3-0.1-1.7,0.4c0-0.6-0.3-1.2-0.9-1.5c-0.6-0.2-1.2-0.1-1.7,0.4    c0-0.6-0.3-1.2-0.9-1.5c-0.6-0.2-1.3-0.1-1.7,0.4v-0.1c0-0.4-0.2-0.8-0.4-1c-0.3-0.3-0.6-0.4-1-0.4s-0.8,0.2-1,0.4    c-0.3,0.3-0.4,0.6-0.4,1s0.2,0.8,0.4,1C12.4,32.4,12.8,32.6,13.1,32.6z"/>
		<path d="M20.7,53.1c0.3,0.3,0.6,0.4,1,0.4s0.8-0.2,1-0.4c0.3-0.3,0.4-0.6,0.4-1s-0.2-0.8-0.4-1c-0.3-0.3-0.6-0.4-1-0.4    s-0.8,0.2-1,0.4s-0.4,0.5-0.4,0.9c-0.3-0.5-0.9-0.8-1.6-0.7c-0.6,0.1-1.1,0.6-1.2,1.2c-0.3-0.5-0.9-0.8-1.5-0.7s-1.1,0.6-1.2,1.2    c-0.3-0.5-0.9-0.8-1.6-0.7c-0.6,0.1-1.1,0.6-1.2,1.2c-0.1-0.1-0.1-0.2-0.2-0.3c-0.3-0.3-0.6-0.4-1-0.4s-0.8,0.2-1,0.4    c-0.3,0.3-0.4,0.6-0.4,1s0.2,0.8,0.4,1c0.3,0.3,0.6,0.4,1,0.4s0.8-0.2,1-0.4s0.4-0.5,0.4-0.9c0.3,0.5,0.7,0.7,1.3,0.7    c0.1,0,0.2,0,0.3,0c0.6-0.1,1.1-0.6,1.2-1.2c0.3,0.5,0.9,0.8,1.5,0.7s1.1-0.6,1.2-1.2c0.3,0.5,0.9,0.8,1.6,0.7    c0.6-0.1,1.1-0.6,1.2-1.2C20.5,52.9,20.6,53,20.7,53.1z"/>
		<path d="M29.6,65.3c-0.4,0-0.8,0.2-1,0.4c-0.3,0.3-0.4,0.6-0.4,1c0,0.2,0.1,0.5,0.2,0.7c-0.6-0.3-1.2-0.2-1.7,0.3    c-0.5,0.4-0.6,1.1-0.3,1.7c-0.6-0.3-1.2-0.2-1.7,0.3s-0.6,1.1-0.3,1.7c-0.6-0.3-1.2-0.2-1.7,0.3c-0.4,0.5-0.6,1.1-0.3,1.7    c-0.2-0.1-0.4-0.2-0.7-0.2c-0.4,0-0.8,0.2-1,0.4c-0.3,0.3-0.4,0.6-0.4,1s0.2,0.8,0.4,1c0.3,0.3,0.6,0.4,1,0.4s0.8-0.2,1-0.4    c0.3-0.3,0.4-0.6,0.4-1c0-0.2-0.1-0.5-0.2-0.7c0.2,0.1,0.4,0.2,0.7,0.2c0.4,0,0.7-0.1,1-0.4c0.4-0.5,0.6-1.1,0.3-1.7    c0.6,0.3,1.2,0.2,1.7-0.3s0.6-1.1,0.3-1.7c0.5,0.3,1.2,0.2,1.7-0.3c0.5-0.4,0.5-1.1,0.3-1.7c0.2,0.1,0.4,0.2,0.7,0.2    c0.4,0,0.8-0.2,1-0.4c0.3-0.3,0.4-0.6,0.4-1s-0.2-0.8-0.4-1C30.4,65.5,30,65.3,29.6,65.3z"/>
		<path d="M66.1,23.8c0.4,0,0.8-0.2,1-0.4c0.3-0.3,0.4-0.6,0.4-1c0-0.3-0.1-0.6-0.3-0.9c0.1,0,0.3,0.1,0.4,0.1    c0.5,0,0.9-0.2,1.2-0.7c0.4-0.5,0.3-1.2-0.1-1.7c0.6,0.2,1.2-0.1,1.6-0.6s0.3-1.2-0.1-1.7c0.6,0.2,1.2-0.1,1.6-0.6    s0.3-1.2-0.1-1.7c0.1,0,0.3,0.1,0.4,0.1c0.4,0,0.8-0.2,1-0.4c0.3-0.3,0.4-0.6,0.4-1s-0.2-0.8-0.4-1c-0.3-0.3-0.6-0.4-1-0.4    s-0.8,0.2-1,0.4c-0.3,0.3-0.4,0.6-0.4,1c0,0.3,0.1,0.6,0.3,0.9c-0.6-0.2-1.2,0.1-1.6,0.6s-0.3,1.2,0.1,1.7    c-0.6-0.2-1.2,0.1-1.6,0.6s-0.3,1.2,0.1,1.7c-0.6-0.2-1.2,0.1-1.6,0.6s-0.3,1.2,0.1,1.7c-0.1,0-0.3-0.1-0.4-0.1    c-0.4,0-0.8,0.2-1,0.4c-0.3,0.3-0.4,0.6-0.4,1s0.2,0.8,0.4,1C65.4,23.6,65.8,23.8,66.1,23.8z"/>
		<path d="M76.7,36.8c0.4,0,0.8-0.2,1-0.4c0.3-0.3,0.4-0.6,0.4-1v-0.1c0.3,0.3,0.7,0.5,1.1,0.5c0.2,0,0.4,0,0.6-0.1    c0.6-0.2,0.9-0.8,0.9-1.5c0.4,0.5,1.1,0.6,1.7,0.4c0.6-0.2,0.9-0.8,0.9-1.5c0.4,0.5,1.1,0.6,1.7,0.4s0.9-0.8,0.9-1.5    c0,0,0,0.1,0.1,0.1c0.3,0.3,0.6,0.4,1,0.4s0.8-0.2,1-0.4c0.3-0.3,0.4-0.6,0.4-1s-0.2-0.8-0.4-1c-0.3-0.3-0.6-0.4-1-0.4    s-0.8,0.2-1,0.4c-0.3,0.3-0.4,0.6-0.4,1v0.1c-0.4-0.5-1.1-0.6-1.7-0.4C83.3,31,83,31.6,83,32.3c-0.4-0.5-1.1-0.6-1.7-0.4    c-0.6,0.2-0.9,0.8-0.9,1.5c-0.4-0.5-1.1-0.6-1.7-0.4c-0.6,0.2-0.9,0.8-0.9,1.5c0,0,0-0.1-0.1-0.1c-0.3-0.3-0.6-0.4-1-0.4    s-0.8,0.2-1,0.4c-0.3,0.3-0.4,0.6-0.4,1s0.2,0.8,0.4,1C76,36.7,76.4,36.8,76.7,36.8z"/>
		<path d="M90.2,53.2c-0.3-0.3-0.6-0.4-1-0.4s-0.8,0.2-1,0.4c-0.1,0.1-0.2,0.2-0.2,0.3c-0.1-0.6-0.5-1.1-1.2-1.2    c-0.6-0.1-1.2,0.2-1.5,0.7c-0.1-0.6-0.5-1.1-1.2-1.2c-0.6-0.1-1.2,0.2-1.6,0.7c-0.1-0.6-0.5-1.1-1.2-1.2c-0.6-0.1-1.2,0.2-1.6,0.7    c0-0.3-0.2-0.6-0.4-0.9c-0.3-0.3-0.6-0.4-1-0.4s-0.8,0.2-1,0.4c-0.3,0.3-0.4,0.6-0.4,1s0.2,0.8,0.4,1c0.3,0.3,0.6,0.4,1,0.4    s0.8-0.2,1-0.4c0.1-0.1,0.2-0.2,0.2-0.3c0.1,0.6,0.5,1.1,1.2,1.2c0.6,0.1,1.2-0.2,1.5-0.7c0.1,0.6,0.5,1.1,1.2,1.2    c0.6,0.1,1.2-0.2,1.6-0.7c0.1,0.6,0.5,1.1,1.2,1.2c0.1,0,0.2,0,0.3,0c0.5,0,1-0.3,1.3-0.7c0,0.3,0.2,0.6,0.4,0.9    c0.3,0.3,0.6,0.4,1,0.4s0.8-0.2,1-0.4c0.3-0.3,0.4-0.6,0.4-1C90.6,53.8,90.5,53.4,90.2,53.2z"/>
		<path d="M78.3,73.2c-0.2,0-0.5,0.1-0.7,0.2c0.3-0.6,0.2-1.2-0.3-1.7s-1.1-0.6-1.7-0.3c0.3-0.5,0.2-1.2-0.3-1.7s-1.1-0.6-1.7-0.3    c0.3-0.5,0.2-1.2-0.3-1.7c-0.5-0.4-1.1-0.5-1.7-0.3c0.1-0.2,0.2-0.4,0.2-0.7c0-0.4-0.2-0.8-0.4-1c-0.3-0.3-0.6-0.4-1-0.4    s-0.8,0.2-1,0.4c-0.3,0.3-0.4,0.6-0.4,1s0.2,0.8,0.4,1c0.3,0.3,0.6,0.4,1,0.4c0.2,0,0.5-0.1,0.7-0.2c-0.3,0.6-0.2,1.2,0.3,1.7    c0.4,0.4,1.1,0.6,1.7,0.3c-0.3,0.6-0.2,1.2,0.3,1.7c0.5,0.4,1.1,0.6,1.7,0.3c-0.3,0.6-0.2,1.2,0.3,1.7c0.3,0.3,0.7,0.4,1,0.4    c0.2,0,0.5-0.1,0.7-0.2c-0.1,0.2-0.2,0.4-0.2,0.7c0,0.4,0.2,0.8,0.4,1c0.3,0.3,0.6,0.4,1,0.4s0.8-0.2,1-0.4c0.3-0.3,0.4-0.6,0.4-1    s-0.2-0.8-0.4-1C79,73.4,78.6,73.2,78.3,73.2z"/>
	</g>
</g>
<g id="Glühbirne__x2B__Windrad" display="none">
	<g display="inline">
		<path d="M66.5,30c-4.1-4.4-10-6.8-16.5-6.8S37.7,25.6,33.5,30c-4,4.2-6.2,10.1-6.2,16.5c0,0.5,0,1.1,0.1,1.6c0,0.1,0,0.2,0,0.3    s0,0.2,0,0.3c0.6,6.6,3.7,11.2,6.6,15.2c2.5,3.5,4.6,6.6,4.6,10.3c0,2,1.5,3.8,4.5,5c2.1,0.9,4.8,1.5,7,1.5s4.9-0.6,7-1.5    c2.9-1.2,4.5-3,4.5-5c0-3.8,2.1-6.8,4.6-10.3c3.1-4.5,6.6-9.5,6.6-17.4C72.7,40.1,70.5,34.3,66.5,30z M48.8,49.6    c-0.6-0.2-1.2-0.7-1.6-1.2c-0.1-0.1-0.1-0.2-0.2-0.3c-0.2-0.3-0.3-0.7-0.4-1.1c-0.1-0.6-0.1-1.2,0.1-1.7c0.1-0.1,0.1-0.2,0.1-0.4    c0.5-1,1.4-1.8,2.6-2c0.1,0,0.3,0,0.4,0h0.1c0,0,0,0,0.1,0c1.7,0,3.2,1.2,3.5,2.9c0.1,0.7,0,1.4-0.3,2.1c-0.1,0.1-0.1,0.2-0.1,0.3    c-0.5,0.9-1.4,1.5-2.4,1.7h-0.1c-0.2,0-0.3,0-0.5,0l0,0C49.6,49.8,49.2,49.8,48.8,49.6L48.8,49.6z M54.2,50.1    c1.1,1.2,2.2,2.6,3.3,4.1c3.1,4.5,4.3,7.7,4.3,8.8c-1-0.4-3.7-2.5-6.8-7c-1.1-1.5-2-3.1-2.7-4.5C53,51.2,53.7,50.7,54.2,50.1z     M53.5,41.8c-0.6-0.5-1.4-0.8-2.2-1c0.5-1.5,1.1-3.2,1.9-4.9c2.3-5,4.6-7.6,5.5-8.1c0.2,1.1-0.4,4.5-2.7,9.4    C55.2,38.9,54.3,40.5,53.5,41.8z M35.1,31.5c3.8-4,8.9-6.1,14.9-6.1c2.4,0,4.7,0.3,6.8,1c-0.5,0.4-1,1-1.6,1.7    c-1.4,1.7-2.8,4.2-4.1,6.9c-0.9,2-1.7,4-2.2,5.8c-1.5,0.3-2.8,1.1-3.6,2.3c-0.1,0.1-0.2,0.3-0.3,0.4c-1.8-0.1-3.9-0.1-6.1,0.1    c-3,0.3-5.8,0.8-7.9,1.5c-0.6,0.2-1.2,0.4-1.6,0.7C29.7,40.2,31.6,35.2,35.1,31.5z M44.4,47.3c0,0.3,0.1,0.5,0.2,0.8    c-1.5,0.3-3.3,0.6-5.1,0.8c-5.5,0.5-8.9-0.2-9.8-0.7c0.8-0.7,4-1.9,9.5-2.4c1.8-0.2,3.6-0.2,5.2-0.1    C44.3,46.2,44.3,46.8,44.4,47.3z M40.7,74.2c0-4.5-2.4-7.9-5-11.6c-2.4-3.5-5-7.1-5.9-12.1c0.5,0.2,1.1,0.3,1.8,0.4    c1.2,0.2,2.7,0.3,4.2,0.3c1.2,0,2.5-0.1,3.8-0.2c2.2-0.2,4.3-0.5,6.1-1c0.5,0.5,1,1,1.7,1.3v26.8c-1.2-0.2-2.5-0.6-3.5-1    C42.9,76.8,40.7,75.7,40.7,74.2z M49.6,78.5V52c0.1,0,0.3,0,0.4,0l0,0h0.1c0.1,0.2,0.2,0.5,0.4,0.7v25.7c-0.2,0-0.3,0-0.4,0    S49.7,78.5,49.6,78.5z M59.3,74.2c0,1.5-2.2,2.6-3.1,3c-1.1,0.5-2.3,0.8-3.5,1V56.4c0.2,0.3,0.4,0.6,0.6,0.9    c1.7,2.5,3.6,4.6,5.2,6.1c1.5,1.3,2.7,2,3.6,2c0.1,0,0.2,0,0.3,0C60.7,68,59.3,70.8,59.3,74.2z M64.3,62.6    c-0.1,0.1-0.2,0.3-0.3,0.4c0-0.8-0.3-1.8-0.7-3c-0.8-2.1-2.2-4.5-3.9-7c-1.3-1.8-2.6-3.5-3.9-4.8c0.3-0.9,0.4-1.8,0.2-2.8    c-0.1-0.7-0.3-1.3-0.7-1.8c1-1.5,2.1-3.4,3-5.4c1.3-2.7,2.2-5.4,2.6-7.6c0.2-0.9,0.3-1.7,0.3-2.3c1.5,0.9,2.8,2,4,3.3    c3.6,3.8,5.6,9.2,5.6,15C70.5,53.6,67.3,58.2,64.3,62.6z"/>
		<path d="M59,79.5c-2.5,1.8-5.6,2.8-9,2.8s-6.5-1-9.1-2.8c-0.5-0.4-1.2-0.2-1.5,0.2c-0.4,0.5-0.2,1.2,0.2,1.5    c2.9,2.1,6.5,3.3,10.3,3.3s7.4-1.1,10.3-3.2c0.5-0.4,0.6-1,0.2-1.5C60.2,79.3,59.5,79.2,59,79.5z"/>
		<path d="M59,83.4c-2.3,1.7-5.3,2.5-9,2.5s-6.7-0.8-9.1-2.5c-0.5-0.4-1.2-0.2-1.5,0.2c-0.4,0.5-0.2,1.2,0.2,1.5c2.7,2,6.1,3,10.3,3    s7.5-1,10.3-2.9c0.5-0.4,0.6-1,0.2-1.5C60.2,83.1,59.5,83,59,83.4z"/>
		<path d="M59,87.3c-2.7,1.9-6.1,2.2-9,2.2s-6.3-0.3-9.1-2.3c-0.5-0.4-1.2-0.2-1.5,0.2c-0.4,0.5-0.2,1.2,0.2,1.5    c1.9,1.4,4.1,2.1,6.2,2.4c0.3,2,2,3.6,4.1,3.6s3.8-1.6,4.1-3.6c2.1-0.3,4.2-1,6.1-2.4c0.5-0.4,0.6-1,0.2-1.5    C60.2,87,59.5,86.9,59,87.3z M50,92.8c-0.8,0-1.5-0.5-1.8-1.2c0.6,0,1.2,0,1.8,0s1.2,0,1.8,0C51.6,92.3,50.9,92.8,50,92.8z"/>
		<path d="M35.6,36c0.2,0.2,0.4,0.2,0.7,0.2s0.6-0.1,0.9-0.4c2.7-3.4,5.7-5.3,9.5-5.9c0.6-0.1,1-0.7,0.9-1.3c-0.1-0.6-0.7-1-1.3-0.9    c-4.4,0.8-7.8,2.9-10.9,6.7C35.1,34.9,35.2,35.6,35.6,36z"/>
		<path d="M48.5,17.5c0,0.4,0.2,0.8,0.4,1c0.3,0.3,0.6,0.4,1,0.4s0.8-0.2,1-0.4c0.3-0.3,0.4-0.6,0.4-1s-0.2-0.8-0.4-1    s-0.4-0.3-0.6-0.4c0.6-0.2,1-0.7,1-1.4c0-0.6-0.4-1.2-1-1.4c0.6-0.2,1-0.7,1-1.4c0-0.6-0.4-1.2-1-1.4c0.6-0.2,1-0.7,1-1.4    c0-0.6-0.4-1.2-1-1.4c0.2-0.1,0.4-0.2,0.6-0.4c0.3-0.3,0.4-0.6,0.4-1s-0.2-0.8-0.4-1C50.7,5.2,50.3,5,50,5c-0.4,0-0.8,0.2-1,0.4    c-0.3,0.3-0.4,0.6-0.4,1s0.2,0.8,0.4,1s0.4,0.3,0.6,0.4c-0.6,0.2-1,0.7-1,1.4c0,0.6,0.4,1.2,1,1.4c-0.6,0.2-1,0.7-1,1.4    c0,0.6,0.4,1.2,1,1.4c-0.6,0.2-1,0.7-1,1.4c0,0.6,0.4,1.2,1,1.4c-0.2,0.1-0.4,0.2-0.6,0.4C48.7,16.7,48.5,17.1,48.5,17.5z"/>
		<path d="M27.8,14.6c0.1,0,0.3,0,0.4-0.1c-0.4,0.5-0.4,1.2-0.1,1.7c0.4,0.5,1,0.8,1.6,0.6c-0.4,0.5-0.4,1.2-0.1,1.7    c0.4,0.5,1,0.8,1.6,0.6c-0.4,0.5-0.4,1.2-0.1,1.7c0.3,0.4,0.7,0.6,1.2,0.6c0.1,0,0.3,0,0.4-0.1c-0.2,0.3-0.3,0.6-0.3,0.9    c0,0.4,0.2,0.8,0.4,1c0.3,0.3,0.6,0.4,1,0.4s0.8-0.2,1-0.4c0.3-0.3,0.4-0.6,0.4-1s-0.2-0.8-0.4-1c-0.3-0.3-0.6-0.4-1-0.4    c-0.1,0-0.3,0-0.4,0.1c0.4-0.5,0.4-1.2,0.1-1.7c-0.4-0.5-1-0.8-1.6-0.6c0.4-0.5,0.4-1.2,0.1-1.7c-0.4-0.5-1-0.8-1.6-0.6    c0.4-0.5,0.4-1.2,0.1-1.7c-0.4-0.5-1-0.8-1.6-0.6c0.2-0.3,0.3-0.6,0.3-0.9c0-0.4-0.2-0.8-0.4-1c-0.3-0.3-0.6-0.4-1-0.4    s-0.8,0.2-1,0.4c-0.3,0.3-0.4,0.6-0.4,1s0.2,0.8,0.4,1C27.1,14.5,27.4,14.6,27.8,14.6z"/>
		<path d="M13.2,32.6c0.4,0,0.8-0.2,1-0.4c0,0,0-0.1,0.1-0.1c0,0.6,0.3,1.2,0.9,1.5c0.6,0.2,1.3,0.1,1.7-0.4c0,0.6,0.3,1.2,0.9,1.4    s1.3,0.1,1.7-0.4c0,0.6,0.3,1.2,0.9,1.4c0.2,0.1,0.4,0.1,0.6,0.1c0.4,0,0.8-0.2,1.1-0.5v0.1c0,0.4,0.2,0.8,0.4,1    c0.3,0.3,0.6,0.4,1,0.4s0.8-0.2,1-0.4c0.3-0.3,0.4-0.6,0.4-1s-0.2-0.8-0.4-1c-0.3-0.3-0.6-0.4-1-0.4s-0.8,0.2-1,0.4    c0,0,0,0.1-0.1,0.1c0-0.6-0.3-1.2-0.9-1.5c-0.6-0.2-1.3-0.1-1.7,0.4c0-0.6-0.3-1.2-0.9-1.4c-0.6-0.2-1.3-0.1-1.7,0.4    c0-0.6-0.3-1.2-0.9-1.4c-0.6-0.2-1.3-0.1-1.7,0.4v-0.1c0-0.4-0.2-0.8-0.4-1c-0.3-0.3-0.6-0.4-1-0.4s-0.8,0.2-1,0.4    c-0.3,0.3-0.4,0.6-0.4,1s0.2,0.8,0.4,1C12.4,32.4,12.8,32.6,13.2,32.6z"/>
		<path d="M20.7,53c0.3,0.3,0.6,0.4,1,0.4s0.8-0.2,1-0.4c0.3-0.3,0.4-0.6,0.4-1s-0.2-0.8-0.4-1c-0.3-0.3-0.6-0.4-1-0.4    s-0.8,0.2-1,0.4s-0.4,0.5-0.4,0.9c-0.3-0.5-0.9-0.8-1.5-0.7s-1.1,0.6-1.2,1.2c-0.3-0.5-0.9-0.8-1.5-0.7s-1.1,0.6-1.2,1.2    c-0.3-0.5-0.9-0.8-1.5-0.7s-1.1,0.6-1.2,1.2c-0.1-0.1-0.1-0.2-0.2-0.3c-0.3-0.3-0.6-0.4-1-0.4s-0.8,0.2-1,0.4    c-0.3,0.3-0.4,0.6-0.4,1s0.2,0.8,0.4,1c0.3,0.3,0.6,0.4,1,0.4s0.8-0.2,1-0.4s0.4-0.5,0.4-0.9c0.3,0.5,0.7,0.7,1.3,0.7    c0.1,0,0.2,0,0.3,0c0.6-0.1,1.1-0.6,1.2-1.2c0.3,0.5,0.9,0.8,1.5,0.7s1.1-0.6,1.2-1.2c0.3,0.5,0.9,0.8,1.5,0.7s1.1-0.6,1.2-1.3    C20.5,52.8,20.6,52.9,20.7,53z"/>
		<path d="M29.6,65.3c-0.4,0-0.8,0.2-1,0.4c-0.3,0.3-0.4,0.6-0.4,1c0,0.2,0.1,0.5,0.2,0.7c-0.5-0.3-1.2-0.2-1.7,0.3    s-0.5,1.1-0.3,1.7c-0.5-0.3-1.2-0.2-1.7,0.3s-0.5,1.1-0.3,1.7c-0.5-0.3-1.2-0.2-1.7,0.3s-0.5,1.1-0.3,1.7    c-0.2-0.1-0.4-0.2-0.7-0.2c-0.4,0-0.8,0.2-1,0.4s-0.4,0.6-0.4,1s0.2,0.8,0.4,1c0.3,0.3,0.6,0.4,1,0.4s0.8-0.2,1-0.4    c0.3-0.3,0.4-0.6,0.4-1c0-0.2-0.1-0.5-0.2-0.7c0.2,0.1,0.4,0.2,0.7,0.2c0.4,0,0.7-0.1,1-0.4c0.5-0.5,0.5-1.1,0.3-1.7    c0.5,0.3,1.2,0.2,1.7-0.3s0.5-1.1,0.3-1.7c0.5,0.3,1.2,0.2,1.7-0.3s0.5-1.1,0.3-1.7c0.2,0.1,0.4,0.2,0.7,0.2c0.4,0,0.8-0.2,1-0.4    c0.3-0.3,0.4-0.6,0.4-1s-0.2-0.8-0.4-1C30.4,65.4,30,65.3,29.6,65.3z"/>
		<path d="M66.1,23.8c0.4,0,0.8-0.2,1-0.4c0.3-0.3,0.4-0.6,0.4-1c0-0.3-0.1-0.6-0.3-0.9c0.1,0,0.3,0.1,0.4,0.1    c0.5,0,0.9-0.2,1.2-0.6c0.4-0.5,0.3-1.2-0.1-1.7c0.6,0.2,1.2-0.1,1.6-0.6s0.3-1.2-0.1-1.7c0.6,0.2,1.2-0.1,1.6-0.6    s0.3-1.2-0.1-1.7c0.1,0,0.3,0.1,0.4,0.1c0.4,0,0.8-0.2,1-0.4c0.3-0.3,0.4-0.6,0.4-1s-0.2-0.8-0.4-1c-0.3-0.3-0.6-0.4-1-0.4    s-0.8,0.2-1,0.4c-0.3,0.3-0.4,0.6-0.4,1c0,0.3,0.1,0.6,0.3,0.9c-0.6-0.2-1.2,0.1-1.6,0.6s-0.3,1.2,0.1,1.7    c-0.6-0.2-1.2,0.1-1.6,0.6s-0.3,1.2,0.1,1.7c-0.6-0.2-1.2,0.1-1.6,0.6s-0.3,1.2,0.1,1.7c-0.1,0-0.3-0.1-0.4-0.1    c-0.4,0-0.8,0.2-1,0.4c-0.3,0.3-0.4,0.6-0.4,1s0.2,0.8,0.4,1S65.7,23.8,66.1,23.8z"/>
		<path d="M76.7,36.8c0.4,0,0.8-0.2,1-0.4c0.3-0.3,0.4-0.6,0.4-1v-0.1c0.3,0.3,0.7,0.5,1.1,0.5c0.2,0,0.4,0,0.6-0.1    c0.6-0.2,0.9-0.8,0.9-1.4c0.4,0.5,1.1,0.6,1.7,0.4c0.6-0.2,0.9-0.8,0.9-1.4c0.4,0.5,1.1,0.6,1.7,0.4c0.6-0.2,0.9-0.8,0.9-1.5    c0,0,0,0.1,0.1,0.1c0.3,0.3,0.6,0.4,1,0.4s0.8-0.2,1-0.4c0.3-0.3,0.4-0.6,0.4-1s-0.2-0.8-0.4-1c-0.3-0.3-0.6-0.4-1-0.4    s-0.8,0.2-1,0.4c-0.3,0.3-0.4,0.6-0.4,1v0.1c-0.4-0.5-1.1-0.6-1.7-0.4S83,31.8,83,32.4c-0.4-0.5-1.1-0.6-1.7-0.4    c-0.6,0.2-0.9,0.8-0.9,1.4c-0.4-0.5-1.1-0.6-1.7-0.4c-0.6,0.2-0.9,0.8-0.9,1.5c0,0,0-0.1-0.1-0.1c-0.3-0.3-0.6-0.4-1-0.4    s-0.8,0.2-1,0.4c-0.3,0.3-0.4,0.6-0.4,1s0.2,0.8,0.4,1C75.9,36.6,76.3,36.8,76.7,36.8z"/>
		<path d="M90.1,53.1c-0.3-0.3-0.6-0.4-1-0.4s-0.8,0.2-1,0.4c-0.1,0.1-0.2,0.2-0.2,0.3c-0.1-0.6-0.5-1.1-1.2-1.3    c-0.6-0.1-1.2,0.2-1.5,0.7c-0.1-0.6-0.5-1.1-1.2-1.2c-0.6-0.1-1.2,0.2-1.5,0.7c-0.1-0.6-0.5-1.1-1.2-1.2c-0.6-0.1-1.2,0.2-1.5,0.7    c0-0.3-0.2-0.6-0.4-0.9c-0.3-0.3-0.6-0.4-1-0.4s-0.8,0.2-1,0.4c-0.3,0.3-0.4,0.6-0.4,1s0.2,0.8,0.4,1c0.3,0.3,0.6,0.4,1,0.4    s0.8-0.2,1-0.4c0.1-0.1,0.2-0.2,0.2-0.3c0.1,0.6,0.5,1.1,1.2,1.3c0.6,0.1,1.2-0.2,1.5-0.7c0.1,0.6,0.5,1.1,1.2,1.2    c0.6,0.1,1.2-0.2,1.5-0.7c0.1,0.6,0.5,1.1,1.2,1.2c0.1,0,0.2,0,0.3,0c0.5,0,1-0.3,1.3-0.7c0,0.3,0.2,0.6,0.4,0.9    c0.3,0.3,0.6,0.4,1,0.4s0.8-0.2,1-0.4c0.3-0.3,0.4-0.6,0.4-1C90.5,53.8,90.4,53.4,90.1,53.1z"/>
		<path d="M78.2,73.1c-0.2,0-0.5,0.1-0.7,0.2c0.3-0.5,0.2-1.2-0.3-1.7s-1.1-0.5-1.7-0.3c0.3-0.5,0.2-1.2-0.3-1.7s-1.1-0.5-1.7-0.3    c0.3-0.5,0.2-1.2-0.3-1.7s-1.1-0.5-1.7-0.3c0.1-0.2,0.2-0.4,0.2-0.7c0-0.4-0.2-0.8-0.4-1c-0.3-0.3-0.6-0.4-1-0.4s-0.8,0.2-1,0.4    c-0.3,0.3-0.4,0.6-0.4,1s0.2,0.8,0.4,1c0.3,0.3,0.6,0.4,1,0.4c0.2,0,0.5-0.1,0.7-0.2c-0.3,0.5-0.2,1.2,0.3,1.7s1.1,0.5,1.7,0.3    c-0.3,0.5-0.2,1.2,0.3,1.7s1.1,0.5,1.7,0.3c-0.3,0.5-0.2,1.2,0.3,1.7c0.3,0.3,0.7,0.4,1,0.4c0.2,0,0.5-0.1,0.7-0.2    c-0.1,0.2-0.2,0.4-0.2,0.7c0,0.4,0.2,0.8,0.4,1c0.3,0.3,0.6,0.4,1,0.4s0.8-0.2,1-0.4c0.3-0.3,0.4-0.6,0.4-1s-0.2-0.8-0.4-1    C78.9,73.2,78.5,73.1,78.2,73.1z"/>
	</g>
</g>
<g id="Glühbirne__x2B___xA5_" display="none">
	<g display="inline">
		<path d="M66.5,30c-4.1-4.4-10-6.8-16.5-6.8S37.7,25.6,33.5,30c-4,4.2-6.2,10.1-6.2,16.5c0,7.9,3.5,12.9,6.6,17.4    c2.5,3.5,4.6,6.6,4.6,10.3c0,2,1.5,3.8,4.5,5c2.1,0.9,4.8,1.5,7,1.5s4.9-0.6,7-1.5c2.9-1.2,4.5-3,4.5-5c0-3.8,2.1-6.8,4.6-10.3    c3.1-4.5,6.6-9.5,6.6-17.4C72.7,40.1,70.5,34.3,66.5,30z M64.3,62.6c-2.6,3.7-5,7.1-5,11.6c0,1.5-2.2,2.6-3.1,3    c-1.8,0.8-4.3,1.3-6.2,1.3s-4.3-0.5-6.2-1.3c-0.9-0.4-3.1-1.5-3.1-3c0-4.5-2.4-7.9-5-11.6c-3.1-4.4-6.3-9-6.3-16.1    c0-5.8,2-11.1,5.6-15c3.8-4,8.9-6.1,14.9-6.1s11.1,2.1,14.9,6.1c3.6,3.8,5.6,9.2,5.6,15C70.5,53.6,67.3,58.2,64.3,62.6z"/>
		<path d="M59,79.5c-2.5,1.8-5.6,2.8-9,2.8s-6.5-1-9.1-2.8c-0.5-0.4-1.2-0.2-1.5,0.2c-0.4,0.5-0.2,1.2,0.2,1.5    c2.9,2.1,6.5,3.3,10.3,3.3s7.4-1.1,10.3-3.2c0.5-0.4,0.6-1,0.2-1.5C60.2,79.3,59.5,79.2,59,79.5z"/>
		<path d="M59,83.4c-2.3,1.7-5.3,2.5-9,2.5s-6.7-0.8-9.1-2.5c-0.5-0.4-1.2-0.2-1.5,0.2c-0.4,0.5-0.2,1.2,0.2,1.5c2.7,2,6.1,3,10.3,3    s7.5-1,10.3-2.9c0.5-0.4,0.6-1,0.2-1.5C60.2,83.1,59.5,83,59,83.4z"/>
		<path d="M59,87.3c-2.7,1.9-6.1,2.2-9,2.2s-6.3-0.3-9.1-2.3c-0.5-0.4-1.2-0.2-1.5,0.2c-0.4,0.5-0.2,1.2,0.2,1.5    c1.9,1.4,4.1,2.1,6.2,2.4c0.3,2,2,3.6,4.1,3.6s3.8-1.6,4.1-3.6c2.1-0.3,4.2-1,6.1-2.4c0.5-0.4,0.6-1,0.2-1.5    C60.2,87,59.5,86.9,59,87.3z M50,92.8c-0.8,0-1.5-0.5-1.8-1.2c0.6,0,1.2,0,1.8,0s1.2,0,1.8,0C51.6,92.3,50.9,92.8,50,92.8z"/>
		<path d="M47.6,28.6c-0.1-0.6-0.7-1-1.3-0.9c-4.4,0.8-7.8,2.9-10.9,6.7c-0.4,0.5-0.3,1.2,0.2,1.5c0.2,0.2,0.4,0.2,0.7,0.2    s0.6-0.1,0.9-0.4c2.7-3.4,5.7-5.3,9.5-5.9C47.3,29.8,47.7,29.2,47.6,28.6z"/>
		<path d="M48.5,17.5c0,0.4,0.2,0.8,0.4,1c0.3,0.3,0.6,0.4,1,0.4s0.8-0.2,1-0.4c0.3-0.3,0.4-0.6,0.4-1s-0.2-0.8-0.4-1    s-0.4-0.3-0.6-0.4c0.6-0.2,1-0.7,1-1.4c0-0.6-0.4-1.2-1-1.4c0.6-0.2,1-0.7,1-1.4c0-0.6-0.4-1.2-1-1.4c0.6-0.2,1-0.7,1-1.4    c0-0.6-0.4-1.2-1-1.4c0.2-0.1,0.4-0.2,0.6-0.4c0.3-0.3,0.4-0.6,0.4-1s-0.2-0.8-0.4-1C50.7,5.2,50.3,5,50,5c-0.4,0-0.8,0.2-1,0.4    c-0.3,0.3-0.4,0.6-0.4,1s0.2,0.8,0.4,1s0.4,0.3,0.6,0.4c-0.6,0.2-1,0.7-1,1.4c0,0.6,0.4,1.2,1,1.4c-0.6,0.2-1,0.7-1,1.4    c0,0.6,0.4,1.2,1,1.4c-0.6,0.2-1,0.7-1,1.4c0,0.6,0.4,1.2,1,1.4c-0.2,0.1-0.4,0.2-0.6,0.4C48.7,16.7,48.5,17.1,48.5,17.5z"/>
		<path d="M27.8,14.6c0.1,0,0.3,0,0.4-0.1c-0.4,0.5-0.4,1.2-0.1,1.7c0.4,0.5,1,0.8,1.6,0.6c-0.4,0.5-0.4,1.2-0.1,1.7    c0.4,0.5,1,0.8,1.6,0.6c-0.4,0.5-0.4,1.2-0.1,1.7c0.3,0.4,0.7,0.6,1.2,0.6c0.1,0,0.3,0,0.4-0.1c-0.2,0.3-0.3,0.6-0.3,0.9    c0,0.4,0.2,0.8,0.4,1c0.3,0.3,0.6,0.4,1,0.4s0.8-0.2,1-0.4c0.3-0.3,0.4-0.6,0.4-1s-0.2-0.8-0.4-1c-0.3-0.3-0.6-0.4-1-0.4    c-0.1,0-0.3,0-0.4,0.1c0.4-0.5,0.4-1.2,0.1-1.7c-0.4-0.5-1-0.8-1.6-0.6c0.4-0.5,0.4-1.2,0.1-1.7c-0.4-0.5-1-0.8-1.6-0.6    c0.4-0.5,0.4-1.2,0.1-1.7c-0.4-0.5-1-0.8-1.6-0.6c0.2-0.3,0.3-0.6,0.3-0.9c0-0.4-0.2-0.8-0.4-1c-0.3-0.3-0.6-0.4-1-0.4    s-0.8,0.2-1,0.4c-0.3,0.3-0.4,0.6-0.4,1s0.2,0.8,0.4,1C27.1,14.5,27.4,14.6,27.8,14.6z"/>
		<path d="M13.2,32.6c0.4,0,0.8-0.2,1-0.4c0,0,0-0.1,0.1-0.1c0,0.6,0.3,1.2,0.9,1.5c0.6,0.2,1.3,0.1,1.7-0.4c0,0.6,0.3,1.2,0.9,1.4    s1.3,0.1,1.7-0.4c0,0.6,0.3,1.2,0.9,1.4c0.2,0.1,0.4,0.1,0.6,0.1c0.4,0,0.8-0.2,1.1-0.5v0.1c0,0.4,0.2,0.8,0.4,1    c0.3,0.3,0.6,0.4,1,0.4s0.8-0.2,1-0.4c0.3-0.3,0.4-0.6,0.4-1s-0.2-0.8-0.4-1c-0.3-0.3-0.6-0.4-1-0.4s-0.8,0.2-1,0.4    c0,0,0,0.1-0.1,0.1c0-0.6-0.3-1.2-0.9-1.5c-0.6-0.2-1.3-0.1-1.7,0.4c0-0.6-0.3-1.2-0.9-1.4c-0.6-0.2-1.3-0.1-1.7,0.4    c0-0.6-0.3-1.2-0.9-1.4c-0.6-0.2-1.3-0.1-1.7,0.4v-0.1c0-0.4-0.2-0.8-0.4-1c-0.3-0.3-0.6-0.4-1-0.4s-0.8,0.2-1,0.4    c-0.3,0.3-0.4,0.6-0.4,1s0.2,0.8,0.4,1C12.4,32.4,12.8,32.6,13.2,32.6z"/>
		<path d="M20.7,53c0.3,0.3,0.6,0.4,1,0.4s0.8-0.2,1-0.4c0.3-0.3,0.4-0.6,0.4-1s-0.2-0.8-0.4-1c-0.3-0.3-0.6-0.4-1-0.4    s-0.8,0.2-1,0.4s-0.4,0.5-0.4,0.9c-0.3-0.5-0.9-0.8-1.5-0.7s-1.1,0.6-1.2,1.2c-0.3-0.5-0.9-0.8-1.5-0.7s-1.1,0.6-1.2,1.2    c-0.3-0.5-0.9-0.8-1.5-0.7s-1.1,0.6-1.2,1.2c-0.1-0.1-0.1-0.2-0.2-0.3c-0.3-0.3-0.6-0.4-1-0.4s-0.8,0.2-1,0.4    c-0.3,0.3-0.4,0.6-0.4,1s0.2,0.8,0.4,1c0.3,0.3,0.6,0.4,1,0.4s0.8-0.2,1-0.4s0.4-0.5,0.4-0.9c0.3,0.5,0.7,0.7,1.3,0.7    c0.1,0,0.2,0,0.3,0c0.6-0.1,1.1-0.6,1.2-1.2c0.3,0.5,0.9,0.8,1.5,0.7s1.1-0.6,1.2-1.2c0.3,0.5,0.9,0.8,1.5,0.7s1.1-0.6,1.2-1.3    C20.5,52.8,20.6,52.9,20.7,53z"/>
		<path d="M29.6,65.3c-0.4,0-0.8,0.2-1,0.4c-0.3,0.3-0.4,0.6-0.4,1c0,0.2,0.1,0.5,0.2,0.7c-0.5-0.3-1.2-0.2-1.7,0.3    s-0.5,1.1-0.3,1.7c-0.5-0.3-1.2-0.2-1.7,0.3s-0.5,1.1-0.3,1.7c-0.5-0.3-1.2-0.2-1.7,0.3s-0.5,1.1-0.3,1.7    c-0.2-0.1-0.4-0.2-0.7-0.2c-0.4,0-0.8,0.2-1,0.4s-0.4,0.6-0.4,1s0.2,0.8,0.4,1c0.3,0.3,0.6,0.4,1,0.4s0.8-0.2,1-0.4    c0.3-0.3,0.4-0.6,0.4-1c0-0.2-0.1-0.5-0.2-0.7c0.2,0.1,0.4,0.2,0.7,0.2c0.4,0,0.7-0.1,1-0.4c0.5-0.5,0.5-1.1,0.3-1.7    c0.5,0.3,1.2,0.2,1.7-0.3s0.5-1.1,0.3-1.7c0.5,0.3,1.2,0.2,1.7-0.3s0.5-1.1,0.3-1.7c0.2,0.1,0.4,0.2,0.7,0.2c0.4,0,0.8-0.2,1-0.4    c0.3-0.3,0.4-0.6,0.4-1s-0.2-0.8-0.4-1C30.4,65.4,30,65.3,29.6,65.3z"/>
		<path d="M66.1,23.8c0.4,0,0.8-0.2,1-0.4c0.3-0.3,0.4-0.6,0.4-1c0-0.3-0.1-0.6-0.3-0.9c0.1,0,0.3,0.1,0.4,0.1    c0.5,0,0.9-0.2,1.2-0.6c0.4-0.5,0.3-1.2-0.1-1.7c0.6,0.2,1.2-0.1,1.6-0.6s0.3-1.2-0.1-1.7c0.6,0.2,1.2-0.1,1.6-0.6    s0.3-1.2-0.1-1.7c0.1,0,0.3,0.1,0.4,0.1c0.4,0,0.8-0.2,1-0.4c0.3-0.3,0.4-0.6,0.4-1s-0.2-0.8-0.4-1c-0.3-0.3-0.6-0.4-1-0.4    s-0.8,0.2-1,0.4c-0.3,0.3-0.4,0.6-0.4,1c0,0.3,0.1,0.6,0.3,0.9c-0.6-0.2-1.2,0.1-1.6,0.6s-0.3,1.2,0.1,1.7    c-0.6-0.2-1.2,0.1-1.6,0.6s-0.3,1.2,0.1,1.7c-0.6-0.2-1.2,0.1-1.6,0.6s-0.3,1.2,0.1,1.7c-0.1,0-0.3-0.1-0.4-0.1    c-0.4,0-0.8,0.2-1,0.4c-0.3,0.3-0.4,0.6-0.4,1s0.2,0.8,0.4,1S65.7,23.8,66.1,23.8z"/>
		<path d="M76.7,36.8c0.4,0,0.8-0.2,1-0.4c0.3-0.3,0.4-0.6,0.4-1v-0.1c0.3,0.3,0.7,0.5,1.1,0.5c0.2,0,0.4,0,0.6-0.1    c0.6-0.2,0.9-0.8,0.9-1.4c0.4,0.5,1.1,0.6,1.7,0.4c0.6-0.2,0.9-0.8,0.9-1.4c0.4,0.5,1.1,0.6,1.7,0.4c0.6-0.2,0.9-0.8,0.9-1.5    c0,0,0,0.1,0.1,0.1c0.3,0.3,0.6,0.4,1,0.4s0.8-0.2,1-0.4c0.3-0.3,0.4-0.6,0.4-1s-0.2-0.8-0.4-1c-0.3-0.3-0.6-0.4-1-0.4    s-0.8,0.2-1,0.4c-0.3,0.3-0.4,0.6-0.4,1v0.1c-0.4-0.5-1.1-0.6-1.7-0.4S83,31.8,83,32.4c-0.4-0.5-1.1-0.6-1.7-0.4    c-0.6,0.2-0.9,0.8-0.9,1.4c-0.4-0.5-1.1-0.6-1.7-0.4c-0.6,0.2-0.9,0.8-0.9,1.5c0,0,0-0.1-0.1-0.1c-0.3-0.3-0.6-0.4-1-0.4    s-0.8,0.2-1,0.4c-0.3,0.3-0.4,0.6-0.4,1s0.2,0.8,0.4,1C75.9,36.6,76.3,36.8,76.7,36.8z"/>
		<path d="M90.1,53.1c-0.3-0.3-0.6-0.4-1-0.4s-0.8,0.2-1,0.4c-0.1,0.1-0.2,0.2-0.2,0.3c-0.1-0.6-0.5-1.1-1.2-1.3    c-0.6-0.1-1.2,0.2-1.5,0.7c-0.1-0.6-0.5-1.1-1.2-1.2c-0.6-0.1-1.2,0.2-1.5,0.7c-0.1-0.6-0.5-1.1-1.2-1.2c-0.6-0.1-1.2,0.2-1.5,0.7    c0-0.3-0.2-0.6-0.4-0.9c-0.3-0.3-0.6-0.4-1-0.4s-0.8,0.2-1,0.4c-0.3,0.3-0.4,0.6-0.4,1s0.2,0.8,0.4,1c0.3,0.3,0.6,0.4,1,0.4    s0.8-0.2,1-0.4c0.1-0.1,0.2-0.2,0.2-0.3c0.1,0.6,0.5,1.1,1.2,1.3c0.6,0.1,1.2-0.2,1.5-0.7c0.1,0.6,0.5,1.1,1.2,1.2    c0.6,0.1,1.2-0.2,1.5-0.7c0.1,0.6,0.5,1.1,1.2,1.2c0.1,0,0.2,0,0.3,0c0.5,0,1-0.3,1.3-0.7c0,0.3,0.2,0.6,0.4,0.9    c0.3,0.3,0.6,0.4,1,0.4s0.8-0.2,1-0.4c0.3-0.3,0.4-0.6,0.4-1C90.5,53.8,90.4,53.4,90.1,53.1z"/>
		<path d="M78.2,73.1c-0.2,0-0.5,0.1-0.7,0.2c0.3-0.5,0.2-1.2-0.3-1.7s-1.1-0.5-1.7-0.3c0.3-0.5,0.2-1.2-0.3-1.7s-1.1-0.5-1.7-0.3    c0.3-0.5,0.2-1.2-0.3-1.7s-1.1-0.5-1.7-0.3c0.1-0.2,0.2-0.4,0.2-0.7c0-0.4-0.2-0.8-0.4-1c-0.3-0.3-0.6-0.4-1-0.4s-0.8,0.2-1,0.4    c-0.3,0.3-0.4,0.6-0.4,1s0.2,0.8,0.4,1c0.3,0.3,0.6,0.4,1,0.4c0.2,0,0.5-0.1,0.7-0.2c-0.3,0.5-0.2,1.2,0.3,1.7s1.1,0.5,1.7,0.3    c-0.3,0.5-0.2,1.2,0.3,1.7s1.1,0.5,1.7,0.3c-0.3,0.5-0.2,1.2,0.3,1.7c0.3,0.3,0.7,0.4,1,0.4c0.2,0,0.5-0.1,0.7-0.2    c-0.1,0.2-0.2,0.4-0.2,0.7c0,0.4,0.2,0.8,0.4,1c0.3,0.3,0.6,0.4,1,0.4s0.8-0.2,1-0.4c0.3-0.3,0.4-0.6,0.4-1s-0.2-0.8-0.4-1    C78.9,73.2,78.5,73.1,78.2,73.1z"/>
		<path d="M58.4,60.2c0.6,0,1.1-0.5,1.1-1.1S59,58,58.4,58h-5.6L59,41.4c0.2-0.6-0.1-1.2-0.6-1.4c-0.6-0.2-1.2,0.1-1.4,0.6l-7,18.8    l-7-18.8c-0.2-0.6-0.8-0.9-1.4-0.6c-0.6,0.2-0.9,0.8-0.6,1.4L47.2,58h-5.6c-0.6,0-1.1,0.5-1.1,1.1s0.5,1.1,1.1,1.1H48l0.4,1.2    h-6.9c-0.6,0-1.1,0.5-1.1,1.1s0.5,1.1,1.1,1.1h7.3v11.3c0,0.6,0.5,1.1,1.1,1.1s1.1-0.5,1.1-1.1V63.6h7.3c0.6,0,1.1-0.5,1.1-1.1    s-0.5-1.1-1.1-1.1h-6.9l0.4-1.2H58.4z"/>
	</g>
</g>
<g id="Glühbirne__x2B___xA3_" display="none">
	<g display="inline">
		<path d="M66.5,30c-4.1-4.4-10-6.8-16.5-6.8S37.7,25.6,33.5,30c-4,4.2-6.2,10.1-6.2,16.5c0,7.9,3.5,12.9,6.6,17.4    c2.5,3.5,4.6,6.6,4.6,10.3c0,2,1.5,3.8,4.5,5c2.1,0.9,4.8,1.5,7,1.5s4.9-0.6,7-1.5c2.9-1.2,4.5-3,4.5-5c0-3.8,2.1-6.8,4.6-10.3    c3.1-4.5,6.6-9.5,6.6-17.4C72.7,40.1,70.5,34.3,66.5,30z M64.3,62.6c-2.6,3.7-5,7.1-5,11.6c0,1.5-2.2,2.6-3.1,3    c-1.8,0.8-4.3,1.3-6.2,1.3s-4.3-0.5-6.2-1.3c-0.9-0.4-3.1-1.5-3.1-3c0-4.5-2.4-7.9-5-11.6c-3.1-4.4-6.3-9-6.3-16.1    c0-5.8,2-11.1,5.6-15c3.8-4,8.9-6.1,14.9-6.1s11.1,2.1,14.9,6.1c3.6,3.8,5.6,9.2,5.6,15C70.5,53.6,67.3,58.2,64.3,62.6z"/>
		<path d="M59,79.5c-2.5,1.8-5.6,2.8-9,2.8s-6.5-1-9.1-2.8c-0.5-0.4-1.2-0.2-1.5,0.2c-0.4,0.5-0.2,1.2,0.2,1.5    c2.9,2.1,6.5,3.3,10.3,3.3s7.4-1.1,10.3-3.2c0.5-0.4,0.6-1,0.2-1.5C60.2,79.3,59.5,79.2,59,79.5z"/>
		<path d="M59,83.4c-2.3,1.7-5.3,2.5-9,2.5s-6.7-0.8-9.1-2.5c-0.5-0.4-1.2-0.2-1.5,0.2c-0.4,0.5-0.2,1.2,0.2,1.5c2.7,2,6.1,3,10.3,3    s7.5-1,10.3-2.9c0.5-0.4,0.6-1,0.2-1.5C60.2,83.1,59.5,83,59,83.4z"/>
		<path d="M59,87.3c-2.7,1.9-6.1,2.2-9,2.2s-6.3-0.3-9.1-2.3c-0.5-0.4-1.2-0.2-1.5,0.2c-0.4,0.5-0.2,1.2,0.2,1.5    c1.9,1.4,4.1,2.1,6.2,2.4c0.3,2,2,3.6,4.1,3.6s3.8-1.6,4.1-3.6c2.1-0.3,4.2-1,6.1-2.4c0.5-0.4,0.6-1,0.2-1.5    C60.2,87,59.5,86.9,59,87.3z M50,92.8c-0.8,0-1.5-0.5-1.8-1.2c0.6,0,1.2,0,1.8,0s1.2,0,1.8,0C51.6,92.3,50.9,92.8,50,92.8z"/>
		<path d="M47.6,28.6c-0.1-0.6-0.7-1-1.3-0.9c-4.4,0.8-7.8,2.9-10.9,6.7c-0.4,0.5-0.3,1.2,0.2,1.5c0.2,0.2,0.4,0.2,0.7,0.2    s0.6-0.1,0.9-0.4c2.7-3.4,5.7-5.3,9.5-5.9C47.3,29.8,47.7,29.2,47.6,28.6z"/>
		<path d="M48.5,17.5c0,0.4,0.2,0.8,0.4,1c0.3,0.3,0.6,0.4,1,0.4s0.8-0.2,1-0.4c0.3-0.3,0.4-0.6,0.4-1s-0.2-0.8-0.4-1    s-0.4-0.3-0.6-0.4c0.6-0.2,1-0.7,1-1.4c0-0.6-0.4-1.2-1-1.4c0.6-0.2,1-0.7,1-1.4c0-0.6-0.4-1.2-1-1.4c0.6-0.2,1-0.7,1-1.4    c0-0.6-0.4-1.2-1-1.4c0.2-0.1,0.4-0.2,0.6-0.4c0.3-0.3,0.4-0.6,0.4-1s-0.2-0.8-0.4-1C50.7,5.2,50.3,5,50,5c-0.4,0-0.8,0.2-1,0.4    c-0.3,0.3-0.4,0.6-0.4,1s0.2,0.8,0.4,1s0.4,0.3,0.6,0.4c-0.6,0.2-1,0.7-1,1.4c0,0.6,0.4,1.2,1,1.4c-0.6,0.2-1,0.7-1,1.4    c0,0.6,0.4,1.2,1,1.4c-0.6,0.2-1,0.7-1,1.4c0,0.6,0.4,1.2,1,1.4c-0.2,0.1-0.4,0.2-0.6,0.4C48.7,16.7,48.5,17.1,48.5,17.5z"/>
		<path d="M27.8,14.6c0.1,0,0.3,0,0.4-0.1c-0.4,0.5-0.4,1.2-0.1,1.7c0.4,0.5,1,0.8,1.6,0.6c-0.4,0.5-0.4,1.2-0.1,1.7    c0.4,0.5,1,0.8,1.6,0.6c-0.4,0.5-0.4,1.2-0.1,1.7c0.3,0.4,0.7,0.6,1.2,0.6c0.1,0,0.3,0,0.4-0.1c-0.2,0.3-0.3,0.6-0.3,0.9    c0,0.4,0.2,0.8,0.4,1c0.3,0.3,0.6,0.4,1,0.4s0.8-0.2,1-0.4c0.3-0.3,0.4-0.6,0.4-1s-0.2-0.8-0.4-1c-0.3-0.3-0.6-0.4-1-0.4    c-0.1,0-0.3,0-0.4,0.1c0.4-0.5,0.4-1.2,0.1-1.7c-0.4-0.5-1-0.8-1.6-0.6c0.4-0.5,0.4-1.2,0.1-1.7c-0.4-0.5-1-0.8-1.6-0.6    c0.4-0.5,0.4-1.2,0.1-1.7c-0.4-0.5-1-0.8-1.6-0.6c0.2-0.3,0.3-0.6,0.3-0.9c0-0.4-0.2-0.8-0.4-1c-0.3-0.3-0.6-0.4-1-0.4    s-0.8,0.2-1,0.4c-0.3,0.3-0.4,0.6-0.4,1s0.2,0.8,0.4,1C27.1,14.5,27.4,14.6,27.8,14.6z"/>
		<path d="M13.2,32.6c0.4,0,0.8-0.2,1-0.4c0,0,0-0.1,0.1-0.1c0,0.6,0.3,1.2,0.9,1.5c0.6,0.2,1.3,0.1,1.7-0.4c0,0.6,0.3,1.2,0.9,1.4    s1.3,0.1,1.7-0.4c0,0.6,0.3,1.2,0.9,1.4c0.2,0.1,0.4,0.1,0.6,0.1c0.4,0,0.8-0.2,1.1-0.5v0.1c0,0.4,0.2,0.8,0.4,1    c0.3,0.3,0.6,0.4,1,0.4s0.8-0.2,1-0.4c0.3-0.3,0.4-0.6,0.4-1s-0.2-0.8-0.4-1c-0.3-0.3-0.6-0.4-1-0.4s-0.8,0.2-1,0.4    c0,0,0,0.1-0.1,0.1c0-0.6-0.3-1.2-0.9-1.5c-0.6-0.2-1.3-0.1-1.7,0.4c0-0.6-0.3-1.2-0.9-1.4c-0.6-0.2-1.3-0.1-1.7,0.4    c0-0.6-0.3-1.2-0.9-1.4c-0.6-0.2-1.3-0.1-1.7,0.4v-0.1c0-0.4-0.2-0.8-0.4-1c-0.3-0.3-0.6-0.4-1-0.4s-0.8,0.2-1,0.4    c-0.3,0.3-0.4,0.6-0.4,1s0.2,0.8,0.4,1C12.4,32.4,12.8,32.6,13.2,32.6z"/>
		<path d="M20.7,53c0.3,0.3,0.6,0.4,1,0.4s0.8-0.2,1-0.4c0.3-0.3,0.4-0.6,0.4-1s-0.2-0.8-0.4-1c-0.3-0.3-0.6-0.4-1-0.4    s-0.8,0.2-1,0.4s-0.4,0.5-0.4,0.9c-0.3-0.5-0.9-0.8-1.5-0.7s-1.1,0.6-1.2,1.2c-0.3-0.5-0.9-0.8-1.5-0.7s-1.1,0.6-1.2,1.2    c-0.3-0.5-0.9-0.8-1.5-0.7s-1.1,0.6-1.2,1.2c-0.1-0.1-0.1-0.2-0.2-0.3c-0.3-0.3-0.6-0.4-1-0.4s-0.8,0.2-1,0.4    c-0.3,0.3-0.4,0.6-0.4,1s0.2,0.8,0.4,1c0.3,0.3,0.6,0.4,1,0.4s0.8-0.2,1-0.4s0.4-0.5,0.4-0.9c0.3,0.5,0.7,0.7,1.3,0.7    c0.1,0,0.2,0,0.3,0c0.6-0.1,1.1-0.6,1.2-1.2c0.3,0.5,0.9,0.8,1.5,0.7s1.1-0.6,1.2-1.2c0.3,0.5,0.9,0.8,1.5,0.7s1.1-0.6,1.2-1.3    C20.5,52.8,20.6,52.9,20.7,53z"/>
		<path d="M29.6,65.3c-0.4,0-0.8,0.2-1,0.4c-0.3,0.3-0.4,0.6-0.4,1c0,0.2,0.1,0.5,0.2,0.7c-0.5-0.3-1.2-0.2-1.7,0.3    s-0.5,1.1-0.3,1.7c-0.5-0.3-1.2-0.2-1.7,0.3s-0.5,1.1-0.3,1.7c-0.5-0.3-1.2-0.2-1.7,0.3s-0.5,1.1-0.3,1.7    c-0.2-0.1-0.4-0.2-0.7-0.2c-0.4,0-0.8,0.2-1,0.4c-0.3,0.3-0.4,0.6-0.4,1s0.2,0.8,0.4,1c0.3,0.3,0.6,0.4,1,0.4s0.8-0.2,1-0.4    c0.3-0.3,0.4-0.6,0.4-1c0-0.2-0.1-0.5-0.2-0.7c0.2,0.1,0.4,0.2,0.7,0.2c0.4,0,0.7-0.1,1-0.4c0.5-0.5,0.5-1.1,0.3-1.7    c0.5,0.3,1.2,0.2,1.7-0.3s0.5-1.1,0.3-1.7c0.5,0.3,1.2,0.2,1.7-0.3s0.5-1.1,0.3-1.7c0.2,0.1,0.4,0.2,0.7,0.2c0.4,0,0.8-0.2,1-0.4    c0.3-0.3,0.4-0.6,0.4-1s-0.2-0.8-0.4-1C30.4,65.4,30,65.3,29.6,65.3z"/>
		<path d="M66.1,23.8c0.4,0,0.8-0.2,1-0.4c0.3-0.3,0.4-0.6,0.4-1c0-0.3-0.1-0.6-0.3-0.9c0.1,0,0.3,0.1,0.4,0.1    c0.5,0,0.9-0.2,1.2-0.6c0.4-0.5,0.3-1.2-0.1-1.7c0.6,0.2,1.2-0.1,1.6-0.6s0.3-1.2-0.1-1.7c0.6,0.2,1.2-0.1,1.6-0.6    s0.3-1.2-0.1-1.7c0.1,0,0.3,0.1,0.4,0.1c0.4,0,0.8-0.2,1-0.4c0.3-0.3,0.4-0.6,0.4-1s-0.2-0.8-0.4-1c-0.3-0.3-0.6-0.4-1-0.4    s-0.8,0.2-1,0.4c-0.3,0.3-0.4,0.6-0.4,1c0,0.3,0.1,0.6,0.3,0.9c-0.6-0.2-1.2,0.1-1.6,0.6s-0.3,1.2,0.1,1.7    c-0.6-0.2-1.2,0.1-1.6,0.6s-0.3,1.2,0.1,1.7c-0.6-0.2-1.2,0.1-1.6,0.6s-0.3,1.2,0.1,1.7c-0.1,0-0.3-0.1-0.4-0.1    c-0.4,0-0.8,0.2-1,0.4c-0.3,0.3-0.4,0.6-0.4,1s0.2,0.8,0.4,1S65.7,23.8,66.1,23.8z"/>
		<path d="M76.7,36.8c0.4,0,0.8-0.2,1-0.4c0.3-0.3,0.4-0.6,0.4-1v-0.1c0.3,0.3,0.7,0.5,1.1,0.5c0.2,0,0.4,0,0.6-0.1    c0.6-0.2,0.9-0.8,0.9-1.4c0.4,0.5,1.1,0.6,1.7,0.4c0.6-0.2,0.9-0.8,0.9-1.4c0.4,0.5,1.1,0.6,1.7,0.4c0.6-0.2,0.9-0.8,0.9-1.5    c0,0,0,0.1,0.1,0.1c0.3,0.3,0.6,0.4,1,0.4s0.8-0.2,1-0.4c0.3-0.3,0.4-0.6,0.4-1s-0.2-0.8-0.4-1c-0.3-0.3-0.6-0.4-1-0.4    s-0.8,0.2-1,0.4c-0.3,0.3-0.4,0.6-0.4,1v0.1c-0.4-0.5-1.1-0.6-1.7-0.4S83,31.8,83,32.4c-0.4-0.5-1.1-0.6-1.7-0.4    c-0.6,0.2-0.9,0.8-0.9,1.4c-0.4-0.5-1.1-0.6-1.7-0.4c-0.6,0.2-0.9,0.8-0.9,1.5c0,0,0-0.1-0.1-0.1c-0.3-0.3-0.6-0.4-1-0.4    s-0.8,0.2-1,0.4c-0.3,0.3-0.4,0.6-0.4,1s0.2,0.8,0.4,1C75.9,36.6,76.3,36.8,76.7,36.8z"/>
		<path d="M90.1,53.1c-0.3-0.3-0.6-0.4-1-0.4s-0.8,0.2-1,0.4c-0.1,0.1-0.2,0.2-0.2,0.3c-0.1-0.6-0.5-1.1-1.2-1.3    c-0.6-0.1-1.2,0.2-1.5,0.7c-0.1-0.6-0.5-1.1-1.2-1.2c-0.6-0.1-1.2,0.2-1.5,0.7c-0.1-0.6-0.5-1.1-1.2-1.2c-0.6-0.1-1.2,0.2-1.5,0.7    c0-0.3-0.2-0.6-0.4-0.9c-0.3-0.3-0.6-0.4-1-0.4s-0.8,0.2-1,0.4c-0.3,0.3-0.4,0.6-0.4,1s0.2,0.8,0.4,1c0.3,0.3,0.6,0.4,1,0.4    s0.8-0.2,1-0.4c0.1-0.1,0.2-0.2,0.2-0.3c0.1,0.6,0.5,1.1,1.2,1.3c0.6,0.1,1.2-0.2,1.5-0.7c0.1,0.6,0.5,1.1,1.2,1.2    c0.6,0.1,1.2-0.2,1.5-0.7c0.1,0.6,0.5,1.1,1.2,1.2c0.1,0,0.2,0,0.3,0c0.5,0,1-0.3,1.3-0.7c0,0.3,0.2,0.6,0.4,0.9    c0.3,0.3,0.6,0.4,1,0.4s0.8-0.2,1-0.4c0.3-0.3,0.4-0.6,0.4-1C90.5,53.8,90.4,53.4,90.1,53.1z"/>
		<path d="M78.2,73.1c-0.2,0-0.5,0.1-0.7,0.2c0.3-0.5,0.2-1.2-0.3-1.7s-1.1-0.5-1.7-0.3c0.3-0.5,0.2-1.2-0.3-1.7s-1.1-0.5-1.7-0.3    c0.3-0.5,0.2-1.2-0.3-1.7s-1.1-0.5-1.7-0.3c0.1-0.2,0.2-0.4,0.2-0.7c0-0.4-0.2-0.8-0.4-1c-0.3-0.3-0.6-0.4-1-0.4s-0.8,0.2-1,0.4    c-0.3,0.3-0.4,0.6-0.4,1s0.2,0.8,0.4,1c0.3,0.3,0.6,0.4,1,0.4c0.2,0,0.5-0.1,0.7-0.2c-0.3,0.5-0.2,1.2,0.3,1.7s1.1,0.5,1.7,0.3    c-0.3,0.5-0.2,1.2,0.3,1.7s1.1,0.5,1.7,0.3c-0.3,0.5-0.2,1.2,0.3,1.7c0.3,0.3,0.7,0.4,1,0.4c0.2,0,0.5-0.1,0.7-0.2    c-0.1,0.2-0.2,0.4-0.2,0.7c0,0.4,0.2,0.8,0.4,1c0.3,0.3,0.6,0.4,1,0.4s0.8-0.2,1-0.4c0.3-0.3,0.4-0.6,0.4-1s-0.2-0.8-0.4-1    C78.9,73.2,78.5,73.1,78.2,73.1z"/>
		<path d="M50.7,39.9c-4.4,0-8,3.4-8,7.6c0,2,0.9,5.4,1.9,8.9c0,0.1,0.1,0.3,0.1,0.4h-1.9c-0.6,0-1.1,0.5-1.1,1.1s0.5,1.1,1.1,1.1    h2.5c0.7,2.7,1.3,5.2,1.3,6.8c0,3.9-3.7,8.3-3.7,8.3c-0.4,0.4-0.3,1,0,1.4c0.2,0.2,0.5,0.4,0.8,0.4c0.2,0,0.4-0.1,0.6-0.2    c3.5-2.3,6.1-1.1,7.8-0.4c0.7,0.3,1.2,0.5,1.7,0.5c1,0,1.7-0.3,2.3-0.9c0.7-0.7,1-1.7,1-3.1c0-0.6-0.5-1.1-1.1-1.1l0,0    c-0.6,0-1.1,0.5-1.1,1.1c0,0.7-0.1,1.2-0.3,1.5c-0.1,0.1-0.2,0.2-0.7,0.2c-0.1,0-0.5-0.2-0.8-0.3c-1.3-0.6-3.5-1.6-6.3-1    c1.1-1.8,2.1-4.2,2.1-6.6c0-1.7-0.6-4.2-1.2-6.8H54c0.6,0,1.1-0.5,1.1-1.1s-0.5-1.1-1.1-1.1h-7c-0.1-0.3-0.2-0.7-0.3-1    c-0.9-3.3-1.8-6.6-1.8-8.3c0-3,2.6-5.4,5.8-5.4c2.5,0,4.7,1.5,5.5,3.7c0.2,0.6,0.8,0.9,1.4,0.7c0.6-0.2,0.9-0.8,0.7-1.4    C57.1,41.9,54.1,39.9,50.7,39.9z"/>
	</g>
</g>
<g id="Glühbirne__x2B___x24_" display="none">
	<g display="inline">
		<path d="M66.5,30c-4.1-4.4-10-6.8-16.5-6.8S37.7,25.6,33.5,30c-4,4.2-6.2,10.1-6.2,16.5c0,7.9,3.5,12.9,6.6,17.4    c2.5,3.5,4.6,6.6,4.6,10.3c0,2,1.5,3.8,4.5,5c2.1,0.9,4.8,1.5,7,1.5s4.9-0.6,7-1.5c2.9-1.2,4.5-3,4.5-5c0-3.8,2.1-6.8,4.6-10.3    c3.1-4.5,6.6-9.5,6.6-17.4C72.7,40.1,70.5,34.3,66.5,30z M51.1,60c3.4,2.5,5.3,4.2,5.3,7.3c0,3-2.3,5.6-5.3,6.2V60z M48.9,55.8    c-3.4-2.5-5.3-4.2-5.3-7.3c0-3,2.3-5.6,5.3-6.2V55.8z M64.3,62.6c-2.6,3.7-5,7.1-5,11.6c0,1.5-2.2,2.6-3.1,3    c-1.5,0.6-3.4,1.1-5.1,1.2v-2.6c4.2-0.7,7.5-4.2,7.5-8.4c0-4.6-3.3-7-7.1-9.7c-0.1-0.1-0.3-0.2-0.4-0.3V42.1    c2.7,0.2,5,1.9,5.9,4.3c0.2,0.6,0.8,0.9,1.4,0.7c0.6-0.2,0.9-0.8,0.7-1.4c-1.2-3.3-4.3-5.5-7.9-5.7v-3.1c0-0.6-0.5-1.1-1.1-1.1    S49,36.3,49,36.9V40c-4.2,0.7-7.5,4.2-7.5,8.4c0,4.6,3.3,7,7.1,9.7c0.1,0.1,0.3,0.2,0.4,0.3v15.3c-2.7-0.2-5-1.9-5.9-4.3    c-0.2-0.6-0.8-0.9-1.4-0.7c-0.6,0.2-0.9,0.8-0.7,1.4c1.2,3.3,4.3,5.5,7.9,5.7v2.5c-1.7-0.1-3.6-0.6-5.1-1.2    c-0.9-0.4-3.1-1.5-3.1-3c0-4.5-2.4-7.9-5-11.6c-3.1-4.4-6.3-9-6.3-16.1c0-5.8,2-11.1,5.6-15c3.8-4,8.9-6.1,14.9-6.1    s11.1,2.1,14.9,6.1c3.6,3.8,5.6,9.2,5.6,15C70.5,53.6,67.3,58.2,64.3,62.6z"/>
		<path d="M59,79.5c-2.5,1.8-5.6,2.8-9,2.8s-6.5-1-9.1-2.8c-0.5-0.4-1.2-0.2-1.5,0.2c-0.4,0.5-0.2,1.2,0.2,1.5    c2.9,2.1,6.5,3.3,10.3,3.3s7.4-1.1,10.3-3.2c0.5-0.4,0.6-1,0.2-1.5C60.2,79.3,59.5,79.2,59,79.5z"/>
		<path d="M59,83.4c-2.3,1.7-5.3,2.5-9,2.5s-6.7-0.8-9.1-2.5c-0.5-0.4-1.2-0.2-1.5,0.2c-0.4,0.5-0.2,1.2,0.2,1.5c2.7,2,6.1,3,10.3,3    s7.5-1,10.3-2.9c0.5-0.4,0.6-1,0.2-1.5C60.2,83.1,59.5,83,59,83.4z"/>
		<path d="M59,87.3c-2.7,1.9-6.1,2.2-9,2.2s-6.3-0.3-9.1-2.3c-0.5-0.4-1.2-0.2-1.5,0.2c-0.4,0.5-0.2,1.2,0.2,1.5    c1.9,1.4,4.1,2.1,6.2,2.4c0.3,2,2,3.6,4.1,3.6s3.8-1.6,4.1-3.6c2.1-0.3,4.2-1,6.1-2.4c0.5-0.4,0.6-1,0.2-1.5    C60.2,87,59.5,86.9,59,87.3z M50,92.8c-0.8,0-1.5-0.5-1.8-1.2c0.6,0,1.2,0,1.8,0s1.2,0,1.8,0C51.6,92.3,50.9,92.8,50,92.8z"/>
		<path d="M46.3,27.8c-4.4,0.8-7.8,2.9-10.9,6.7C35,35,35.1,35.7,35.6,36c0.2,0.2,0.4,0.2,0.7,0.2s0.6-0.1,0.9-0.4    c2.7-3.4,5.7-5.3,9.5-5.9c0.6-0.1,1-0.7,0.9-1.3C47.5,28.1,46.9,27.7,46.3,27.8z"/>
		<path d="M48.5,17.5c0,0.4,0.2,0.8,0.4,1c0.3,0.3,0.6,0.4,1,0.4s0.8-0.2,1-0.4c0.3-0.3,0.4-0.6,0.4-1s-0.2-0.8-0.4-1    s-0.4-0.3-0.6-0.4c0.6-0.2,1-0.7,1-1.4c0-0.6-0.4-1.2-1-1.4c0.6-0.2,1-0.7,1-1.4c0-0.6-0.4-1.2-1-1.4c0.6-0.2,1-0.7,1-1.4    c0-0.6-0.4-1.2-1-1.4c0.2-0.1,0.4-0.2,0.6-0.4c0.3-0.3,0.4-0.6,0.4-1s-0.2-0.8-0.4-1C50.7,5.2,50.3,5,50,5c-0.4,0-0.8,0.2-1,0.4    c-0.3,0.3-0.4,0.6-0.4,1s0.2,0.8,0.4,1s0.4,0.3,0.6,0.4c-0.6,0.2-1,0.7-1,1.4c0,0.6,0.4,1.2,1,1.4c-0.6,0.2-1,0.7-1,1.4    c0,0.6,0.4,1.2,1,1.4c-0.6,0.2-1,0.7-1,1.4c0,0.6,0.4,1.2,1,1.4c-0.2,0.1-0.4,0.2-0.6,0.4C48.7,16.7,48.5,17.1,48.5,17.5z"/>
		<path d="M27.8,14.6c0.1,0,0.3,0,0.4-0.1c-0.4,0.5-0.4,1.2-0.1,1.7c0.4,0.5,1,0.8,1.6,0.6c-0.4,0.5-0.4,1.2-0.1,1.7    c0.4,0.5,1,0.8,1.6,0.6c-0.4,0.5-0.4,1.2-0.1,1.7c0.3,0.4,0.7,0.6,1.2,0.6c0.1,0,0.3,0,0.4-0.1c-0.2,0.3-0.3,0.6-0.3,0.9    c0,0.4,0.2,0.8,0.4,1c0.3,0.3,0.6,0.4,1,0.4s0.8-0.2,1-0.4c0.3-0.3,0.4-0.6,0.4-1s-0.2-0.8-0.4-1c-0.3-0.3-0.6-0.4-1-0.4    c-0.1,0-0.3,0-0.4,0.1c0.4-0.5,0.4-1.2,0.1-1.7c-0.4-0.5-1-0.8-1.6-0.6c0.4-0.5,0.4-1.2,0.1-1.7c-0.4-0.5-1-0.8-1.6-0.6    c0.4-0.5,0.4-1.2,0.1-1.7c-0.4-0.5-1-0.8-1.6-0.6c0.2-0.3,0.3-0.6,0.3-0.9c0-0.4-0.2-0.8-0.4-1c-0.3-0.3-0.6-0.4-1-0.4    s-0.8,0.2-1,0.4c-0.3,0.3-0.4,0.6-0.4,1s0.2,0.8,0.4,1C27.1,14.5,27.4,14.6,27.8,14.6z"/>
		<path d="M13.2,32.6c0.4,0,0.8-0.2,1-0.4c0,0,0-0.1,0.1-0.1c0,0.6,0.3,1.2,0.9,1.5c0.6,0.2,1.3,0.1,1.7-0.4c0,0.6,0.3,1.2,0.9,1.4    s1.3,0.1,1.7-0.4c0,0.6,0.3,1.2,0.9,1.4c0.2,0.1,0.4,0.1,0.6,0.1c0.4,0,0.8-0.2,1.1-0.5v0.1c0,0.4,0.2,0.8,0.4,1    c0.3,0.3,0.6,0.4,1,0.4s0.8-0.2,1-0.4c0.3-0.3,0.4-0.6,0.4-1s-0.2-0.8-0.4-1c-0.3-0.3-0.6-0.4-1-0.4s-0.8,0.2-1,0.4    c0,0,0,0.1-0.1,0.1c0-0.6-0.3-1.2-0.9-1.5c-0.6-0.2-1.3-0.1-1.7,0.4c0-0.6-0.3-1.2-0.9-1.4c-0.6-0.2-1.3-0.1-1.7,0.4    c0-0.6-0.3-1.2-0.9-1.4c-0.6-0.2-1.3-0.1-1.7,0.4v-0.1c0-0.4-0.2-0.8-0.4-1c-0.3-0.3-0.6-0.4-1-0.4s-0.8,0.2-1,0.4    c-0.3,0.3-0.4,0.6-0.4,1s0.2,0.8,0.4,1C12.4,32.4,12.8,32.6,13.2,32.6z"/>
		<path d="M20.7,53c0.3,0.3,0.6,0.4,1,0.4s0.8-0.2,1-0.4c0.3-0.3,0.4-0.6,0.4-1s-0.2-0.8-0.4-1c-0.3-0.3-0.6-0.4-1-0.4    s-0.8,0.2-1,0.4s-0.4,0.5-0.4,0.9c-0.3-0.5-0.9-0.8-1.5-0.7s-1.1,0.6-1.2,1.2c-0.3-0.5-0.9-0.8-1.5-0.7s-1.1,0.6-1.2,1.2    c-0.3-0.5-0.9-0.8-1.5-0.7s-1.1,0.6-1.2,1.2c-0.1-0.1-0.1-0.2-0.2-0.3c-0.3-0.3-0.6-0.4-1-0.4s-0.8,0.2-1,0.4    c-0.3,0.3-0.4,0.6-0.4,1s0.2,0.8,0.4,1c0.3,0.3,0.6,0.4,1,0.4s0.8-0.2,1-0.4s0.4-0.5,0.4-0.9c0.3,0.5,0.7,0.7,1.3,0.7    c0.1,0,0.2,0,0.3,0c0.6-0.1,1.1-0.6,1.2-1.2c0.3,0.5,0.9,0.8,1.5,0.7s1.1-0.6,1.2-1.2c0.3,0.5,0.9,0.8,1.5,0.7s1.1-0.6,1.2-1.3    C20.5,52.8,20.6,52.9,20.7,53z"/>
		<path d="M29.6,65.3c-0.4,0-0.8,0.2-1,0.4c-0.3,0.3-0.4,0.6-0.4,1c0,0.2,0.1,0.5,0.2,0.7c-0.5-0.3-1.2-0.2-1.7,0.3    s-0.5,1.1-0.3,1.7c-0.5-0.3-1.2-0.2-1.7,0.3s-0.5,1.1-0.3,1.7c-0.5-0.3-1.2-0.2-1.7,0.3s-0.5,1.1-0.3,1.7    c-0.2-0.1-0.4-0.2-0.7-0.2c-0.4,0-0.8,0.2-1,0.4s-0.4,0.6-0.4,1s0.2,0.8,0.4,1c0.3,0.3,0.6,0.4,1,0.4s0.8-0.2,1-0.4    c0.3-0.3,0.4-0.6,0.4-1c0-0.2-0.1-0.5-0.2-0.7c0.2,0.1,0.4,0.2,0.7,0.2c0.4,0,0.7-0.1,1-0.4c0.5-0.5,0.5-1.1,0.3-1.7    c0.5,0.3,1.2,0.2,1.7-0.3s0.5-1.1,0.3-1.7c0.5,0.3,1.2,0.2,1.7-0.3s0.5-1.1,0.3-1.7c0.2,0.1,0.4,0.2,0.7,0.2c0.4,0,0.8-0.2,1-0.4    c0.3-0.3,0.4-0.6,0.4-1s-0.2-0.8-0.4-1C30.4,65.4,30,65.3,29.6,65.3z"/>
		<path d="M66.1,23.8c0.4,0,0.8-0.2,1-0.4c0.3-0.3,0.4-0.6,0.4-1c0-0.3-0.1-0.6-0.3-0.9c0.1,0,0.3,0.1,0.4,0.1    c0.5,0,0.9-0.2,1.2-0.6c0.4-0.5,0.3-1.2-0.1-1.7c0.6,0.2,1.2-0.1,1.6-0.6s0.3-1.2-0.1-1.7c0.6,0.2,1.2-0.1,1.6-0.6    s0.3-1.2-0.1-1.7c0.1,0,0.3,0.1,0.4,0.1c0.4,0,0.8-0.2,1-0.4c0.3-0.3,0.4-0.6,0.4-1s-0.2-0.8-0.4-1c-0.3-0.3-0.6-0.4-1-0.4    s-0.8,0.2-1,0.4c-0.3,0.3-0.4,0.6-0.4,1c0,0.3,0.1,0.6,0.3,0.9c-0.6-0.2-1.2,0.1-1.6,0.6s-0.3,1.2,0.1,1.7    c-0.6-0.2-1.2,0.1-1.6,0.6s-0.3,1.2,0.1,1.7c-0.6-0.2-1.2,0.1-1.6,0.6s-0.3,1.2,0.1,1.7c-0.1,0-0.3-0.1-0.4-0.1    c-0.4,0-0.8,0.2-1,0.4c-0.3,0.3-0.4,0.6-0.4,1s0.2,0.8,0.4,1S65.7,23.8,66.1,23.8z"/>
		<path d="M76.7,36.8c0.4,0,0.8-0.2,1-0.4c0.3-0.3,0.4-0.6,0.4-1v-0.1c0.3,0.3,0.7,0.5,1.1,0.5c0.2,0,0.4,0,0.6-0.1    c0.6-0.2,0.9-0.8,0.9-1.4c0.4,0.5,1.1,0.6,1.7,0.4c0.6-0.2,0.9-0.8,0.9-1.4c0.4,0.5,1.1,0.6,1.7,0.4c0.6-0.2,0.9-0.8,0.9-1.5    c0,0,0,0.1,0.1,0.1c0.3,0.3,0.6,0.4,1,0.4s0.8-0.2,1-0.4c0.3-0.3,0.4-0.6,0.4-1s-0.2-0.8-0.4-1c-0.3-0.3-0.6-0.4-1-0.4    s-0.8,0.2-1,0.4c-0.3,0.3-0.4,0.6-0.4,1v0.1c-0.4-0.5-1.1-0.6-1.7-0.4S83,31.8,83,32.4c-0.4-0.5-1.1-0.6-1.7-0.4    c-0.6,0.2-0.9,0.8-0.9,1.4c-0.4-0.5-1.1-0.6-1.7-0.4c-0.6,0.2-0.9,0.8-0.9,1.5c0,0,0-0.1-0.1-0.1c-0.3-0.3-0.6-0.4-1-0.4    s-0.8,0.2-1,0.4c-0.3,0.3-0.4,0.6-0.4,1s0.2,0.8,0.4,1C75.9,36.6,76.3,36.8,76.7,36.8z"/>
		<path d="M90.1,53.1c-0.3-0.3-0.6-0.4-1-0.4s-0.8,0.2-1,0.4c-0.1,0.1-0.2,0.2-0.2,0.3c-0.1-0.6-0.5-1.1-1.2-1.3    c-0.6-0.1-1.2,0.2-1.5,0.7c-0.1-0.6-0.5-1.1-1.2-1.2c-0.6-0.1-1.2,0.2-1.5,0.7c-0.1-0.6-0.5-1.1-1.2-1.2c-0.6-0.1-1.2,0.2-1.5,0.7    c0-0.3-0.2-0.6-0.4-0.9c-0.3-0.3-0.6-0.4-1-0.4s-0.8,0.2-1,0.4c-0.3,0.3-0.4,0.6-0.4,1s0.2,0.8,0.4,1c0.3,0.3,0.6,0.4,1,0.4    s0.8-0.2,1-0.4c0.1-0.1,0.2-0.2,0.2-0.3c0.1,0.6,0.5,1.1,1.2,1.3c0.6,0.1,1.2-0.2,1.5-0.7c0.1,0.6,0.5,1.1,1.2,1.2    c0.6,0.1,1.2-0.2,1.5-0.7c0.1,0.6,0.5,1.1,1.2,1.2c0.1,0,0.2,0,0.3,0c0.5,0,1-0.3,1.3-0.7c0,0.3,0.2,0.6,0.4,0.9    c0.3,0.3,0.6,0.4,1,0.4s0.8-0.2,1-0.4c0.3-0.3,0.4-0.6,0.4-1C90.5,53.8,90.4,53.4,90.1,53.1z"/>
		<path d="M78.2,73.1c-0.2,0-0.5,0.1-0.7,0.2c0.3-0.5,0.2-1.2-0.3-1.7s-1.1-0.5-1.7-0.3c0.3-0.5,0.2-1.2-0.3-1.7s-1.1-0.5-1.7-0.3    c0.3-0.5,0.2-1.2-0.3-1.7s-1.1-0.5-1.7-0.3c0.1-0.2,0.2-0.4,0.2-0.7c0-0.4-0.2-0.8-0.4-1c-0.3-0.3-0.6-0.4-1-0.4s-0.8,0.2-1,0.4    c-0.3,0.3-0.4,0.6-0.4,1s0.2,0.8,0.4,1c0.3,0.3,0.6,0.4,1,0.4c0.2,0,0.5-0.1,0.7-0.2c-0.3,0.5-0.2,1.2,0.3,1.7s1.1,0.5,1.7,0.3    c-0.3,0.5-0.2,1.2,0.3,1.7s1.1,0.5,1.7,0.3c-0.3,0.5-0.2,1.2,0.3,1.7c0.3,0.3,0.7,0.4,1,0.4c0.2,0,0.5-0.1,0.7-0.2    c-0.1,0.2-0.2,0.4-0.2,0.7c0,0.4,0.2,0.8,0.4,1c0.3,0.3,0.6,0.4,1,0.4s0.8-0.2,1-0.4c0.3-0.3,0.4-0.6,0.4-1s-0.2-0.8-0.4-1    C78.9,73.2,78.5,73.1,78.2,73.1z"/>
	</g>
</g>
<g id="Glühbirne__x2B___x20AC_" display="none">
	<g display="inline">
		<path d="M66.5,30c-4.1-4.4-10-6.8-16.5-6.8S37.7,25.6,33.5,30c-4,4.2-6.2,10.1-6.2,16.5c0,7.9,3.5,12.9,6.6,17.4    c2.5,3.5,4.6,6.6,4.6,10.3c0,2,1.5,3.8,4.5,5c2.1,0.9,4.8,1.5,7,1.5s4.9-0.6,7-1.5c2.9-1.2,4.5-3,4.5-5c0-3.8,2.1-6.8,4.6-10.3    c3.1-4.5,6.6-9.5,6.6-17.4C72.7,40.1,70.5,34.3,66.5,30z M64.3,62.6c-2.6,3.7-5,7.1-5,11.6c0,1.5-2.2,2.6-3.1,3    c-1.8,0.8-4.3,1.3-6.2,1.3s-4.3-0.5-6.2-1.3c-0.9-0.4-3.1-1.5-3.1-3c0-4.5-2.4-7.9-5-11.6c-3.1-4.4-6.3-9-6.3-16.1    c0-5.8,2-11.1,5.6-15c3.8-4,8.9-6.1,14.9-6.1s11.1,2.1,14.9,6.1c3.6,3.8,5.6,9.2,5.6,15C70.5,53.6,67.3,58.2,64.3,62.6z"/>
		<path d="M59,79.5c-2.5,1.8-5.6,2.8-9,2.8s-6.5-1-9.1-2.8c-0.5-0.4-1.2-0.2-1.5,0.2c-0.4,0.5-0.2,1.2,0.2,1.5    c2.9,2.1,6.5,3.3,10.3,3.3s7.4-1.1,10.3-3.2c0.5-0.4,0.6-1,0.2-1.5C60.2,79.3,59.5,79.2,59,79.5z"/>
		<path d="M59,83.4c-2.3,1.7-5.3,2.5-9,2.5s-6.7-0.8-9.1-2.5c-0.5-0.4-1.2-0.2-1.5,0.2c-0.4,0.5-0.2,1.2,0.2,1.5c2.7,2,6.1,3,10.3,3    s7.5-1,10.3-2.9c0.5-0.4,0.6-1,0.2-1.5C60.2,83.1,59.5,83,59,83.4z"/>
		<path d="M59,87.3c-2.7,1.9-6.1,2.2-9,2.2s-6.3-0.3-9.1-2.3c-0.5-0.4-1.2-0.2-1.5,0.2c-0.4,0.5-0.2,1.2,0.2,1.5    c1.9,1.4,4.1,2.1,6.2,2.4c0.3,2,2,3.6,4.1,3.6s3.8-1.6,4.1-3.6c2.1-0.3,4.2-1,6.1-2.4c0.5-0.4,0.6-1,0.2-1.5    C60.2,87,59.5,86.9,59,87.3z M50,92.8c-0.8,0-1.5-0.5-1.8-1.2c0.6,0,1.2,0,1.8,0s1.2,0,1.8,0C51.6,92.3,50.9,92.8,50,92.8z"/>
		<path d="M37.2,35.8c2.7-3.4,5.7-5.3,9.5-5.9c0.6-0.1,1-0.7,0.9-1.3c-0.1-0.6-0.7-1-1.3-0.9c-4.4,0.8-7.8,2.9-10.9,6.7    c-0.4,0.5-0.3,1.2,0.2,1.5c0.2,0.2,0.4,0.2,0.7,0.2C36.6,36.2,36.9,36.1,37.2,35.8z"/>
		<path d="M48.5,17.5c0,0.4,0.2,0.8,0.4,1c0.3,0.3,0.6,0.4,1,0.4s0.8-0.2,1-0.4c0.3-0.3,0.4-0.6,0.4-1s-0.2-0.8-0.4-1    s-0.4-0.3-0.6-0.4c0.6-0.2,1-0.7,1-1.4c0-0.6-0.4-1.2-1-1.4c0.6-0.2,1-0.7,1-1.4c0-0.6-0.4-1.2-1-1.4c0.6-0.2,1-0.7,1-1.4    c0-0.6-0.4-1.2-1-1.4c0.2-0.1,0.4-0.2,0.6-0.4c0.3-0.3,0.4-0.6,0.4-1s-0.2-0.8-0.4-1C50.7,5.2,50.3,5,50,5c-0.4,0-0.8,0.2-1,0.4    c-0.3,0.3-0.4,0.6-0.4,1s0.2,0.8,0.4,1s0.4,0.3,0.6,0.4c-0.6,0.2-1,0.7-1,1.4c0,0.6,0.4,1.2,1,1.4c-0.6,0.2-1,0.7-1,1.4    c0,0.6,0.4,1.2,1,1.4c-0.6,0.2-1,0.7-1,1.4c0,0.6,0.4,1.2,1,1.4c-0.2,0.1-0.4,0.2-0.6,0.4C48.7,16.7,48.5,17.1,48.5,17.5z"/>
		<path d="M27.8,14.6c0.1,0,0.3,0,0.4-0.1c-0.4,0.5-0.4,1.2-0.1,1.7c0.4,0.5,1,0.8,1.6,0.6c-0.4,0.5-0.4,1.2-0.1,1.7    c0.4,0.5,1,0.8,1.6,0.6c-0.4,0.5-0.4,1.2-0.1,1.7c0.3,0.4,0.7,0.6,1.2,0.6c0.1,0,0.3,0,0.4-0.1c-0.2,0.3-0.3,0.6-0.3,0.9    c0,0.4,0.2,0.8,0.4,1c0.3,0.3,0.6,0.4,1,0.4s0.8-0.2,1-0.4c0.3-0.3,0.4-0.6,0.4-1s-0.2-0.8-0.4-1c-0.3-0.3-0.6-0.4-1-0.4    c-0.1,0-0.3,0-0.4,0.1c0.4-0.5,0.4-1.2,0.1-1.7c-0.4-0.5-1-0.8-1.6-0.6c0.4-0.5,0.4-1.2,0.1-1.7c-0.4-0.5-1-0.8-1.6-0.6    c0.4-0.5,0.4-1.2,0.1-1.7c-0.4-0.5-1-0.8-1.6-0.6c0.2-0.3,0.3-0.6,0.3-0.9c0-0.4-0.2-0.8-0.4-1c-0.3-0.3-0.6-0.4-1-0.4    s-0.8,0.2-1,0.4c-0.3,0.3-0.4,0.6-0.4,1s0.2,0.8,0.4,1C27.1,14.5,27.4,14.6,27.8,14.6z"/>
		<path d="M13.2,32.6c0.4,0,0.8-0.2,1-0.4c0,0,0-0.1,0.1-0.1c0,0.6,0.3,1.2,0.9,1.5c0.6,0.2,1.3,0.1,1.7-0.4c0,0.6,0.3,1.2,0.9,1.4    s1.3,0.1,1.7-0.4c0,0.6,0.3,1.2,0.9,1.4c0.2,0.1,0.4,0.1,0.6,0.1c0.4,0,0.8-0.2,1.1-0.5v0.1c0,0.4,0.2,0.8,0.4,1    c0.3,0.3,0.6,0.4,1,0.4s0.8-0.2,1-0.4c0.3-0.3,0.4-0.6,0.4-1s-0.2-0.8-0.4-1c-0.3-0.3-0.6-0.4-1-0.4s-0.8,0.2-1,0.4    c0,0,0,0.1-0.1,0.1c0-0.6-0.3-1.2-0.9-1.5c-0.6-0.2-1.3-0.1-1.7,0.4c0-0.6-0.3-1.2-0.9-1.4c-0.6-0.2-1.3-0.1-1.7,0.4    c0-0.6-0.3-1.2-0.9-1.4c-0.6-0.2-1.3-0.1-1.7,0.4v-0.1c0-0.4-0.2-0.8-0.4-1c-0.3-0.3-0.6-0.4-1-0.4s-0.8,0.2-1,0.4    c-0.3,0.3-0.4,0.6-0.4,1s0.2,0.8,0.4,1C12.4,32.4,12.8,32.6,13.2,32.6z"/>
		<path d="M20.7,53c0.3,0.3,0.6,0.4,1,0.4s0.8-0.2,1-0.4c0.3-0.3,0.4-0.6,0.4-1s-0.2-0.8-0.4-1c-0.3-0.3-0.6-0.4-1-0.4    s-0.8,0.2-1,0.4s-0.4,0.5-0.4,0.9c-0.3-0.5-0.9-0.8-1.5-0.7s-1.1,0.6-1.2,1.2c-0.3-0.5-0.9-0.8-1.5-0.7s-1.1,0.6-1.2,1.2    c-0.3-0.5-0.9-0.8-1.5-0.7s-1.1,0.6-1.2,1.2c-0.1-0.1-0.1-0.2-0.2-0.3c-0.3-0.3-0.6-0.4-1-0.4s-0.8,0.2-1,0.4    c-0.3,0.3-0.4,0.6-0.4,1s0.2,0.8,0.4,1c0.3,0.3,0.6,0.4,1,0.4s0.8-0.2,1-0.4s0.4-0.5,0.4-0.9c0.3,0.5,0.7,0.7,1.3,0.7    c0.1,0,0.2,0,0.3,0c0.6-0.1,1.1-0.6,1.2-1.2c0.3,0.5,0.9,0.8,1.5,0.7s1.1-0.6,1.2-1.2c0.3,0.5,0.9,0.8,1.5,0.7s1.1-0.6,1.2-1.3    C20.5,52.8,20.6,52.9,20.7,53z"/>
		<path d="M29.6,65.3c-0.4,0-0.8,0.2-1,0.4c-0.3,0.3-0.4,0.6-0.4,1c0,0.2,0.1,0.5,0.2,0.7c-0.5-0.3-1.2-0.2-1.7,0.3    s-0.5,1.1-0.3,1.7c-0.5-0.3-1.2-0.2-1.7,0.3s-0.5,1.1-0.3,1.7c-0.5-0.3-1.2-0.2-1.7,0.3s-0.5,1.1-0.3,1.7    c-0.2-0.1-0.4-0.2-0.7-0.2c-0.4,0-0.8,0.2-1,0.4s-0.4,0.6-0.4,1s0.2,0.8,0.4,1c0.3,0.3,0.6,0.4,1,0.4s0.8-0.2,1-0.4    c0.3-0.3,0.4-0.6,0.4-1c0-0.2-0.1-0.5-0.2-0.7c0.2,0.1,0.4,0.2,0.7,0.2c0.4,0,0.7-0.1,1-0.4c0.5-0.5,0.5-1.1,0.3-1.7    c0.5,0.3,1.2,0.2,1.7-0.3s0.5-1.1,0.3-1.7c0.5,0.3,1.2,0.2,1.7-0.3s0.5-1.1,0.3-1.7c0.2,0.1,0.4,0.2,0.7,0.2c0.4,0,0.8-0.2,1-0.4    c0.3-0.3,0.4-0.6,0.4-1s-0.2-0.8-0.4-1C30.4,65.4,30,65.3,29.6,65.3z"/>
		<path d="M66.1,23.8c0.4,0,0.8-0.2,1-0.4c0.3-0.3,0.4-0.6,0.4-1c0-0.3-0.1-0.6-0.3-0.9c0.1,0,0.3,0.1,0.4,0.1    c0.5,0,0.9-0.2,1.2-0.6c0.4-0.5,0.3-1.2-0.1-1.7c0.6,0.2,1.2-0.1,1.6-0.6s0.3-1.2-0.1-1.7c0.6,0.2,1.2-0.1,1.6-0.6    s0.3-1.2-0.1-1.7c0.1,0,0.3,0.1,0.4,0.1c0.4,0,0.8-0.2,1-0.4c0.3-0.3,0.4-0.6,0.4-1s-0.2-0.8-0.4-1c-0.3-0.3-0.6-0.4-1-0.4    s-0.8,0.2-1,0.4c-0.3,0.3-0.4,0.6-0.4,1c0,0.3,0.1,0.6,0.3,0.9c-0.6-0.2-1.2,0.1-1.6,0.6s-0.3,1.2,0.1,1.7    c-0.6-0.2-1.2,0.1-1.6,0.6s-0.3,1.2,0.1,1.7c-0.6-0.2-1.2,0.1-1.6,0.6s-0.3,1.2,0.1,1.7c-0.1,0-0.3-0.1-0.4-0.1    c-0.4,0-0.8,0.2-1,0.4c-0.3,0.3-0.4,0.6-0.4,1s0.2,0.8,0.4,1S65.7,23.8,66.1,23.8z"/>
		<path d="M76.7,36.8c0.4,0,0.8-0.2,1-0.4c0.3-0.3,0.4-0.6,0.4-1v-0.1c0.3,0.3,0.7,0.5,1.1,0.5c0.2,0,0.4,0,0.6-0.1    c0.6-0.2,0.9-0.8,0.9-1.4c0.4,0.5,1.1,0.6,1.7,0.4c0.6-0.2,0.9-0.8,0.9-1.4c0.4,0.5,1.1,0.6,1.7,0.4c0.6-0.2,0.9-0.8,0.9-1.5    c0,0,0,0.1,0.1,0.1c0.3,0.3,0.6,0.4,1,0.4s0.8-0.2,1-0.4c0.3-0.3,0.4-0.6,0.4-1s-0.2-0.8-0.4-1c-0.3-0.3-0.6-0.4-1-0.4    s-0.8,0.2-1,0.4c-0.3,0.3-0.4,0.6-0.4,1v0.1c-0.4-0.5-1.1-0.6-1.7-0.4S83,31.8,83,32.4c-0.4-0.5-1.1-0.6-1.7-0.4    c-0.6,0.2-0.9,0.8-0.9,1.4c-0.4-0.5-1.1-0.6-1.7-0.4c-0.6,0.2-0.9,0.8-0.9,1.5c0,0,0-0.1-0.1-0.1c-0.3-0.3-0.6-0.4-1-0.4    s-0.8,0.2-1,0.4c-0.3,0.3-0.4,0.6-0.4,1s0.2,0.8,0.4,1C75.9,36.6,76.3,36.8,76.7,36.8z"/>
		<path d="M90.1,53.1c-0.3-0.3-0.6-0.4-1-0.4s-0.8,0.2-1,0.4c-0.1,0.1-0.2,0.2-0.2,0.3c-0.1-0.6-0.5-1.1-1.2-1.3    c-0.6-0.1-1.2,0.2-1.5,0.7c-0.1-0.6-0.5-1.1-1.2-1.2c-0.6-0.1-1.2,0.2-1.5,0.7c-0.1-0.6-0.5-1.1-1.2-1.2c-0.6-0.1-1.2,0.2-1.5,0.7    c0-0.3-0.2-0.6-0.4-0.9c-0.3-0.3-0.6-0.4-1-0.4s-0.8,0.2-1,0.4c-0.3,0.3-0.4,0.6-0.4,1s0.2,0.8,0.4,1c0.3,0.3,0.6,0.4,1,0.4    s0.8-0.2,1-0.4c0.1-0.1,0.2-0.2,0.2-0.3c0.1,0.6,0.5,1.1,1.2,1.3c0.6,0.1,1.2-0.2,1.5-0.7c0.1,0.6,0.5,1.1,1.2,1.2    c0.6,0.1,1.2-0.2,1.5-0.7c0.1,0.6,0.5,1.1,1.2,1.2c0.1,0,0.2,0,0.3,0c0.5,0,1-0.3,1.3-0.7c0,0.3,0.2,0.6,0.4,0.9    c0.3,0.3,0.6,0.4,1,0.4s0.8-0.2,1-0.4c0.3-0.3,0.4-0.6,0.4-1C90.5,53.8,90.4,53.4,90.1,53.1z"/>
		<path d="M78.2,73.1c-0.2,0-0.5,0.1-0.7,0.2c0.3-0.5,0.2-1.2-0.3-1.7s-1.1-0.5-1.7-0.3c0.3-0.5,0.2-1.2-0.3-1.7s-1.1-0.5-1.7-0.3    c0.3-0.5,0.2-1.2-0.3-1.7s-1.1-0.5-1.7-0.3c0.1-0.2,0.2-0.4,0.2-0.7c0-0.4-0.2-0.8-0.4-1c-0.3-0.3-0.6-0.4-1-0.4s-0.8,0.2-1,0.4    c-0.3,0.3-0.4,0.6-0.4,1s0.2,0.8,0.4,1c0.3,0.3,0.6,0.4,1,0.4c0.2,0,0.5-0.1,0.7-0.2c-0.3,0.5-0.2,1.2,0.3,1.7s1.1,0.5,1.7,0.3    c-0.3,0.5-0.2,1.2,0.3,1.7s1.1,0.5,1.7,0.3c-0.3,0.5-0.2,1.2,0.3,1.7c0.3,0.3,0.7,0.4,1,0.4c0.2,0,0.5-0.1,0.7-0.2    c-0.1,0.2-0.2,0.4-0.2,0.7c0,0.4,0.2,0.8,0.4,1c0.3,0.3,0.6,0.4,1,0.4s0.8-0.2,1-0.4c0.3-0.3,0.4-0.6,0.4-1s-0.2-0.8-0.4-1    C78.9,73.2,78.5,73.1,78.2,73.1z"/>
		<path d="M50.2,42.1c2.9,0,5.5,1.7,6.5,4.3c0.2,0.6,0.8,0.9,1.4,0.7c0.6-0.2,0.9-0.8,0.7-1.4c-1.3-3.4-4.7-5.8-8.5-5.8    c-5,0-9,3.8-9,8.6v6.7h-3.7c-0.6,0-1.1,0.5-1.1,1.1s0.5,1.1,1.1,1.1h3.7v1.2h-3.7c-0.6,0-1.1,0.5-1.1,1.1s0.5,1.1,1.1,1.1h3.7v6.7    c0,4.7,4,8.6,9,8.6c3.8,0,7.3-2.3,8.5-5.8c0.2-0.6-0.1-1.2-0.7-1.4c-0.6-0.2-1.2,0.1-1.4,0.7c-0.9,2.6-3.5,4.3-6.5,4.3    c-3.8,0-6.8-2.9-6.8-6.4v-6.7h10.9c0.6,0,1.1-0.5,1.1-1.1s-0.5-1.1-1.1-1.1H43.4v-1.2h10.9c0.6,0,1.1-0.5,1.1-1.1    s-0.5-1.1-1.1-1.1H43.4v-6.7C43.4,44.9,46.4,42.1,50.2,42.1z"/>
	</g>
</g>
<g id="Glühbirne__x2B___x21_" display="none">
	<g display="inline">
		<path d="M66.5,30c-4.1-4.4-10-6.8-16.5-6.8S37.7,25.6,33.5,30c-4,4.2-6.2,10.1-6.2,16.5c0,7.9,3.5,12.9,6.6,17.4    c2.5,3.5,4.6,6.6,4.6,10.3c0,2,1.5,3.8,4.5,5c2.1,0.9,4.8,1.5,7,1.5s4.9-0.6,7-1.5c2.9-1.2,4.5-3,4.5-5c0-3.8,2.1-6.8,4.6-10.3    c3.1-4.5,6.6-9.5,6.6-17.4C72.7,40.1,70.5,34.3,66.5,30z M64.3,62.6c-2.6,3.7-5,7.1-5,11.6c0,1.5-2.2,2.6-3.1,3    c-1.8,0.8-4.3,1.3-6.2,1.3s-4.3-0.5-6.2-1.3c-0.9-0.4-3.1-1.5-3.1-3c0-4.5-2.4-7.9-5-11.6c-3.1-4.4-6.3-9-6.3-16.1    c0-5.8,2-11.1,5.6-15c3.8-4,8.9-6.1,14.9-6.1s11.1,2.1,14.9,6.1c3.6,3.8,5.6,9.2,5.6,15C70.5,53.6,67.3,58.2,64.3,62.6z"/>
		<path d="M59,79.5c-2.5,1.8-5.6,2.8-9,2.8s-6.5-1-9.1-2.8c-0.5-0.4-1.2-0.2-1.5,0.2c-0.4,0.5-0.2,1.2,0.2,1.5    c2.9,2.1,6.5,3.3,10.3,3.3s7.4-1.1,10.3-3.2c0.5-0.4,0.6-1,0.2-1.5C60.2,79.3,59.5,79.2,59,79.5z"/>
		<path d="M59,83.4c-2.3,1.7-5.3,2.5-9,2.5s-6.7-0.8-9.1-2.5c-0.5-0.4-1.2-0.2-1.5,0.2c-0.4,0.5-0.2,1.2,0.2,1.5c2.7,2,6.1,3,10.3,3    s7.5-1,10.3-2.9c0.5-0.4,0.6-1,0.2-1.5C60.2,83.1,59.5,83,59,83.4z"/>
		<path d="M59,87.3c-2.7,1.9-6.1,2.2-9,2.2s-6.3-0.3-9.1-2.3c-0.5-0.4-1.2-0.2-1.5,0.2c-0.4,0.5-0.2,1.2,0.2,1.5    c2,1.4,4.1,2.1,6.2,2.4c0.3,2,2,3.6,4.1,3.6s3.8-1.6,4.1-3.6c2.1-0.3,4.2-1,6.2-2.4c0.5-0.4,0.6-1,0.2-1.5    C60.2,87,59.5,86.9,59,87.3z M50,92.8c-0.8,0-1.5-0.5-1.8-1.2c0.6,0,1.2,0,1.8,0s1.2,0,1.8,0C51.6,92.3,50.9,92.8,50,92.8z"/>
		<path d="M46.3,27.8c-4.4,0.8-7.8,2.9-10.9,6.7C35,35,35.1,35.7,35.6,36c0.2,0.2,0.4,0.2,0.7,0.2s0.6-0.1,0.9-0.4    c2.7-3.4,5.7-5.3,9.5-5.9c0.6-0.1,1-0.7,0.9-1.3C47.5,28.1,46.9,27.7,46.3,27.8z"/>
		<path d="M48.5,17.5c0,0.4,0.2,0.8,0.4,1c0.3,0.3,0.6,0.4,1,0.4s0.8-0.2,1-0.4c0.3-0.3,0.4-0.6,0.4-1s-0.2-0.8-0.4-1    s-0.4-0.3-0.6-0.4c0.6-0.2,1-0.7,1-1.4c0-0.6-0.4-1.2-1-1.4c0.6-0.2,1-0.7,1-1.4c0-0.6-0.4-1.2-1-1.4c0.6-0.2,1-0.7,1-1.4    c0-0.6-0.4-1.2-1-1.4c0.2-0.1,0.4-0.2,0.6-0.4c0.3-0.3,0.4-0.6,0.4-1s-0.2-0.8-0.4-1C50.7,5.2,50.3,5,50,5c-0.4,0-0.8,0.2-1,0.4    c-0.3,0.3-0.4,0.6-0.4,1s0.2,0.8,0.4,1s0.4,0.3,0.6,0.4c-0.6,0.2-1,0.7-1,1.4c0,0.6,0.4,1.2,1,1.4c-0.6,0.2-1,0.7-1,1.4    c0,0.6,0.4,1.2,1,1.4c-0.6,0.2-1,0.7-1,1.4c0,0.6,0.4,1.2,1,1.4c-0.2,0.1-0.4,0.2-0.6,0.4C48.7,16.7,48.5,17.1,48.5,17.5z"/>
		<path d="M27.8,14.6c0.1,0,0.3,0,0.4-0.1c-0.4,0.5-0.4,1.2-0.1,1.7c0.4,0.5,1,0.8,1.6,0.6c-0.4,0.5-0.4,1.2-0.1,1.7    c0.4,0.5,1,0.8,1.6,0.6c-0.4,0.5-0.4,1.2-0.1,1.7c0.3,0.4,0.7,0.6,1.2,0.6c0.1,0,0.3,0,0.4-0.1c-0.2,0.3-0.3,0.6-0.3,0.9    c0,0.4,0.2,0.8,0.4,1c0.3,0.3,0.6,0.4,1,0.4s0.8-0.2,1-0.4c0.3-0.3,0.4-0.6,0.4-1s-0.2-0.8-0.4-1c-0.3-0.3-0.6-0.4-1-0.4    c-0.1,0-0.3,0-0.4,0.1c0.4-0.5,0.4-1.2,0.1-1.7c-0.4-0.5-1-0.8-1.6-0.6c0.4-0.5,0.4-1.2,0.1-1.7c-0.4-0.5-1-0.8-1.6-0.6    c0.4-0.5,0.4-1.2,0.1-1.7c-0.4-0.5-1-0.8-1.6-0.6c0.2-0.3,0.3-0.6,0.3-0.9c0-0.4-0.2-0.8-0.4-1c-0.3-0.3-0.6-0.4-1-0.4    s-0.8,0.2-1,0.4c-0.3,0.3-0.4,0.6-0.4,1s0.2,0.8,0.4,1C27.1,14.5,27.4,14.6,27.8,14.6z"/>
		<path d="M13.2,32.6c0.4,0,0.8-0.2,1-0.4l0.1-0.1c-0.1,0.6,0.3,1.2,0.9,1.5c0.6,0.2,1.3,0.1,1.7-0.4c0,0.6,0.3,1.2,0.9,1.4    s1.3,0.1,1.7-0.4c0,0.6,0.3,1.2,0.9,1.4c0.2,0.1,0.4,0.1,0.6,0.1c0.4,0,0.8-0.2,1.1-0.5v0.1c0,0.4,0.2,0.8,0.4,1    c0.3,0.3,0.6,0.4,1,0.4s0.8-0.2,1-0.4c0.3-0.3,0.4-0.6,0.4-1s-0.2-0.8-0.4-1c-0.3-0.3-0.6-0.4-1-0.4s-0.8,0.2-1,0.4l-0.1,0.1    c0.1-0.6-0.3-1.2-0.9-1.5c-0.6-0.2-1.3-0.1-1.7,0.4c0-0.6-0.3-1.2-0.9-1.4c-0.6-0.2-1.3-0.1-1.7,0.4c0-0.6-0.3-1.2-0.9-1.4    c-0.6-0.2-1.3-0.1-1.7,0.4v-0.1c0-0.4-0.2-0.8-0.4-1c-0.3-0.3-0.6-0.4-1-0.4s-0.8,0.2-1,0.4c-0.3,0.3-0.4,0.6-0.4,1s0.2,0.8,0.4,1    C12.4,32.4,12.8,32.6,13.2,32.6z"/>
		<path d="M20.7,53c0.3,0.3,0.6,0.4,1,0.4s0.8-0.2,1-0.4c0.3-0.3,0.4-0.6,0.4-1s-0.2-0.8-0.4-1c-0.3-0.3-0.6-0.4-1-0.4    s-0.8,0.2-1,0.4s-0.4,0.5-0.4,0.9c-0.3-0.5-0.9-0.9-1.6-0.7c-0.6,0.1-1.1,0.6-1.2,1.2c-0.3-0.5-0.9-0.8-1.5-0.7s-1.1,0.6-1.2,1.2    c-0.3-0.5-0.9-0.8-1.5-0.7s-1.1,0.7-1.2,1.3c-0.1-0.1-0.1-0.2-0.2-0.3c-0.3-0.3-0.6-0.4-1-0.4s-0.8,0.2-1,0.4    c-0.3,0.3-0.4,0.6-0.4,1s0.2,0.8,0.4,1c0.3,0.3,0.6,0.4,1,0.4s0.8-0.2,1-0.4s0.4-0.5,0.4-0.9c0.3,0.5,0.7,0.8,1.3,0.8    c0.1,0,0.2,0,0.3,0c0.6-0.1,1.1-0.6,1.2-1.2c0.3,0.5,0.9,0.8,1.5,0.7s1.1-0.6,1.2-1.2c0.3,0.5,0.9,0.8,1.5,0.7s1.1-0.7,1.2-1.3    C20.5,52.8,20.6,52.9,20.7,53z"/>
		<path d="M29.6,65.3c-0.4,0-0.8,0.2-1,0.4c-0.3,0.3-0.4,0.6-0.4,1c0,0.2,0.1,0.5,0.2,0.7c-0.6-0.3-1.2-0.2-1.7,0.2    c-0.5,0.5-0.5,1.1-0.3,1.7c-0.5-0.3-1.2-0.2-1.7,0.3s-0.5,1.1-0.3,1.7c-0.5-0.3-1.2-0.2-1.7,0.3s-0.5,1.2-0.2,1.7    c-0.2-0.1-0.5-0.2-0.7-0.2c-0.4,0-0.8,0.2-1,0.4s-0.4,0.6-0.4,1s0.2,0.8,0.4,1c0.3,0.3,0.6,0.4,1,0.4s0.8-0.2,1-0.4    c0.3-0.3,0.4-0.6,0.4-1c0-0.2-0.1-0.5-0.2-0.7c0.2,0.1,0.4,0.2,0.7,0.2c0.4,0,0.7-0.1,1-0.4c0.5-0.5,0.5-1.1,0.3-1.7    c0.5,0.3,1.2,0.2,1.7-0.3s0.5-1.1,0.3-1.7c0.5,0.3,1.2,0.2,1.7-0.3s0.5-1.2,0.2-1.7c0.2,0.1,0.5,0.2,0.7,0.2c0.4,0,0.8-0.2,1-0.4    c0.3-0.3,0.4-0.6,0.4-1s-0.2-0.8-0.4-1C30.4,65.4,30,65.3,29.6,65.3z"/>
		<path d="M66.1,23.8c0.4,0,0.8-0.2,1-0.4c0.3-0.3,0.4-0.6,0.4-1c0-0.3-0.1-0.6-0.3-0.9c0.1,0,0.3,0.1,0.4,0.1    c0.5,0,0.9-0.2,1.2-0.6c0.4-0.5,0.3-1.2-0.1-1.7c0.6,0.2,1.2-0.1,1.6-0.6s0.3-1.2-0.1-1.7c0.6,0.2,1.2-0.1,1.6-0.6    s0.3-1.2-0.1-1.7c0.1,0,0.3,0.1,0.4,0.1c0.4,0,0.8-0.2,1-0.4c0.3-0.3,0.4-0.6,0.4-1s-0.2-0.8-0.4-1c-0.3-0.3-0.6-0.4-1-0.4    s-0.8,0.2-1,0.4c-0.3,0.3-0.4,0.6-0.4,1c0,0.3,0.1,0.6,0.3,0.9c-0.6-0.2-1.3,0-1.6,0.6c-0.4,0.5-0.3,1.2,0.1,1.7    c-0.6-0.2-1.2,0.1-1.6,0.6s-0.3,1.2,0.1,1.7c-0.6-0.2-1.2,0.1-1.6,0.6s-0.3,1.2,0.1,1.7c-0.1,0-0.3-0.1-0.4-0.1    c-0.4,0-0.8,0.2-1,0.4c-0.3,0.3-0.4,0.6-0.4,1s0.2,0.8,0.4,1S65.7,23.8,66.1,23.8z"/>
		<path d="M76.7,36.8c0.4,0,0.8-0.2,1-0.4c0.3-0.3,0.4-0.6,0.4-1v-0.1c0.3,0.3,0.7,0.5,1.1,0.5c0.2,0,0.4,0,0.6-0.1    c0.6-0.2,0.9-0.8,0.9-1.4c0.4,0.5,1.1,0.6,1.7,0.4c0.6-0.2,0.9-0.8,0.9-1.4c0.4,0.5,1.1,0.6,1.7,0.4c0.6-0.2,0.9-0.9,0.9-1.5    l0.1,0.1c0.3,0.3,0.6,0.4,1,0.4s0.8-0.2,1-0.4c0.3-0.3,0.4-0.6,0.4-1s-0.2-0.8-0.4-1c-0.3-0.3-0.6-0.4-1-0.4s-0.8,0.2-1,0.4    c-0.3,0.3-0.4,0.6-0.4,1v0.1c-0.4-0.5-1.1-0.7-1.7-0.4c-0.6,0.2-0.9,0.8-0.9,1.4c-0.4-0.5-1.1-0.6-1.7-0.4    c-0.6,0.2-0.9,0.8-0.9,1.4c-0.4-0.5-1.1-0.6-1.7-0.4c-0.6,0.2-0.9,0.9-0.9,1.5l-0.1-0.1c-0.3-0.3-0.6-0.4-1-0.4s-0.8,0.2-1,0.4    c-0.3,0.3-0.4,0.6-0.4,1s0.2,0.8,0.4,1C75.9,36.6,76.3,36.8,76.7,36.8z"/>
		<path d="M90.1,53.1c-0.3-0.3-0.6-0.4-1-0.4s-0.8,0.2-1,0.4c-0.1,0.1-0.2,0.2-0.2,0.3c-0.1-0.6-0.5-1.1-1.2-1.3    c-0.6-0.1-1.2,0.2-1.5,0.7c-0.1-0.6-0.5-1.1-1.2-1.2c-0.6-0.1-1.2,0.2-1.5,0.7c-0.1-0.6-0.5-1.1-1.2-1.2c-0.6-0.1-1.3,0.2-1.6,0.7    c0-0.3-0.2-0.6-0.4-0.9c-0.3-0.3-0.6-0.4-1-0.4s-0.8,0.2-1,0.4c-0.3,0.3-0.4,0.6-0.4,1s0.2,0.8,0.4,1c0.3,0.3,0.6,0.4,1,0.4    s0.8-0.2,1-0.4c0.1-0.1,0.2-0.2,0.2-0.3c0.1,0.6,0.5,1.1,1.2,1.3c0.6,0.1,1.2-0.2,1.5-0.7c0.1,0.6,0.5,1.1,1.2,1.2    c0.6,0.1,1.2-0.2,1.5-0.7c0.1,0.6,0.5,1.1,1.2,1.2c0.1,0,0.2,0,0.3,0c0.5,0,1-0.3,1.3-0.8c0,0.3,0.2,0.6,0.4,0.9    c0.3,0.3,0.6,0.4,1,0.4s0.8-0.2,1-0.4c0.3-0.3,0.4-0.6,0.4-1C90.5,53.8,90.4,53.4,90.1,53.1z"/>
		<path d="M78.2,73.1c-0.2,0-0.5,0.1-0.7,0.2c0.3-0.6,0.2-1.2-0.2-1.7c-0.5-0.5-1.1-0.5-1.7-0.3c0.3-0.5,0.2-1.2-0.3-1.7    s-1.1-0.5-1.7-0.3c0.3-0.5,0.2-1.2-0.3-1.7s-1.2-0.5-1.7-0.2c0.1-0.2,0.2-0.5,0.2-0.7c0-0.4-0.2-0.8-0.4-1c-0.3-0.3-0.6-0.4-1-0.4    s-0.8,0.2-1,0.4c-0.3,0.3-0.4,0.6-0.4,1s0.2,0.8,0.4,1c0.3,0.3,0.6,0.4,1,0.4c0.2,0,0.5-0.1,0.7-0.2c-0.3,0.6-0.2,1.2,0.2,1.7    c0.5,0.5,1.1,0.5,1.7,0.3c-0.3,0.5-0.2,1.2,0.3,1.7s1.1,0.5,1.7,0.3c-0.3,0.5-0.2,1.2,0.3,1.7c0.3,0.3,0.7,0.4,1,0.4    c0.2,0,0.5-0.1,0.7-0.2c-0.1,0.2-0.2,0.5-0.2,0.7c0,0.4,0.2,0.8,0.4,1c0.3,0.3,0.6,0.4,1,0.4s0.8-0.2,1-0.4c0.3-0.3,0.4-0.6,0.4-1    s-0.2-0.8-0.4-1C78.9,73.2,78.5,73.1,78.2,73.1z"/>
		<path d="M50,70L50,70c0.6,0,1.1-0.5,1.1-1.1V41.1c0-0.6-0.5-1.1-1.1-1.1l0,0c-0.6,0-1.1,0.4-1.1,1v27.9C49,69.5,49.4,70,50,70z"/>
		<circle cx="50" cy="74.1" r="1.8"/>
	</g>
</g>
<g id="Glühbirne__x2B___x3F___x28_aus_x29_" display="none">
	<g display="inline">
		<path d="M66.5,30c-4.1-4.4-10-6.8-16.5-6.8S37.7,25.6,33.5,30c-4,4.2-6.2,10.1-6.2,16.5c0,7.9,3.5,12.9,6.6,17.4    c2.5,3.5,4.6,6.6,4.6,10.3c0,2,1.5,3.8,4.5,5c2.1,0.9,4.8,1.5,7,1.5s4.9-0.6,7-1.5c2.9-1.2,4.5-3,4.5-5c0-3.8,2.1-6.8,4.6-10.3    c3.1-4.5,6.6-9.5,6.6-17.4C72.7,40.1,70.5,34.3,66.5,30z M64.3,62.6c-2.6,3.7-5,7.1-5,11.6c0,1.5-2.2,2.6-3.1,3    c-1.8,0.8-4.3,1.3-6.2,1.3s-4.3-0.5-6.2-1.3c-0.9-0.4-3.1-1.5-3.1-3c0-4.5-2.4-7.9-5-11.6c-3.1-4.4-6.3-9-6.3-16.1    c0-5.8,2-11.1,5.6-15c3.8-4,8.9-6.1,14.9-6.1s11.1,2.1,14.9,6.1c3.6,3.8,5.6,9.2,5.6,15C70.5,53.6,67.3,58.2,64.3,62.6z"/>
		<path d="M59,79.5c-2.5,1.8-5.6,2.8-9,2.8s-6.5-1-9.1-2.8c-0.5-0.4-1.2-0.2-1.5,0.2c-0.4,0.5-0.2,1.2,0.2,1.5    c2.9,2.1,6.5,3.3,10.3,3.3s7.4-1.1,10.3-3.2c0.5-0.4,0.6-1,0.2-1.5C60.2,79.3,59.5,79.2,59,79.5z"/>
		<path d="M59,83.4c-2.3,1.7-5.3,2.5-9,2.5s-6.7-0.8-9.1-2.5c-0.5-0.4-1.2-0.2-1.5,0.2c-0.4,0.5-0.2,1.2,0.2,1.5c2.7,2,6.1,3,10.3,3    s7.5-1,10.3-2.9c0.5-0.4,0.6-1,0.2-1.5C60.2,83.1,59.5,83,59,83.4z"/>
		<path d="M59,87.3c-2.7,1.9-6.1,2.2-9,2.2s-6.3-0.3-9.1-2.3c-0.5-0.4-1.2-0.2-1.5,0.2c-0.4,0.5-0.2,1.2,0.2,1.5    c1.9,1.4,4.1,2.1,6.2,2.4c0.3,2,2,3.6,4.1,3.6s3.8-1.6,4.1-3.6c2.1-0.3,4.2-1,6.1-2.4c0.5-0.4,0.6-1,0.2-1.5    C60.2,87,59.5,86.9,59,87.3z M50,92.8c-0.8,0-1.5-0.5-1.8-1.2c0.6,0,1.2,0,1.8,0s1.2,0,1.8,0C51.6,92.3,50.9,92.8,50,92.8z"/>
		<path d="M47.6,28.6c-0.1-0.6-0.7-1-1.3-0.9c-4.4,0.8-7.8,2.9-10.9,6.7c-0.4,0.5-0.3,1.2,0.2,1.5c0.2,0.2,0.4,0.2,0.7,0.2    s0.6-0.1,0.9-0.4c2.7-3.4,5.7-5.3,9.5-5.9C47.3,29.8,47.7,29.2,47.6,28.6z"/>
		<path d="M50,39.9c-3.8,0-7.3,2.3-8.5,5.8c-0.2,0.6,0.1,1.2,0.7,1.4c0.6,0.2,1.2-0.1,1.4-0.7c0.9-2.6,3.5-4.3,6.5-4.3    c3.8,0,6.8,2.9,6.8,6.4c0,3.2-2.5,5-5.9,7.4c-0.5,0.4-1.1,0.7-1.6,1.1c-2.4,1.8-3.8,4.6-3.6,7.3c0.2,2.5,1.7,4.6,4,5.8    c0.2,0.1,0.3,0.1,0.5,0.1c0.4,0,0.8-0.2,1-0.6c0.3-0.5,0.1-1.2-0.5-1.5c-1.7-0.9-2.7-2.3-2.8-4c-0.2-2,0.9-4.1,2.7-5.4    c0.5-0.4,1.1-0.8,1.6-1.1c3.5-2.5,6.8-4.8,6.8-9.2C59.1,43.7,55,39.9,50,39.9z"/>
		<circle cx="50" cy="74.1" r="1.8"/>
	</g>
</g>
<g id="Glühbirne__x2B__Blätter" display="none">
	<g display="inline">
		<path d="M66.5,30c-4.1-4.4-10-6.8-16.5-6.8S37.7,25.6,33.5,30c-4,4.2-6.2,10.1-6.2,16.5c0,7.9,3.5,12.9,6.6,17.4    c2.5,3.5,4.6,6.6,4.6,10.3c0,2,1.5,3.8,4.5,5c2.1,0.9,4.8,1.5,7,1.5l0,0l0,0c2.2,0,4.9-0.6,7-1.5c2.9-1.2,4.5-3,4.5-5    c0-3.8,2.1-6.8,4.6-10.3c3.1-4.5,6.6-9.5,6.6-17.4C72.7,40.1,70.5,34.3,66.5,30z M57.8,46.9c-0.5-0.4-1.2-0.3-1.5,0.2    c-5.7,7.1-7.3,15.6-7.8,21.5c0,0.2,0,0.4,0,0.6c-0.4-1-0.8-2.2-1.1-3.5c-1.1-4-1.8-9.9,1-15.2c2.3-4.3,5.6-7.6,9.7-9.7    c2-1,3.7-1.4,4.7-1.7c0.6,2.8,1.8,11.1-2.2,18.8c-2.6,4.9-7.3,10.5-9.9,13.3c0-0.8,0.1-1.7,0.1-2.6c0.4-5.6,2-13.6,7.3-20.3    C58.3,48,58.2,47.3,57.8,46.9z M44.5,55.1c-1.5-3-2.7-3.9-2.9-4.1c-0.5-0.3-1.2-0.2-1.5,0.3s-0.2,1.2,0.3,1.5c0,0,1.9,1.5,3.8,7    c0,0.1,0.1,0.2,0.1,0.2c0.1,2,0.4,4.1,1,6.2c0.1,0.2,0.1,0.5,0.2,0.7c-4.3-4.7-9.6-12.1-8.9-19.5c5.3-0.9,8.4,1.6,9.5,2.7    C45.3,51.8,44.8,53.4,44.5,55.1z M64.3,62.6c-2.6,3.7-5,7.1-5,11.6c0,1.5-2.2,2.6-3.1,3c-1.6,0.7-3.5,1.1-5.2,1.3    c-0.1-0.8-0.3-2.2-0.3-3.9c1.5-1.6,8.4-9,11.8-15.5c5.3-10.1,2.3-20.9,2.2-21.4s-0.6-0.8-1.2-0.8c-0.1,0-2.8,0.3-6.3,2    c-2.9,1.4-7,4.2-10.1,9.4c-1.8-1.6-5.7-4-11.8-2.7c-0.4,0.1-0.8,0.5-0.8,0.9c-0.7,4.9,0.8,10.3,4.6,16c2.7,4.1,5.9,7.4,8.2,9.6    c0.5,1.1,0.9,1.8,1.1,2.2c0.1,1.8,0.2,3.2,0.3,4.1c-1.6-0.2-3.4-0.6-4.9-1.2c-0.9-0.4-3.1-1.5-3.1-3c0-4.5-2.4-7.9-5-11.6    c-3.1-4.4-6.3-9-6.3-16.1c0-5.8,2-11.1,5.6-15c3.8-4,8.9-6.1,14.9-6.1s11.1,2.1,14.9,6.1c3.6,3.8,5.6,9.2,5.6,15    C70.5,53.6,67.3,58.2,64.3,62.6z"/>
		<path d="M59,79.5c-2.5,1.8-5.6,2.8-9,2.8s-6.5-1-9.1-2.8c-0.5-0.4-1.2-0.2-1.5,0.2c-0.4,0.5-0.2,1.2,0.2,1.5    c2.9,2.1,6.5,3.3,10.3,3.3s7.4-1.1,10.3-3.2c0.5-0.4,0.6-1,0.2-1.5C60.2,79.3,59.5,79.2,59,79.5z"/>
		<path d="M59,83.4c-2.3,1.7-5.3,2.5-9,2.5s-6.7-0.8-9.1-2.5c-0.5-0.4-1.2-0.2-1.5,0.2c-0.4,0.5-0.2,1.2,0.2,1.5c2.7,2,6.1,3,10.3,3    s7.5-1,10.3-2.9c0.5-0.4,0.6-1,0.2-1.5C60.2,83.1,59.5,83,59,83.4z"/>
		<path d="M59,87.3c-2.7,1.9-6.1,2.2-9,2.2s-6.3-0.3-9.1-2.3c-0.5-0.4-1.2-0.2-1.5,0.2c-0.4,0.5-0.2,1.2,0.2,1.5    c1.9,1.4,4.1,2.1,6.2,2.4c0.3,2,2,3.6,4.1,3.6s3.8-1.6,4.1-3.6c2.1-0.3,4.2-1,6.1-2.4c0.5-0.4,0.6-1,0.2-1.5    C60.2,87,59.5,86.9,59,87.3z M50,92.8c-0.8,0-1.5-0.5-1.8-1.2c0.6,0,1.2,0,1.8,0s1.2,0,1.8,0C51.6,92.3,50.9,92.8,50,92.8z"/>
		<path d="M46.3,27.8c-4.4,0.8-7.8,2.9-10.9,6.7C35,35,35.1,35.7,35.6,36c0.2,0.2,0.4,0.2,0.7,0.2s0.6-0.1,0.9-0.4    c2.7-3.4,5.7-5.3,9.5-5.9c0.6-0.1,1-0.7,0.9-1.3C47.5,28.1,46.9,27.7,46.3,27.8z"/>
		<path d="M48.5,17.5c0,0.4,0.2,0.8,0.4,1c0.3,0.3,0.6,0.4,1,0.4s0.8-0.2,1-0.4c0.3-0.3,0.4-0.6,0.4-1s-0.2-0.8-0.4-1    s-0.4-0.3-0.6-0.4c0.6-0.2,1-0.7,1-1.4c0-0.6-0.4-1.2-1-1.4c0.6-0.2,1-0.7,1-1.4c0-0.6-0.4-1.2-1-1.4c0.6-0.2,1-0.7,1-1.4    c0-0.6-0.4-1.2-1-1.4c0.2-0.1,0.4-0.2,0.6-0.4c0.3-0.3,0.4-0.6,0.4-1s-0.2-0.8-0.4-1C50.7,5.2,50.3,5,50,5c-0.4,0-0.8,0.2-1,0.4    c-0.3,0.3-0.4,0.6-0.4,1s0.2,0.8,0.4,1s0.4,0.3,0.6,0.4c-0.6,0.2-1,0.7-1,1.4c0,0.6,0.4,1.2,1,1.4c-0.6,0.2-1,0.7-1,1.4    c0,0.6,0.4,1.2,1,1.4c-0.6,0.2-1,0.7-1,1.4c0,0.6,0.4,1.2,1,1.4c-0.2,0.1-0.4,0.2-0.6,0.4C48.7,16.7,48.5,17.1,48.5,17.5z"/>
		<path d="M27.8,14.6c0.1,0,0.3,0,0.4-0.1c-0.4,0.5-0.4,1.2-0.1,1.7c0.4,0.5,1,0.8,1.6,0.6c-0.4,0.5-0.4,1.2-0.1,1.7    c0.4,0.5,1,0.8,1.6,0.6c-0.4,0.5-0.4,1.2-0.1,1.7c0.3,0.4,0.7,0.6,1.2,0.6c0.1,0,0.3,0,0.4-0.1c-0.2,0.3-0.3,0.6-0.3,0.9    c0,0.4,0.2,0.8,0.4,1c0.3,0.3,0.6,0.4,1,0.4s0.8-0.2,1-0.4c0.3-0.3,0.4-0.6,0.4-1s-0.2-0.8-0.4-1c-0.3-0.3-0.6-0.4-1-0.4    c-0.1,0-0.3,0-0.4,0.1c0.4-0.5,0.4-1.2,0.1-1.7c-0.4-0.5-1-0.8-1.6-0.6c0.4-0.5,0.4-1.2,0.1-1.7c-0.4-0.5-1-0.8-1.6-0.6    c0.4-0.5,0.4-1.2,0.1-1.7c-0.4-0.5-1-0.8-1.6-0.6c0.2-0.3,0.3-0.6,0.3-0.9c0-0.4-0.2-0.8-0.4-1c-0.3-0.3-0.6-0.4-1-0.4    s-0.8,0.2-1,0.4c-0.3,0.3-0.4,0.6-0.4,1s0.2,0.8,0.4,1C27.1,14.5,27.4,14.6,27.8,14.6z"/>
		<path d="M13.2,32.6c0.4,0,0.8-0.2,1-0.4c0,0,0-0.1,0.1-0.1c0,0.6,0.3,1.2,0.9,1.5c0.6,0.2,1.3,0.1,1.7-0.4c0,0.6,0.3,1.2,0.9,1.4    s1.3,0.1,1.7-0.4c0,0.6,0.3,1.2,0.9,1.4c0.2,0.1,0.4,0.1,0.6,0.1c0.4,0,0.8-0.2,1.1-0.5v0.1c0,0.4,0.2,0.8,0.4,1    c0.3,0.3,0.6,0.4,1,0.4s0.8-0.2,1-0.4c0.3-0.3,0.4-0.6,0.4-1s-0.2-0.8-0.4-1c-0.3-0.3-0.6-0.4-1-0.4s-0.8,0.2-1,0.4    c0,0,0,0.1-0.1,0.1c0-0.6-0.3-1.2-0.9-1.5c-0.6-0.2-1.3-0.1-1.7,0.4c0-0.6-0.3-1.2-0.9-1.4c-0.6-0.2-1.3-0.1-1.7,0.4    c0-0.6-0.3-1.2-0.9-1.4c-0.6-0.2-1.3-0.1-1.7,0.4v-0.1c0-0.4-0.2-0.8-0.4-1c-0.3-0.3-0.6-0.4-1-0.4s-0.8,0.2-1,0.4    c-0.3,0.3-0.4,0.6-0.4,1s0.2,0.8,0.4,1C12.4,32.4,12.8,32.6,13.2,32.6z"/>
		<path d="M20.7,53c0.3,0.3,0.6,0.4,1,0.4s0.8-0.2,1-0.4c0.3-0.3,0.4-0.6,0.4-1s-0.2-0.8-0.4-1c-0.3-0.3-0.6-0.4-1-0.4    s-0.8,0.2-1,0.4s-0.4,0.5-0.4,0.9c-0.3-0.5-0.9-0.8-1.5-0.7s-1.1,0.6-1.2,1.2c-0.3-0.5-0.9-0.8-1.5-0.7s-1.1,0.6-1.2,1.2    c-0.3-0.5-0.9-0.8-1.5-0.7s-1.1,0.6-1.2,1.2c-0.1-0.1-0.1-0.2-0.2-0.3c-0.3-0.3-0.6-0.4-1-0.4s-0.8,0.2-1,0.4    c-0.3,0.3-0.4,0.6-0.4,1s0.2,0.8,0.4,1c0.3,0.3,0.6,0.4,1,0.4s0.8-0.2,1-0.4s0.4-0.5,0.4-0.9c0.3,0.5,0.7,0.7,1.3,0.7    c0.1,0,0.2,0,0.3,0c0.6-0.1,1.1-0.6,1.2-1.2c0.3,0.5,0.9,0.8,1.5,0.7s1.1-0.6,1.2-1.2c0.3,0.5,0.9,0.8,1.5,0.7s1.1-0.6,1.2-1.3    C20.5,52.8,20.6,52.9,20.7,53z"/>
		<path d="M29.6,65.3c-0.4,0-0.8,0.2-1,0.4c-0.3,0.3-0.4,0.6-0.4,1c0,0.2,0.1,0.5,0.2,0.7c-0.5-0.3-1.2-0.2-1.7,0.3    s-0.5,1.1-0.3,1.7c-0.5-0.3-1.2-0.2-1.7,0.3s-0.5,1.1-0.3,1.7c-0.5-0.3-1.2-0.2-1.7,0.3s-0.5,1.1-0.3,1.7    c-0.2-0.1-0.4-0.2-0.7-0.2c-0.4,0-0.8,0.2-1,0.4s-0.4,0.6-0.4,1s0.2,0.8,0.4,1c0.3,0.3,0.6,0.4,1,0.4s0.8-0.2,1-0.4    c0.3-0.3,0.4-0.6,0.4-1c0-0.2-0.1-0.5-0.2-0.7c0.2,0.1,0.4,0.2,0.7,0.2c0.4,0,0.7-0.1,1-0.4c0.5-0.5,0.5-1.1,0.3-1.7    c0.5,0.3,1.2,0.2,1.7-0.3s0.5-1.1,0.3-1.7c0.5,0.3,1.2,0.2,1.7-0.3s0.5-1.1,0.3-1.7c0.2,0.1,0.4,0.2,0.7,0.2c0.4,0,0.8-0.2,1-0.4    c0.3-0.3,0.4-0.6,0.4-1s-0.2-0.8-0.4-1C30.4,65.4,30,65.3,29.6,65.3z"/>
		<path d="M66.1,23.8c0.4,0,0.8-0.2,1-0.4c0.3-0.3,0.4-0.6,0.4-1c0-0.3-0.1-0.6-0.3-0.9c0.1,0,0.3,0.1,0.4,0.1    c0.5,0,0.9-0.2,1.2-0.6c0.4-0.5,0.3-1.2-0.1-1.7c0.6,0.2,1.2-0.1,1.6-0.6s0.3-1.2-0.1-1.7c0.6,0.2,1.2-0.1,1.6-0.6    s0.3-1.2-0.1-1.7c0.1,0,0.3,0.1,0.4,0.1c0.4,0,0.8-0.2,1-0.4c0.3-0.3,0.4-0.6,0.4-1s-0.2-0.8-0.4-1c-0.3-0.3-0.6-0.4-1-0.4    s-0.8,0.2-1,0.4c-0.3,0.3-0.4,0.6-0.4,1c0,0.3,0.1,0.6,0.3,0.9c-0.6-0.2-1.2,0.1-1.6,0.6s-0.3,1.2,0.1,1.7    c-0.6-0.2-1.2,0.1-1.6,0.6s-0.3,1.2,0.1,1.7c-0.6-0.2-1.2,0.1-1.6,0.6s-0.3,1.2,0.1,1.7c-0.1,0-0.3-0.1-0.4-0.1    c-0.4,0-0.8,0.2-1,0.4c-0.3,0.3-0.4,0.6-0.4,1s0.2,0.8,0.4,1S65.7,23.8,66.1,23.8z"/>
		<path d="M76.7,36.8c0.4,0,0.8-0.2,1-0.4c0.3-0.3,0.4-0.6,0.4-1v-0.1c0.3,0.3,0.7,0.5,1.1,0.5c0.2,0,0.4,0,0.6-0.1    c0.6-0.2,0.9-0.8,0.9-1.4c0.4,0.5,1.1,0.6,1.7,0.4c0.6-0.2,0.9-0.8,0.9-1.4c0.4,0.5,1.1,0.6,1.7,0.4c0.6-0.2,0.9-0.8,0.9-1.5    c0,0,0,0.1,0.1,0.1c0.3,0.3,0.6,0.4,1,0.4s0.8-0.2,1-0.4c0.3-0.3,0.4-0.6,0.4-1s-0.2-0.8-0.4-1c-0.3-0.3-0.6-0.4-1-0.4    s-0.8,0.2-1,0.4c-0.3,0.3-0.4,0.6-0.4,1v0.1c-0.4-0.5-1.1-0.6-1.7-0.4S83,31.8,83,32.4c-0.4-0.5-1.1-0.6-1.7-0.4    c-0.6,0.2-0.9,0.8-0.9,1.4c-0.4-0.5-1.1-0.6-1.7-0.4c-0.6,0.2-0.9,0.8-0.9,1.5c0,0,0-0.1-0.1-0.1c-0.3-0.3-0.6-0.4-1-0.4    s-0.8,0.2-1,0.4c-0.3,0.3-0.4,0.6-0.4,1s0.2,0.8,0.4,1C75.9,36.6,76.3,36.8,76.7,36.8z"/>
		<path d="M90.1,53.1c-0.3-0.3-0.6-0.4-1-0.4s-0.8,0.2-1,0.4c-0.1,0.1-0.2,0.2-0.2,0.3c-0.1-0.6-0.5-1.1-1.2-1.3    c-0.6-0.1-1.2,0.2-1.5,0.7c-0.1-0.6-0.5-1.1-1.2-1.2c-0.6-0.1-1.2,0.2-1.5,0.7c-0.1-0.6-0.5-1.1-1.2-1.2c-0.6-0.1-1.2,0.2-1.5,0.7    c0-0.3-0.2-0.6-0.4-0.9c-0.3-0.3-0.6-0.4-1-0.4s-0.8,0.2-1,0.4c-0.3,0.3-0.4,0.6-0.4,1s0.2,0.8,0.4,1c0.3,0.3,0.6,0.4,1,0.4    s0.8-0.2,1-0.4c0.1-0.1,0.2-0.2,0.2-0.3c0.1,0.6,0.5,1.1,1.2,1.3c0.6,0.1,1.2-0.2,1.5-0.7c0.1,0.6,0.5,1.1,1.2,1.2    c0.6,0.1,1.2-0.2,1.5-0.7c0.1,0.6,0.5,1.1,1.2,1.2c0.1,0,0.2,0,0.3,0c0.5,0,1-0.3,1.3-0.7c0,0.3,0.2,0.6,0.4,0.9    c0.3,0.3,0.6,0.4,1,0.4s0.8-0.2,1-0.4c0.3-0.3,0.4-0.6,0.4-1C90.5,53.8,90.4,53.4,90.1,53.1z"/>
		<path d="M78.2,73.1c-0.2,0-0.5,0.1-0.7,0.2c0.3-0.5,0.2-1.2-0.3-1.7s-1.1-0.5-1.7-0.3c0.3-0.5,0.2-1.2-0.3-1.7s-1.1-0.5-1.7-0.3    c0.3-0.5,0.2-1.2-0.3-1.7s-1.1-0.5-1.7-0.3c0.1-0.2,0.2-0.4,0.2-0.7c0-0.4-0.2-0.8-0.4-1c-0.3-0.3-0.6-0.4-1-0.4s-0.8,0.2-1,0.4    c-0.3,0.3-0.4,0.6-0.4,1s0.2,0.8,0.4,1c0.3,0.3,0.6,0.4,1,0.4c0.2,0,0.5-0.1,0.7-0.2c-0.3,0.5-0.2,1.2,0.3,1.7s1.1,0.5,1.7,0.3    c-0.3,0.5-0.2,1.2,0.3,1.7s1.1,0.5,1.7,0.3c-0.3,0.5-0.2,1.2,0.3,1.7c0.3,0.3,0.7,0.4,1,0.4c0.2,0,0.5-0.1,0.7-0.2    c-0.1,0.2-0.2,0.4-0.2,0.7c0,0.4,0.2,0.8,0.4,1c0.3,0.3,0.6,0.4,1,0.4s0.8-0.2,1-0.4c0.3-0.3,0.4-0.6,0.4-1s-0.2-0.8-0.4-1    C78.9,73.2,78.5,73.1,78.2,73.1z"/>
	</g>
</g>
<g id="Glühbirne__x2B__Atom">
	<g>
		<path d="M66.4,30c-4.1-4.4-10-6.8-16.5-6.8S37.6,25.6,33.4,30c-4,4.2-6.2,10.1-6.2,16.5c0,7.9,3.5,12.9,6.6,17.4    c2.5,3.5,4.6,6.6,4.6,10.3c0,2,1.5,3.8,4.5,5c2.1,0.9,4.8,1.5,7,1.5c2.2,0,4.9-0.6,7-1.5c2.9-1.2,4.5-3,4.5-5    c0-3.8,2.1-6.8,4.6-10.3c3.1-4.5,6.6-9.5,6.6-17.4C72.6,40.1,70.4,34.3,66.4,30z M42.4,56.1c-0.6-0.5-1.1-0.9-1.6-1.4    c0.5-0.5,1-0.9,1.6-1.4c0,0.5,0,0.9,0,1.4C42.3,55.2,42.3,55.6,42.4,56.1z M42.5,59c0.2,1.5,0.4,2.9,0.7,4.3    c-1.2,0.3-2.3,0.4-3.3,0.4c-1.7,0-2.9-0.4-3.4-1.2c-0.6-1.1,0.1-3,1.8-5.2c0.3-0.3,0.5-0.7,0.8-1C40.2,57.2,41.3,58.1,42.5,59z     M59.2,74.3c0,1.5-2.2,2.6-3.1,3c-1.8,0.8-4.3,1.3-6.2,1.3c-1.9,0-4.3-0.5-6.2-1.3c-0.9-0.4-3.1-1.5-3.1-3c0-3.3-1.3-6-3-8.7    c0.7,0.2,1.4,0.3,2.4,0.3c1.2,0,2.5-0.2,3.9-0.5c0.2,0.5,0.3,1,0.5,1.5c0.6,1.5,1.3,2.7,2.1,3.7c0.2-0.8,0.6-1.5,1.2-2    c-0.5-0.7-0.9-1.5-1.3-2.5c-0.2-0.4-0.3-0.8-0.4-1.2c1.3-0.4,2.7-0.9,4-1.5c1.4,0.6,2.7,1.1,4,1.5c-0.1,0.4-0.3,0.8-0.4,1.2    c-0.4,1-0.8,1.8-1.3,2.5c0.6,0.5,1,1.2,1.2,2c0.8-0.9,1.5-2.1,2.1-3.7c0.2-0.5,0.4-1,0.5-1.5c1.4,0.3,2.7,0.5,3.9,0.5    c0.9,0,1.6-0.1,2.3-0.2C60.5,68.3,59.2,71,59.2,74.3z M49.9,46.1c-1.4-0.6-2.7-1.1-4-1.5c0.1-0.4,0.3-0.8,0.4-1.2    c1-2.6,2.4-4.2,3.6-4.2c1.2,0,2.6,1.6,3.6,4.2c0.2,0.4,0.3,0.8,0.4,1.2C52.7,45,51.3,45.5,49.9,46.1z M54.5,46.6    c0.2,0.7,0.3,1.4,0.4,2.1c-0.4-0.2-0.8-0.5-1.2-0.7c-0.4-0.2-0.8-0.5-1.2-0.7C53.2,47.1,53.9,46.9,54.5,46.6z M47.3,47.4    c-0.4,0.2-0.8,0.4-1.2,0.7c-0.4,0.2-0.8,0.5-1.2,0.7c0.1-0.7,0.2-1.4,0.4-2.1C46,46.9,46.7,47.1,47.3,47.4z M47.2,49.9    c0.9-0.5,1.8-1,2.7-1.4c0.9,0.4,1.8,0.9,2.7,1.4c0.9,0.5,1.8,1.1,2.6,1.6c0.1,1,0.1,2,0.1,3.1c0,1,0,2.1-0.1,3.1    c-0.8,0.6-1.7,1.1-2.6,1.6c-0.9,0.5-1.8,1-2.7,1.4c-0.9-0.4-1.8-0.9-2.7-1.4c-0.9-0.5-1.8-1.1-2.6-1.6c-0.1-1-0.1-2-0.1-3.1    c0-1,0-2.1,0.1-3.1C45.5,51.1,46.3,50.5,47.2,49.9z M54.9,60.6c-0.1,0.7-0.2,1.4-0.4,2.1c-0.7-0.2-1.3-0.4-2-0.7    c0.4-0.2,0.8-0.4,1.2-0.7C54.1,61.1,54.5,60.8,54.9,60.6z M47.3,62c-0.7,0.3-1.4,0.5-2,0.7c-0.2-0.7-0.3-1.4-0.4-2.1    c0.4,0.2,0.8,0.5,1.2,0.7C46.5,61.5,46.9,61.8,47.3,62z M57.5,53.3c0.6,0.5,1.1,0.9,1.6,1.4c-0.5,0.5-1,0.9-1.6,1.4    c0-0.5,0-0.9,0-1.4S57.5,53.8,57.5,53.3z M60.7,56.3c0.3,0.3,0.6,0.7,0.8,1c1.7,2.2,2.4,4.1,1.8,5.2c-0.4,0.8-1.6,1.2-3.4,1.2    c-1,0-2.1-0.1-3.3-0.4c0.3-1.3,0.5-2.8,0.7-4.3C58.5,58.1,59.7,57.2,60.7,56.3z M65.6,60.6c-0.3-1.4-1.1-3-2.4-4.7    c-0.3-0.4-0.7-0.8-1-1.2c0.4-0.4,0.7-0.8,1-1.2c1-1.3,1.7-2.5,2.1-3.6c-0.3,0.1-0.7,0.2-1.1,0.2c-0.4,0-0.9-0.1-1.2-0.2    c-0.3,0.7-0.8,1.5-1.5,2.3c-0.3,0.3-0.5,0.7-0.8,1c-1-0.9-2.1-1.8-3.3-2.7c-0.2-1.5-0.4-2.9-0.7-4.3c1.2-0.3,2.3-0.4,3.3-0.4    c0.3,0,0.5,0,0.7,0c0-0.1,0-0.2,0.1-0.3c0.2-0.7,0.5-1.3,1.1-1.7c-0.5-0.1-1.2-0.2-1.9-0.2c-1.2,0-2.5,0.2-3.9,0.5    c-0.2-0.5-0.3-1-0.5-1.5c-1.4-3.6-3.4-5.5-5.7-5.5c-2.3,0-4.2,2-5.6,5.5c-0.2,0.5-0.4,1-0.5,1.5c-1.4-0.3-2.7-0.5-3.9-0.5    c-0.7,0-1.3,0.1-1.9,0.2c0.5,0.5,0.9,1.1,1.1,1.7c0,0.1,0.1,0.2,0.1,0.3c0.2,0,0.5,0,0.7,0c1,0,2.1,0.1,3.3,0.4    c-0.3,1.3-0.5,2.8-0.7,4.3c-1.2,0.9-2.3,1.8-3.3,2.7c-0.3-0.3-0.6-0.7-0.8-1c-0.7-0.8-1.2-1.6-1.5-2.3c-0.4,0.1-0.8,0.2-1.2,0.2    c-0.4,0-0.7-0.1-1.1-0.2c0.4,1.1,1.1,2.4,2.1,3.6c0.3,0.4,0.7,0.8,1,1.2c-0.4,0.4-0.7,0.8-1,1.2c-1.4,1.7-2.2,3.3-2.4,4.8    c-2.6-3.8-4.8-8-4.8-14.1c0-5.8,2-11.1,5.6-15c3.8-4,8.9-6.1,14.9-6.1s11.1,2.1,14.9,6.1c3.6,3.8,5.6,9.2,5.6,15    C70.4,52.6,68.2,56.8,65.6,60.6z"/>
		<path d="M58.9,79.6c-2.5,1.8-5.6,2.8-9,2.8c-3.4,0-6.5-1-9.1-2.8c-0.5-0.4-1.2-0.2-1.5,0.2c-0.4,0.5-0.2,1.2,0.2,1.5    c2.9,2.1,6.5,3.3,10.3,3.3s7.4-1.1,10.3-3.2c0.5-0.4,0.6-1,0.2-1.5C60.1,79.4,59.4,79.3,58.9,79.6z"/>
		<path d="M58.9,83.5c-2.3,1.7-5.3,2.5-9,2.5s-6.7-0.8-9.1-2.5c-0.5-0.4-1.2-0.2-1.5,0.2c-0.4,0.5-0.2,1.2,0.2,1.5    c2.7,2,6.1,3,10.3,3s7.5-1,10.3-2.9c0.5-0.4,0.6-1,0.2-1.5C60.1,83.2,59.4,83.1,58.9,83.5z"/>
		<path d="M58.9,87.4c-2.7,1.9-6.1,2.2-9,2.2c-2.9,0-6.3-0.3-9.1-2.3c-0.5-0.4-1.2-0.2-1.5,0.2c-0.4,0.5-0.2,1.2,0.2,1.5    c1.9,1.4,4.1,2.1,6.2,2.4c0.3,2,2,3.6,4.1,3.6c2.1,0,3.8-1.6,4.1-3.6c2.1-0.3,4.2-1,6.1-2.4c0.5-0.4,0.6-1,0.2-1.5    C60.1,87.1,59.4,87,58.9,87.4z M49.9,92.9c-0.8,0-1.5-0.5-1.8-1.2c0.6,0,1.2,0,1.8,0s1.2,0,1.8,0C51.5,92.4,50.8,92.9,49.9,92.9z"/>
		<path d="M46.2,27.8c-4.4,0.8-7.8,2.9-10.9,6.7C34.9,35,35,35.7,35.5,36c0.2,0.2,0.4,0.2,0.7,0.2c0.3,0,0.6-0.1,0.9-0.4    c2.7-3.4,5.7-5.3,9.5-5.9c0.6-0.1,1-0.7,0.9-1.3C47.4,28.1,46.8,27.7,46.2,27.8z"/>
		<path d="M48.4,17.5c0,0.4,0.2,0.8,0.4,1c0.3,0.3,0.6,0.4,1,0.4c0.4,0,0.8-0.2,1-0.4c0.3-0.3,0.4-0.6,0.4-1c0-0.4-0.2-0.8-0.4-1    s-0.4-0.3-0.6-0.4c0.6-0.2,1-0.7,1-1.4c0-0.6-0.4-1.2-1-1.4c0.6-0.2,1-0.7,1-1.4c0-0.6-0.4-1.2-1-1.4c0.6-0.2,1-0.7,1-1.4    c0-0.6-0.4-1.2-1-1.4c0.2-0.1,0.4-0.2,0.6-0.4c0.3-0.3,0.4-0.6,0.4-1s-0.2-0.8-0.4-1C50.6,5.2,50.2,5,49.9,5c-0.4,0-0.8,0.2-1,0.4    c-0.3,0.3-0.4,0.6-0.4,1s0.2,0.8,0.4,1s0.4,0.3,0.6,0.4c-0.6,0.2-1,0.7-1,1.4c0,0.6,0.4,1.2,1,1.4c-0.6,0.2-1,0.7-1,1.4    c0,0.6,0.4,1.2,1,1.4c-0.6,0.2-1,0.7-1,1.4c0,0.6,0.4,1.2,1,1.4c-0.2,0.1-0.4,0.2-0.6,0.4C48.6,16.7,48.4,17.1,48.4,17.5z"/>
		<path d="M27.7,14.6c0.1,0,0.3,0,0.4-0.1c-0.4,0.5-0.4,1.2-0.1,1.7c0.4,0.5,1,0.8,1.6,0.6c-0.4,0.5-0.4,1.2-0.1,1.7    c0.4,0.5,1,0.8,1.6,0.6c-0.4,0.5-0.4,1.2-0.1,1.7c0.3,0.4,0.7,0.6,1.2,0.6c0.1,0,0.3,0,0.4-0.1c-0.2,0.3-0.3,0.6-0.3,0.9    c0,0.4,0.2,0.8,0.4,1c0.3,0.3,0.6,0.4,1,0.4c0.4,0,0.8-0.2,1-0.4c0.3-0.3,0.4-0.6,0.4-1c0-0.4-0.2-0.8-0.4-1    c-0.3-0.3-0.6-0.4-1-0.4c-0.1,0-0.3,0-0.4,0.1c0.4-0.5,0.4-1.2,0.1-1.7c-0.4-0.5-1-0.8-1.6-0.6c0.4-0.5,0.4-1.2,0.1-1.7    c-0.4-0.5-1-0.8-1.6-0.6c0.4-0.5,0.4-1.2,0.1-1.7c-0.4-0.5-1-0.8-1.6-0.6c0.2-0.3,0.3-0.6,0.3-0.9c0-0.4-0.2-0.8-0.4-1    c-0.3-0.3-0.6-0.4-1-0.4c-0.4,0-0.8,0.2-1,0.4c-0.3,0.3-0.4,0.6-0.4,1c0,0.4,0.2,0.8,0.4,1C27,14.5,27.3,14.6,27.7,14.6z"/>
		<path d="M13.1,32.6c0.4,0,0.8-0.2,1-0.4c0,0,0-0.1,0.1-0.1c0,0.6,0.3,1.2,0.9,1.5c0.6,0.2,1.3,0.1,1.7-0.4c0,0.6,0.3,1.2,0.9,1.4    c0.6,0.2,1.3,0.1,1.7-0.4c0,0.6,0.3,1.2,0.9,1.4c0.2,0.1,0.4,0.1,0.6,0.1c0.4,0,0.8-0.2,1.1-0.5v0.1c0,0.4,0.2,0.8,0.4,1    c0.3,0.3,0.6,0.4,1,0.4c0.4,0,0.8-0.2,1-0.4c0.3-0.3,0.4-0.6,0.4-1s-0.2-0.8-0.4-1c-0.3-0.3-0.6-0.4-1-0.4c-0.4,0-0.8,0.2-1,0.4    c0,0,0,0.1-0.1,0.1c0-0.6-0.3-1.2-0.9-1.5c-0.6-0.2-1.3-0.1-1.7,0.4c0-0.6-0.3-1.2-0.9-1.4c-0.6-0.2-1.3-0.1-1.7,0.4    c0-0.6-0.3-1.2-0.9-1.4c-0.6-0.2-1.3-0.1-1.7,0.4v-0.1c0-0.4-0.2-0.8-0.4-1c-0.3-0.3-0.6-0.4-1-0.4c-0.4,0-0.8,0.2-1,0.4    c-0.3,0.3-0.4,0.6-0.4,1c0,0.4,0.2,0.8,0.4,1S12.7,32.6,13.1,32.6z"/>
		<path d="M20.6,53.1c0.3,0.3,0.6,0.4,1,0.4c0.4,0,0.8-0.2,1-0.4c0.3-0.3,0.4-0.6,0.4-1c0-0.4-0.2-0.8-0.4-1c-0.3-0.3-0.6-0.4-1-0.4    c-0.4,0-0.8,0.2-1,0.4c-0.2,0.2-0.4,0.5-0.4,0.9c-0.3-0.5-0.9-0.8-1.5-0.7c-0.6,0.1-1.1,0.6-1.2,1.2c-0.3-0.5-0.9-0.8-1.5-0.7    c-0.6,0.1-1.1,0.6-1.2,1.2c-0.3-0.5-0.9-0.8-1.5-0.7s-1.1,0.6-1.2,1.2c-0.1-0.1-0.1-0.2-0.2-0.3c-0.3-0.3-0.6-0.4-1-0.4    c-0.4,0-0.8,0.2-1,0.4c-0.3,0.3-0.4,0.6-0.4,1c0,0.4,0.2,0.8,0.4,1c0.3,0.3,0.6,0.4,1,0.4c0.4,0,0.8-0.2,1-0.4    c0.2-0.2,0.4-0.5,0.4-0.9c0.3,0.5,0.7,0.7,1.3,0.7c0.1,0,0.2,0,0.3,0c0.6-0.1,1.1-0.6,1.2-1.2c0.3,0.5,0.9,0.8,1.5,0.7    c0.6-0.1,1.1-0.6,1.2-1.2c0.3,0.5,0.9,0.8,1.5,0.7s1.1-0.6,1.2-1.3C20.4,52.9,20.5,53,20.6,53.1z"/>
		<path d="M29.5,65.4c-0.4,0-0.8,0.2-1,0.4c-0.3,0.3-0.4,0.6-0.4,1c0,0.2,0.1,0.5,0.2,0.7c-0.5-0.3-1.2-0.2-1.7,0.3    c-0.5,0.5-0.5,1.1-0.3,1.7c-0.5-0.3-1.2-0.2-1.7,0.3c-0.5,0.5-0.5,1.1-0.3,1.7c-0.5-0.3-1.2-0.2-1.7,0.3c-0.5,0.5-0.5,1.1-0.3,1.7    c-0.2-0.1-0.4-0.2-0.7-0.2c-0.4,0-0.8,0.2-1,0.4c-0.2,0.2-0.4,0.6-0.4,1s0.2,0.8,0.4,1c0.3,0.3,0.6,0.4,1,0.4c0.4,0,0.8-0.2,1-0.4    c0.3-0.3,0.4-0.6,0.4-1c0-0.2-0.1-0.5-0.2-0.7c0.2,0.1,0.4,0.2,0.7,0.2c0.4,0,0.7-0.1,1-0.4c0.5-0.5,0.5-1.1,0.3-1.7    c0.5,0.3,1.2,0.2,1.7-0.3c0.5-0.5,0.5-1.1,0.3-1.7c0.5,0.3,1.2,0.2,1.7-0.3s0.5-1.1,0.3-1.7c0.2,0.1,0.4,0.2,0.7,0.2    c0.4,0,0.8-0.2,1-0.4c0.3-0.3,0.4-0.6,0.4-1s-0.2-0.8-0.4-1C30.3,65.5,29.9,65.4,29.5,65.4z"/>
		<path d="M66,23.8c0.4,0,0.8-0.2,1-0.4c0.3-0.3,0.4-0.6,0.4-1c0-0.3-0.1-0.6-0.3-0.9c0.1,0,0.3,0.1,0.4,0.1c0.5,0,0.9-0.2,1.2-0.6    c0.4-0.5,0.3-1.2-0.1-1.7c0.6,0.2,1.2-0.1,1.6-0.6c0.4-0.5,0.3-1.2-0.1-1.7c0.6,0.2,1.2-0.1,1.6-0.6c0.4-0.5,0.3-1.2-0.1-1.7    c0.1,0,0.3,0.1,0.4,0.1c0.4,0,0.8-0.2,1-0.4c0.3-0.3,0.4-0.6,0.4-1c0-0.4-0.2-0.8-0.4-1c-0.3-0.3-0.6-0.4-1-0.4s-0.8,0.2-1,0.4    c-0.3,0.3-0.4,0.6-0.4,1c0,0.3,0.1,0.6,0.3,0.9c-0.6-0.2-1.2,0.1-1.6,0.6c-0.4,0.5-0.3,1.2,0.1,1.7c-0.6-0.2-1.2,0.1-1.6,0.6    c-0.4,0.5-0.3,1.2,0.1,1.7c-0.6-0.2-1.2,0.1-1.6,0.6c-0.4,0.5-0.3,1.2,0.1,1.7c-0.1,0-0.3-0.1-0.4-0.1c-0.4,0-0.8,0.2-1,0.4    c-0.3,0.3-0.4,0.6-0.4,1c0,0.4,0.2,0.8,0.4,1C65.2,23.7,65.6,23.8,66,23.8z"/>
		<path d="M76.6,36.8c0.4,0,0.8-0.2,1-0.4c0.3-0.3,0.4-0.6,0.4-1v-0.1c0.3,0.3,0.7,0.5,1.1,0.5c0.2,0,0.4,0,0.6-0.1    c0.6-0.2,0.9-0.8,0.9-1.4c0.4,0.5,1.1,0.6,1.7,0.4c0.6-0.2,0.9-0.8,0.9-1.4c0.4,0.5,1.1,0.6,1.7,0.4c0.6-0.2,0.9-0.8,0.9-1.5    c0,0,0,0.1,0.1,0.1c0.3,0.3,0.6,0.4,1,0.4c0.4,0,0.8-0.2,1-0.4c0.3-0.3,0.4-0.6,0.4-1s-0.2-0.8-0.4-1c-0.3-0.3-0.6-0.4-1-0.4    c-0.4,0-0.8,0.2-1,0.4c-0.3,0.3-0.4,0.6-0.4,1v0.1c-0.4-0.5-1.1-0.6-1.7-0.4c-0.6,0.2-0.9,0.8-0.9,1.4c-0.4-0.5-1.1-0.6-1.7-0.4    c-0.6,0.2-0.9,0.8-0.9,1.4c-0.4-0.5-1.1-0.6-1.7-0.4c-0.6,0.2-0.9,0.8-0.9,1.5c0,0,0-0.1-0.1-0.1c-0.3-0.3-0.6-0.4-1-0.4    c-0.4,0-0.8,0.2-1,0.4c-0.3,0.3-0.4,0.6-0.4,1s0.2,0.8,0.4,1C75.8,36.6,76.2,36.8,76.6,36.8z"/>
		<path d="M90,53.2c-0.3-0.3-0.6-0.4-1-0.4c-0.4,0-0.8,0.2-1,0.4c-0.1,0.1-0.2,0.2-0.2,0.3c-0.1-0.6-0.5-1.1-1.2-1.3    c-0.6-0.1-1.2,0.2-1.5,0.7c-0.1-0.6-0.5-1.1-1.2-1.2c-0.6-0.1-1.2,0.2-1.5,0.7c-0.1-0.6-0.5-1.1-1.2-1.2c-0.6-0.1-1.2,0.2-1.5,0.7    c0-0.3-0.2-0.6-0.4-0.9c-0.3-0.3-0.6-0.4-1-0.4c-0.4,0-0.8,0.2-1,0.4c-0.3,0.3-0.4,0.6-0.4,1c0,0.4,0.2,0.8,0.4,1    c0.3,0.3,0.6,0.4,1,0.4c0.4,0,0.8-0.2,1-0.4c0.1-0.1,0.2-0.2,0.2-0.3c0.1,0.6,0.5,1.1,1.2,1.3c0.6,0.1,1.2-0.2,1.5-0.7    c0.1,0.6,0.5,1.1,1.2,1.2c0.6,0.1,1.2-0.2,1.5-0.7c0.1,0.6,0.5,1.1,1.2,1.2c0.1,0,0.2,0,0.3,0c0.5,0,1-0.3,1.3-0.7    c0,0.3,0.2,0.6,0.4,0.9c0.3,0.3,0.6,0.4,1,0.4c0.4,0,0.8-0.2,1-0.4c0.3-0.3,0.4-0.6,0.4-1C90.4,53.9,90.3,53.5,90,53.2z"/>
		<path d="M78.1,73.2c-0.2,0-0.5,0.1-0.7,0.2c0.3-0.5,0.2-1.2-0.3-1.7s-1.1-0.5-1.7-0.3c0.3-0.5,0.2-1.2-0.3-1.7s-1.1-0.5-1.7-0.3    c0.3-0.5,0.2-1.2-0.3-1.7c-0.5-0.5-1.1-0.5-1.7-0.3c0.1-0.2,0.2-0.4,0.2-0.7c0-0.4-0.2-0.8-0.4-1c-0.3-0.3-0.6-0.4-1-0.4    c-0.4,0-0.8,0.2-1,0.4c-0.3,0.3-0.4,0.6-0.4,1c0,0.4,0.2,0.8,0.4,1c0.3,0.3,0.6,0.4,1,0.4c0.2,0,0.5-0.1,0.7-0.2    c-0.3,0.5-0.2,1.2,0.3,1.7c0.5,0.5,1.1,0.5,1.7,0.3c-0.3,0.5-0.2,1.2,0.3,1.7s1.1,0.5,1.7,0.3c-0.3,0.5-0.2,1.2,0.3,1.7    c0.3,0.3,0.7,0.4,1,0.4c0.2,0,0.5-0.1,0.7-0.2c-0.1,0.2-0.2,0.4-0.2,0.7c0,0.4,0.2,0.8,0.4,1c0.3,0.3,0.6,0.4,1,0.4    c0.4,0,0.8-0.2,1-0.4c0.3-0.3,0.4-0.6,0.4-1s-0.2-0.8-0.4-1C78.8,73.3,78.4,73.2,78.1,73.2z"/>
	</g>
	<g>
		<circle cx="49.9" cy="71.3" r="2.2"/>
	</g>
	<g>
		<circle cx="35.6" cy="46.3" r="2.2"/>
	</g>
	<g>
		<circle cx="64.3" cy="46.3" r="2.2"/>
	</g>
	<circle cx="49.9" cy="54.7" r="2.9"/>
</g>
</svg>